<svg id="Layer_1" data-name="Layer 1" xmlns="http://www.w3.org/2000/svg" viewBox="0 0 107.7 119.71"><defs><style>.cls-1{fill:#c4bcbc;stroke-width:3px;}.cls-1,.cls-2{stroke:#010101;stroke-linecap:square;stroke-miterlimit:3;}.cls-2{fill:#7f7575;stroke-width:1.5px;}.cls-3{fill:#010101;}</style></defs><title>checksumcheck_logo</title><path class="cls-1" d="M18.3,5.49H97.13l19.23,17.65v92.65a6.21,6.21,0,0,1-6.21,6.2H18.3a6.21,6.21,0,0,1-6.21-6.2V11.7A6.21,6.21,0,0,1,18.3,5.49Z" transform="translate(-10.59 -3.78)"/><path class="cls-2" d="M97.13,23.14h19.23L97.13,5.49Z" transform="translate(-10.59 -3.78)"/><path class="cls-3" d="M87.55,35.93a2.14,2.14,0,0,1-.92-.22,47.63,47.63,0,0,0-44.74,0,2,2,0,0,1-2.73-.79A2,2,0,0,1,40,32.21a51.7,51.7,0,0,1,48.5,0,2,2,0,0,1,.87,2.67,2.05,2.05,0,0,1-1.79,1.07ZM30.09,56.7a2.12,2.12,0,0,1-1.17-.36,2,2,0,0,1-.48-2.75,41.62,41.62,0,0,1,15.08-13,47,47,0,0,1,41.42,0A41.81,41.81,0,0,1,100,53.45a2,2,0,0,1-.46,2.75,2,2,0,0,1-2.81-.45A37.57,37.57,0,0,0,83.11,44.12a42.77,42.77,0,0,0-37.74,0A37.64,37.64,0,0,0,31.73,55.88a2,2,0,0,1-1.64.82Zm25.12,47.72a2,2,0,0,1-1.43-.6A41.49,41.49,0,0,1,45.71,93.4a34.78,34.78,0,0,1-4.24-17.19c0-11.74,10.2-21.31,22.75-21.31S87,64.45,87,76.21a2,2,0,0,1-4,0c0-9.57-8.39-17.36-18.73-17.36S45.49,66.64,45.49,76.21A30.94,30.94,0,0,0,49.2,91.46,37.48,37.48,0,0,0,56.61,101a1.94,1.94,0,0,1,0,2.79,1.79,1.79,0,0,1-1.38.6ZM84,97.1a22.08,22.08,0,0,1-12.45-3.5A21,21,0,0,1,62,76.23a2,2,0,0,1,4,0A17.07,17.07,0,0,0,73.8,90.32,17.75,17.75,0,0,0,84,93.14a26.17,26.17,0,0,0,4.19-.37,2,2,0,0,1,2.33,1.6,2,2,0,0,1-1.62,2.29,28.89,28.89,0,0,1-4.9.44Zm-8.09,8.17a1.55,1.55,0,0,1-.53-.08,30.77,30.77,0,0,1-14.91-8.31,28.71,28.71,0,0,1-8.7-20.65c0-6.42,5.54-11.64,12.37-11.64s12.37,5.22,12.37,11.64c0,4.24,3.75,7.7,8.35,7.7s8.35-3.44,8.35-7.7c0-14.91-13-27-29.09-27-11.42,0-21.84,6.25-26.54,15.94a25,25,0,0,0-2.35,11.09,38.87,38.87,0,0,0,2.67,14.26,2,2,0,0,1-1.19,2.56,2,2,0,0,1-2.59-1.17,43.65,43.65,0,0,1-2.93-15.65,29,29,0,0,1,2.75-12.79c5.36-11,17.21-18.18,30.16-18.18,18.25,0,33.11,13.91,33.11,31,0,6.43-5.56,11.65-12.37,11.65S72.45,82.68,72.45,76.25c0-4.23-3.75-7.69-8.35-7.69S55.75,72,55.75,76.25a24.81,24.81,0,0,0,7.51,17.84,27.14,27.14,0,0,0,13.15,7.3,2,2,0,0,1-.52,3.88Z" transform="translate(-10.59 -3.78)"/></svg>