<?xml version="1.0" encoding="utf-8"?>
<!-- Generator: Adobe Illustrator 23.0.0, SVG Export Plug-In . SVG Version: 6.00 Build 0)  -->
<svg version="1.1" id="Layer_1" xmlns="http://www.w3.org/2000/svg" xmlns:xlink="http://www.w3.org/1999/xlink" x="0px" y="0px"
	 viewBox="0 0 363.7 303.3" style="enable-background:new 0 0 363.7 303.3;" xml:space="preserve">
<style type="text/css">
	.st0{fill:#FCA89E;}
	.st1{fill:#68E1FD;}
	.st2{fill:#473F47;}
	.st3{fill:#FFFFFF;}
	.st4{opacity:0.18;fill:#68E1FD;enable-background:new    ;}
	.st5{opacity:0.14;fill:#020202;enable-background:new    ;}
	.st6{opacity:0.4;fill:#020202;enable-background:new    ;}
	.st7{fill:url(#SVGID_1_);}
</style>
<title>13</title>
<path class="st0" d="M151.5,127.2c-0.2-1-1-1.9-2-2.1c-1-0.2-2.1,0.1-2.8,0.8c-0.5,0.4-0.8,1-1,1.6c-0.1,0.6-0.1,1.3,0.1,1.9
	c0.2,0.9,0.5,1.7,1,2.5c1,1.4,3.4,1.9,4.1,0c0.1-0.6,0.1-1.2,0.1-1.9C151,129.1,151.6,128.2,151.5,127.2z"/>
<path class="st1" d="M117.3,43.7l27.4,140.4c1.3,6.8-3.1,13.3-9.9,14.7L74,210.6c-6.8,1.3-13.3-3.1-14.7-9.8l0,0L32,60.4
	c-1.3-6.8,3.1-13.3,9.9-14.7l0,0l60.8-11.9C109.4,32.5,115.9,36.9,117.3,43.7C117.3,43.6,117.3,43.6,117.3,43.7L117.3,43.7
	L117.3,43.7z"/>
<path class="st2" d="M43.5,47.5l58.2-11.4c6.5-1.3,12.9,3,14.2,9.5l26.7,136.8c1.3,6.5-3,12.9-9.5,14.2L74.9,208
	c-6.5,1.3-12.9-3-14.2-9.5L34,61.7C32.7,55.1,37,48.8,43.5,47.5z"/>
<path class="st3" d="M113.9,47.6l25.8,132.4c1.2,6.3-3,12.3-9.3,13.4l-54.5,10.6c-2,0.4-4.1,0.3-6-0.4c-3.9-1.3-6.8-4.6-7.7-8.6
	L36.5,62.7c-1.1-6.3,3-12.3,9.3-13.4l9.2-1.8l0.3,1.7c0.5,2.2,2.2,3.9,4.4,4.3c0.7,0.1,1.5,0.1,2.2,0l25.3-4.9c3-0.6,5-3.5,4.4-6.5
	l-0.3-1.6l9-1.7c2.9-0.6,6,0,8.5,1.6C111.4,41.9,113.3,44.6,113.9,47.6z"/>
<circle class="st4" cx="88.3" cy="116.2" r="18.8"/>
<path class="st1" d="M89.9,130l-0.7-3.4c-1.8,0.4-3.7,0.2-5.4-0.4l0.3-2.4c1.6,0.6,3.3,0.8,5,0.4c2.4-0.5,3.7-2.1,3.3-4
	s-1.9-2.7-4.5-3.2c-3.7-0.6-6.1-1.8-6.6-4.6s1-5.2,3.9-6.4l-0.7-3.4l2.1-0.4l0.6,3.2c1.5-0.3,3.1-0.2,4.6,0.3l-0.4,2.4
	c-1.4-0.5-2.9-0.6-4.4-0.3c-2.6,0.5-3.2,2.2-2.9,3.6c0.3,1.7,1.8,2.4,4.9,3c3.7,0.7,5.8,2.1,6.4,5c0.5,2.6-0.8,5.4-4.1,6.7l0.7,3.4
	L89.9,130z"/>
<path class="st1" d="M333.5,60.5l-22.7,144.5c-1.1,7-7.6,11.7-14.6,10.6l-62.6-9.9c-7-1.1-11.8-7.6-10.7-14.6c0,0,0,0,0,0l0,0
	l22.8-144.6c1.1-7,7.6-11.7,14.6-10.7l0,0l62.6,9.8C329.8,47,334.6,53.5,333.5,60.5L333.5,60.5z"/>
<path class="st2" d="M225,189.6l22.2-140.8c1.1-6.7,7.4-11.3,14.1-10.3l59.9,9.4c6.7,1.1,11.3,7.4,10.3,14.1l-22.2,140.8
	c-1.1,6.7-7.4,11.3-14.1,10.3l-59.9-9.4C228.6,202.6,223.9,196.3,225,189.6z"/>
<path class="st3" d="M328.9,63.1l-21.5,136.3c-1.1,6.4-7.2,10.8-13.6,9.7l-56.1-8.8c-2.1-0.3-4-1.2-5.6-2.4c-3.3-2.6-5-6.8-4.4-10.9
	l21.5-136.3c1.1-6.4,7.2-10.8,13.6-9.7l9.5,1.5l-0.3,1.7c-0.3,2.3,0.8,4.5,2.8,5.6c0.6,0.4,1.4,0.6,2.1,0.8l26.1,4.1
	c3.1,0.5,6-1.6,6.5-4.7l0.3-1.6l9.2,1.4c3,0.5,5.8,2.1,7.6,4.5C328.6,56.8,329.4,60,328.9,63.1z"/>
<path class="st1" d="M211.3,111.8h-5c-0.8,0-1.5-0.7-1.5-1.5s0.7-1.5,1.5-1.5h5c0.8,0,1.5,0.7,1.5,1.5S212.1,111.8,211.3,111.8
	L211.3,111.8z M201.3,111.8h-5c-0.8,0-1.5-0.7-1.5-1.5s0.7-1.5,1.5-1.5l0,0h5c0.8,0,1.5,0.7,1.5,1.5S202.1,111.8,201.3,111.8z
	 M191.3,111.8h-5c-0.8,0-1.5-0.7-1.5-1.5s0.7-1.5,1.5-1.5h5c0.8,0,1.5,0.7,1.5,1.5S192.1,111.8,191.3,111.8z M181.3,111.8h-5
	c-0.8,0-1.5-0.7-1.5-1.5s0.7-1.5,1.5-1.5h5c0.8,0,1.5,0.7,1.5,1.5S182.1,111.8,181.3,111.8z M171.3,111.8h-5c-0.8,0-1.5-0.7-1.5-1.5
	s0.7-1.5,1.5-1.5h5c0.8,0,1.5,0.7,1.5,1.5S172.1,111.8,171.3,111.8z M161.3,111.8h-5c-0.8,0-1.5-0.7-1.5-1.5s0.7-1.5,1.5-1.5h5
	c0.8,0,1.5,0.7,1.5,1.5S162.1,111.8,161.3,111.8z"/>
<path class="st1" d="M151.9,117.7c-0.4,0-0.7-0.1-1-0.4l-6.8-5.9c-0.6-0.6-0.7-1.5-0.1-2.1c0,0,0,0,0,0c0,0,0.1-0.1,0.1-0.1l6.8-6.2
	c0.7-0.5,1.6-0.3,2.1,0.3c0.4,0.6,0.4,1.3-0.1,1.9l-5.5,5.1l5.5,4.8c0.6,0.5,0.7,1.5,0.2,2.1l0,0
	C152.8,117.5,152.3,117.7,151.9,117.7z"/>
<path class="st1" d="M216,117.7c-0.4,0-0.8-0.2-1.1-0.5c-0.5-0.6-0.5-1.6,0.1-2.1l5.5-4.8l-5.5-5.1c-0.5-0.6-0.5-1.6,0.1-2.1
	c0.5-0.5,1.3-0.5,1.9-0.1l6.8,6.2c0.3,0.3,0.5,0.7,0.5,1.1c0,0.4-0.2,0.8-0.5,1.1l-6.8,5.9C216.7,117.6,216.4,117.7,216,117.7z"/>
<path class="st1" d="M208.2,218.6c0,16.3-13.2,29.5-29.5,29.5c-16.3,0-29.5-13.2-29.5-29.5c0-0.8,0-1.5,0.1-2.3
	c1.3-16.2,15.5-28.4,31.7-27.1C196.3,190.5,208.2,203.3,208.2,218.6L208.2,218.6z"/>
<path class="st5" d="M166.3,232c-1,4.3,0.2,8.8-0.7,13c-6.8-3.4-12.1-9.2-14.7-16.4c-0.1-1.5-0.1-2.9,0.1-4.4c0.3-1.6,0.3-3.2,0-4.7
	c-0.4-1.2-1-2.3-1.8-3.2c0.7-8.7,5.2-16.7,12.3-21.8c0,0.2,0,0.4,0,0.6l-1.3,5.6c0.3,1.7,0.3,3.3,0,5c-0.3,1.7-1.3,3.1-2.7,4
	c-0.5,0.2-1.1,0.5-1.6,0.8c-0.5,0.4-0.9,0.9-1.2,1.4c-0.8,1.1-1.4,2.4-1.8,3.8c-0.4,1.4,0,2.8,0.9,3.9l8.2-1.6
	c0.8-0.3,1.8-0.2,2.5,0.4c0.7,0.8,0.3,2,0.4,3.1c0.2,1.3,1.4,2.3,1.9,3.5C168,227.2,166.9,229.7,166.3,232z"/>
<path class="st6" d="M155.4,203.5c0.4,0.8,1,1.5,1.8,2c3.5,2.6,7.6,4,11.9,4.2c-1.4,0.2-2.7,0.9-3.8,1.8c-1,1-1.2,3-0.1,3.8
	c0.4,0.3,0.9,0.4,1.4,0.5c2.2,0.4,4.5,0.2,6.6-0.5c1.2-0.6,2.5-1,3.9-1.2c1.1,0.1,2.1,0.4,3.1,0.9c1.4,0.7,3,1,4.5,0.8
	c1.5-0.3,2.9-1.8,2.6-3.3c-0.1-0.4-0.2-0.8-0.1-1.1c0.1-0.2,0.3-0.3,0.6-0.4l14-6.2c0.9-0.4,1.9-1,2-1.9s-0.9-1.8-1.8-2.3
	c-4.8-2.5-10.4-2.8-15.8-3.1l-9.6-0.5c-4.7-0.4-9.3-0.3-14,0.1c-1.6,0.2-4.5,0.2-5.7,1.4C155.6,200,155.1,201.7,155.4,203.5z"/>
<path class="st5" d="M208.2,218.6c0,9-4.1,17.6-11.2,23.2c-0.4-0.3-0.7-0.6-1-1c-0.9-1.4-0.6-3.2,0.8-4.2c0,0,0,0,0,0l0,0
	c-0.5,0.3-2.5-0.4-3-0.5l-3-0.5c-1.5-0.2-4-0.1-4.9-1.6c-0.1-0.2-0.2-0.4-0.3-0.6c-0.2-0.2-0.4-0.3-0.6-0.4c-0.9-0.4-2-1-2.2-1.9
	c-0.1-0.7,0.2-1.6-0.2-2.2c-0.1-0.2-0.3-0.4-0.4-0.6c-0.3-0.6-0.2-1.3,0.2-1.9c1.3-2.2,3.9-3.3,6.5-3.8s5.2-0.4,7.6-1.1
	c1.5-0.6,3.1-1.1,4.7-1.4c0.9-0.1,2-0.2,2.3-1c0.2-0.5,0-1,0.2-1.5c0.1-0.2,0.2-0.4,0.3-0.6c0.2-0.6-0.1-1.3-0.8-1.5c0,0,0,0,0,0
	l-0.2-0.1c0.2-0.6,0.4-1.3-0.1-1.6c-0.3-0.2-0.7-0.3-1.1-0.2c-1,0.4-1.9,1-2.7,1.8c-3,1.9-7,1.5-9.4-1.1c-0.4-0.3-0.7-0.8-0.8-1.3
	c-0.1-0.9,0.4-1.7,1.3-2.1c0.8-0.4,1.7-0.5,2.5-0.5c-0.3-2.1-0.7-4.3-1-6.4c-4.9,1.3-6.9-3.4-7.6-7.2s2.1-5.3,5.6-5.5
	C200.9,195.8,208.2,206.6,208.2,218.6z"/>
<path class="st1" d="M170,161h18.9c2.7,0,5,2.1,5,4.9c0,0,0,0,0,0v0.1c0,0-3.6,14.7-3.6,19.6c0,2.7,0.9,10.8,0.9,10.8h-23.4
	c0,0,1.1-8.4,1.1-11.3c0-4.8-3.9-19.2-3.9-19.2c0-2.7,2.1-5,4.9-5c0,0,0,0,0,0L170,161z"/>
<path class="st2" d="M169.1,191.8c0.9,0,1.9-0.2,2.8-0.2c1.2-0.1,2.4-0.1,3.6-0.1l19.3,0.2c0.7,0,1.5,0.1,2.1,0.3
	c0.7,0.2,1.2,0.8,1.3,1.6c0.1,0.9-0.7,1.7-1.4,2.3c-3.4,2.6-7.4,4.4-11.6,5.1c-6.5,1.1-13.2-0.3-19.6-2c-1-0.2-2-0.6-2.9-1.2
	c-0.8-0.8-1.5-1.6-2.1-2.5c-0.6-0.6-1.1-1.2-1.5-1.9C157.4,189.1,167.6,191.8,169.1,191.8z"/>
<path class="st0" d="M182.4,163.8c-0.1,1.2-1.2,2-2.4,1.9c-2.3-0.1-2.5-1.9-2.5-1.9v-9.2h4.8V163.8z"/>
<linearGradient id="SVGID_1_" gradientUnits="userSpaceOnUse" x1="206.7026" y1="86.8803" x2="203.9626" y2="110.0803" gradientTransform="matrix(1 0 0 1 -25.71 64.48)">
	<stop  offset="1.000000e-02" style="stop-color:#000000"/>
	<stop  offset="8.000000e-02" style="stop-color:#000000;stop-opacity:0.69"/>
	<stop  offset="0.21" style="stop-color:#000000;stop-opacity:0.32"/>
	<stop  offset="1" style="stop-color:#000000;stop-opacity:0"/>
</linearGradient>
<path class="st7" d="M177.5,159.1c0,0,3,4.7,4.8,2.4v-3.7L177.5,159.1z"/>
<path class="st0" d="M175.5,156.8c1.2,3.8,7.2,3.9,9.3,0.9c1.1-1.8,1.4-4,0.9-6c-0.3-2-0.9-4-1.8-5.9c-0.6-1.2-1.3-2.2-2.6-2.4
	c-1.6-0.1-3.2,0.2-4.6,1c-1.3,0.7-2.4,1.9-3,3.3c-0.6,1.4-0.6,3-0.2,4.4c0.2,0.7,0.5,1.4,0.9,2.1C174.7,155,175.1,155.9,175.5,156.8
	z"/>
<path class="st2" d="M177.3,208.5c-0.7,0.5-1.4,0.9-2.2,1.2c-1.7,0.7-5,2-4.5,3.5c0.7,2,3,1.8,4.6,1.4c2.4-0.8,4.8-2,6.9-3.4
	L177.3,208.5z"/>
<path class="st2" d="M181.4,203.4c5.8-4.2,8.8-7.3,15.2-11.2c1.5-0.9,2.6-1.2,5.3-0.2c2.3,0.9,2,4.8,0.8,6.4
	c-3.7,4.9-18,11.6-20.9,12.6c-1.3,0.4-5.7-3.3-3.9-5.1C179,205.1,180.1,204.2,181.4,203.4z"/>
<path class="st2" d="M178.7,211.5c0.9,1.1,1.9,2.2,3,3.1c2,1.5,3.3,2,4.9,1.3c2.3-1.1,0.2-3.3-1.6-5.1c-1.4-1.4-2.9-2.7-4.5-3.7
	L178.7,211.5z"/>
<path class="st0" d="M179,206l2.5,2c0.5,0.4,0.9,0.9,1.3,1.5c0.8,1.5-2,4.5-3.8,2.7s-3.4-3.7-3.4-3.7L179,206z"/>
<path class="st2" d="M171.7,209.2c-6.7-3.4-10.8-4.6-15.1-10.6c-1.1-1.6-1.5-3.5-1.1-5.4c0.5-1.6,2.8-2.5,5.5-1.8
	c2.2,0.5,17.3,12.3,19.6,14.5c1,1-2.1,5.7-4.6,4.9C174.5,210.4,173.1,209.8,171.7,209.2z"/>
<path class="st2" d="M185.5,145.4c-0.3,0.6-0.6,1.2-1.1,1.7c-1,0.9-2.2,1.6-3.6,1.8c-2,0.2-4,0.1-6-0.2c-0.1,0.7-0.5,1.2-1.2,1.4
	c0.3,1.4,0.7,2.7,1.2,4.1c0.5,1.3,1.2,2.5,1.7,3.8c-1.6-1.1-2.9-3.1-4.1-4.6c-0.6-0.7-1.2-1.6-1.5-2.5c-0.4-0.9-0.3-2,0.3-2.8
	c0.3-0.3,0.5-0.6,0.6-0.9c0.1-0.3,0.1-0.6,0-0.9c0-1.5,0.6-2.9,1.7-3.9c1.1-0.9,2.4-1.6,3.8-2c1.2-0.4,2.5-0.6,3.8-0.4
	c2.1,0.5,3.8,2.1,4.4,4.2C185.7,144.5,185.6,144.9,185.5,145.4z"/>
<path class="st0" d="M174.2,154.3c-0.4,0.1-0.8,0.3-1.1,0.7c-0.1,0.3-0.2,0.6,0,0.9c0.1,0.3,0.3,0.6,0.5,0.8
	c0.1,0.1,0.2,0.3,0.4,0.4c0.2,0.1,0.5,0.2,0.8,0.2h0.6c0.1,0,0.2,0,0.3-0.1c0.1-0.1,0.2-0.2,0.2-0.3c0.1-0.5,0.1-1,0-1.4
	c-0.1-0.4-0.3-0.8-0.6-1.1C175,154,174.5,154.2,174.2,154.3z"/>
<path class="st2" d="M198.5,149.5h4.1c0.7,0,1.2,0.6,1.2,1.2v10.1c0,0.7-0.6,1.2-1.2,1.2h-4.1c-0.7,0-1.2-0.6-1.2-1.2v-10.1
	C197.3,150.1,197.8,149.5,198.5,149.5z"/>
<polygon class="st1" points="172.1,161.8 157.4,147.7 151.3,131.8 146.4,132.7 152.2,151.3 168.6,173.7 "/>
<circle class="st4" cx="279.7" cy="117.7" r="18.8"/>
<path class="st1" d="M276.5,131.3l0.5-3.4c-1.8-0.3-3.5-1-4.9-2.2l1.1-2.1c1.3,1.1,2.9,1.9,4.6,2.1c2.4,0.4,4.2-0.8,4.5-2.7
	s-0.9-3.2-3.2-4.5c-3.2-1.8-5.1-3.7-4.7-6.6s2.7-4.6,5.8-4.7l0.5-3.4l2.1,0.3l-0.5,3.2c1.5,0.2,3,0.9,4.2,1.8l-1.1,2.1
	c-1.2-0.9-2.6-1.5-4-1.8c-2.6-0.4-3.8,1-4,2.4c-0.3,1.7,0.9,2.8,3.6,4.4c3.3,1.9,4.7,3.9,4.3,6.9c-0.4,2.6-2.6,4.9-6.1,4.9l-0.5,3.5
	L276.5,131.3z"/>
<rect x="67.8" y="156.8" transform="matrix(0.9804 -0.1968 0.1968 0.9804 -30.6666 22.6393)" class="st1" width="61.5" height="17.6"/>
<rect x="258.4" y="138" transform="matrix(0.144 -0.9896 0.9896 0.144 72.9231 387.1457)" class="st1" width="3.6" height="26.8"/>
<rect x="285.9" y="144.1" transform="matrix(0.144 -0.9896 0.9896 0.144 92.4845 417.7866)" class="st1" width="3.6" height="22.7"/>
<rect x="254.1" y="148.2" transform="matrix(0.144 -0.9896 0.9896 0.144 62.3285 388.8367)" class="st1" width="3.6" height="20.3"/>
<rect x="273.5" y="154.1" transform="matrix(0.144 -0.9896 0.9896 0.144 76.1683 410.4967)" class="st1" width="3.6" height="14.2"/>
<rect x="290.2" y="157.8" transform="matrix(0.144 -0.9896 0.9896 0.144 88.0436 429.0929)" class="st1" width="3.6" height="11.8"/>
<rect x="257.1" y="152.2" transform="matrix(0.144 -0.9896 0.9896 0.144 56.9412 398.7317)" class="st1" width="3.6" height="28.6"/>
<rect x="285.5" y="158.8" transform="matrix(0.14 -0.9901 0.9901 0.14 79.5049 430.0775)" class="st1" width="3.6" height="21"/>
<rect x="267.9" y="149.3" transform="matrix(0.144 -0.9896 0.9896 0.144 57.0905 417.227)" class="st1" width="3.6" height="52.5"/>
<path class="st0" d="M201.8,155.3c0.2-1,1-1.9,2-2.1c1-0.2,2.1,0.1,2.8,0.8c0.5,0.4,0.8,1,1,1.6c0.1,0.6,0.1,1.3-0.1,1.9
	c-0.2,0.9-0.5,1.7-1,2.5c-1,1.4-3.4,1.9-4.1,0c-0.1-0.6-0.1-1.2-0.1-1.9C202.3,157.2,201.7,156.3,201.8,155.3z"/>
<path class="st1" d="M189.2,161.1c0.1-0.8,0.9-0.6,2.4,0.1c3.7,2,7.1,4.5,10.1,7.4c0.2-3.3,0.3-6.7,0.2-10c2.3-0.1,3.6,0.4,5.8,1.2
	c0.2,4.8-0.3,9.6-1.4,14.3c-0.4,1.6-1,3.5-2.6,4c-2,0.7-3.8-1.1-5.5-2.2c-1.6-1-4.2-1.1-5.5-2.4c-1-1-1.1-3-1.5-4.3
	c-0.6-2.2-1.4-4.4-1.9-6.6C189.2,162.1,189.2,161.6,189.2,161.1z"/>
</svg>
