<?xml version="1.0" encoding="UTF-8" standalone="no"?><!-- Generator: Gravit.io --><svg xmlns="http://www.w3.org/2000/svg" xmlns:xlink="http://www.w3.org/1999/xlink" style="isolation:isolate" viewBox="417 340 26 18" width="26pt" height="18pt"><defs><clipPath id="_clipPath_bZqeYjvXx4M9RoZi0eNOwcEQMeGhj1Nw"><rect x="417" y="340" width="26" height="18"/></clipPath></defs><g clip-path="url(#_clipPath_bZqeYjvXx4M9RoZi0eNOwcEQMeGhj1Nw)"><g><path d=" M 442 346 C 441.448 346 441 346.448 441 347 L 441 355 C 441 355.552 440.552 356 440 356 L 420 356 C 419.448 356 419 355.552 419 355 L 419 347 C 419 346.448 418.552 346 418 346 C 417.448 346 417 346.448 417 347 L 417 355 C 417.001 355.795 417.317 356.558 417.88 357.12 C 418.442 357.683 419.205 357.999 420 358 L 440 358 C 440.795 357.999 441.558 357.683 442.12 357.12 C 442.683 356.558 442.999 355.795 443 355 L 443 347 C 443 346.448 442.552 346 442 346 Z " fill="rgb(255,255,255)"/><path d=" M 429.4 351.8 C 429.756 352.067 430.244 352.067 430.6 351.8 L 442.41 342.94 C 442.79 342.654 442.915 342.139 442.71 341.71 C 442.561 341.402 442.362 341.122 442.12 340.88 C 441.558 340.317 440.795 340.001 440 340 L 420 340 C 419.205 340.001 418.442 340.317 417.88 340.88 C 417.638 341.122 417.439 341.402 417.29 341.71 C 417.085 342.139 417.21 342.654 417.59 342.94 L 429.4 351.8 Z  M 420 342 L 440 342 C 440.093 341.985 440.187 341.985 440.28 342 L 430 349.75 L 419.72 342 C 419.813 341.985 419.907 341.985 420 342 Z " fill="rgb(255,255,255)"/></g></g></svg>