<svg xmlns="http://www.w3.org/2000/svg" width="588.528" height="571.777" viewBox="0 0 588.528 571.777"><g transform="translate(-16.53 -26.77)"><g transform="translate(16.53 258.77)"><ellipse cx="294.264" cy="169.888" rx="294.264" ry="169.888" fill="#f5f5f5"/></g><g transform="translate(57.329 349.418)"><path d="M248.484,502.333l-143.924-83.1L341.7,282.76l143.937,83.1Z" transform="translate(-34.407 -282.76)" fill="#e0e0e0"/><path d="M407.975,327.507c-15.389,8.886-15.389,23.292,0,32.178s40.333,8.823,55.722,0,15.389-23.292,0-32.178S423.364,318.621,407.975,327.507Z" transform="translate(41.595 -272.844)" fill="#e0e0e0"/><path d="M63.079,390.372c-18.906,10.474-18.906,27.451,0,37.925s49.571,10.474,68.49,0,18.906-27.451,0-37.925S81.985,379.911,63.079,390.372Z" transform="translate(-48.9 -256.783)" fill="#e0e0e0"/><path d="M192.95,419.373l-95.664-55.23c-4.752-2.748-4.752-7.184,0-9.919L160.709,317.6a20.6,20.6,0,0,1,17.456-.517l103.163,51.676c4.9,2.445,5.042,6.655.29,9.39l-71.489,41.278a19.006,19.006,0,0,1-17.179-.05Z" transform="translate(-37.229 -274.264)" fill="#e0e0e0"/></g><g transform="translate(57.594 42.235)"><path d="M52.58,111.627,54.887,113,102.05,85.764,99.744,84.39Z" transform="translate(-48.206 -27.231)" fill="#fafafa"/><path d="M99.267,94.092l-44.857,25.9V73.006L99.28,47.13Z" transform="translate(-47.73 -36.933)" fill="#fff"/><path d="M106.8,40.1,51,72.341v59.7L106.835,99.8Zm-4.336,57.2L55.3,124.534v-49.7l47.164-27.224Z" transform="translate(-48.618 -38.764)" fill="#f0f0f0"/><path d="M92.307,95.745,90,94.371l.013-46.962,2.294-1.349Z" transform="translate(-38.463 -37.212)" fill="#e0e0e0"/><path d="M107.29,40.376l-2.332-1.336L49.11,71.281l2.344,1.336Z" transform="translate(-49.11 -39.04)" fill="#fafafa"/><path d="M49.11,64.62l2.344,1.336v59.7l-2.344-1.336Z" transform="translate(-49.11 -32.379)" fill="#e0e0e0"/><g transform="translate(8.432 29.254)"><path d="M97.153,88.756,55.8,112.641V100.692L66.135,76.82l6.441,5.962L70.269,92.789,84.55,62.25l12.6,14.57Z" transform="translate(-55.8 -62.25)" fill="#f0f0f0"/><path d="M69.43,64.747a6.731,6.731,0,0,0-3.05,5.294c0,1.954,1.361,2.748,3.05,1.765a6.718,6.718,0,0,0,3.063-5.294C72.493,64.558,71.132,63.764,69.43,64.747Z" transform="translate(-53.045 -61.71)" fill="#f0f0f0"/></g><g transform="translate(0 82.581)"><path d="M52.58,177.157l2.307,1.361,47.164-27.225-2.307-1.374Z" transform="translate(-48.206 -92.749)" fill="#fafafa"/><path d="M99.267,159.622l-44.857,25.9V138.536L99.267,112.66Z" transform="translate(-47.73 -102.451)" fill="#fff"/><path d="M106.8,105.63,51,137.858v59.7l55.8-32.228Zm-4.336,57.184L55.3,190.039V140.366l47.164-27.224Z" transform="translate(-48.618 -104.281)" fill="#f0f0f0"/><path d="M92.307,161.275,90,159.9V112.939l2.307-1.349Z" transform="translate(-38.463 -102.729)" fill="#e0e0e0"/><path d="M107.29,105.909l-2.332-1.349L49.11,136.8l2.344,1.336Z" transform="translate(-49.11 -104.56)" fill="#fafafa"/><path d="M49.11,130.14l2.344,1.336v59.7l-2.344-1.336Z" transform="translate(-49.11 -97.899)" fill="#e0e0e0"/><g transform="translate(8.432 29.266)"><path d="M97.153,154.286,55.8,178.158V166.222l10.335-23.884,6.441,5.974-2.307,10.008L84.55,127.78l12.6,14.558Z" transform="translate(-55.8 -127.78)" fill="#f0f0f0"/><path d="M69.43,130.267a6.781,6.781,0,0,0-3.05,5.306c0,1.954,1.361,2.735,3.05,1.765a6.731,6.731,0,0,0,3.063-5.306C72.493,130.041,71.132,129.3,69.43,130.267Z" transform="translate(-53.045 -127.243)" fill="#f0f0f0"/></g></g></g><g transform="translate(494.155 273.857)"><g transform="translate(3.794 64.609)"><path d="M412.216,356.866c-12.352-12.743-19.6-64.608-7.562-74.716h61.28c12.037,10.083,4.789,61.948-7.562,74.7l-.34.34-.429.429c-.34.34-.718.668-1.109,1l-.3.239c-.3.239-.592.479-.933.706a17.042,17.042,0,0,1-1.588,1.034c-10.159,5.936-26.632,5.936-36.791,0h0a17.215,17.215,0,0,1-1.6-1.034c-.315-.214-.592-.441-.87-.668l-.365-.29A13.48,13.48,0,0,1,413,357.585l-.492-.479Z" transform="translate(-398.49 -271.968)" fill="#407bff"/><g transform="translate(0 10.182)" opacity="0.7"><path d="M412.216,356.866c-12.352-12.743-19.6-64.608-7.562-74.716h61.28c12.037,10.083,4.789,61.948-7.562,74.7l-.34.34-.429.429c-.34.34-.718.668-1.109,1l-.3.239c-.3.239-.592.479-.933.706a17.042,17.042,0,0,1-1.588,1.034c-10.159,5.936-26.632,5.936-36.791,0h0a17.215,17.215,0,0,1-1.6-1.034c-.315-.214-.592-.441-.87-.668l-.365-.29A13.48,13.48,0,0,1,413,357.585l-.492-.479Z" transform="translate(-398.49 -282.15)" fill="#fff"/></g><path d="M460.407,280.183c13.99,8.167,13.99,21.427,0,29.569s-36.652,8.167-50.63,0-13.99-21.427,0-29.569S446.429,272.028,460.407,280.183Z" transform="translate(-398.282 -274.071)" fill="#407bff"/><g transform="translate(1.007)" opacity="0.85"><path d="M460.407,280.183c13.99,8.167,13.99,21.427,0,29.569s-36.652,8.167-50.63,0-13.99-21.427,0-29.569S446.429,272.028,460.407,280.183Z" transform="translate(-399.289 -274.071)" fill="#fff"/></g><path d="M451.726,282.926c10.26,6,10.26,15.717,0,21.717s-26.922,5.987-37.194,0-10.272-15.717,0-21.717S441.454,276.977,451.726,282.926Z" transform="translate(-396.319 -272.932)" fill="#407bff"/><g transform="translate(10.509 5.513)" opacity="0.75"><path d="M451.726,282.926c10.26,6,10.26,15.717,0,21.717s-26.922,5.987-37.194,0-10.272-15.717,0-21.717S441.454,276.977,451.726,282.926Z" transform="translate(-406.828 -278.445)" fill="#fff"/></g><path d="M414.211,291.138c10.272-5.987,26.922-5.987,37.194,0a17.318,17.318,0,0,1,6.151,5.71,17.317,17.317,0,0,1-6.151,5.71c-10.272,5.987-26.922,5.987-37.194,0a17.318,17.318,0,0,1-6.151-5.71,17.317,17.317,0,0,1,6.151-5.71Z" transform="translate(-395.998 -270.796)" fill="#fafafa"/></g><g transform="translate(23.784)"><path d="M432.575,305.9a40.9,40.9,0,0,0,4.121.517c5.142.227,11.457-2.332,17.116-4.84,3.781-1.651,8.823-3.895,11.18-7.764,1.185-1.9,1.638-4.537.529-6.3s-3.882-2.407-4.411-4.676c3.958-2.634,9.037-2.773,12.415-6.3a19.787,19.787,0,0,0,4.626-9.781c.466-2.155.466-5.1-.668-6.781-1.349-1.979-4.084-1.815-6.428-1.563a3.983,3.983,0,0,1-1.815-.1,1.525,1.525,0,0,1-1.008-1.462,2.66,2.66,0,0,1,1.462-1.9c1.449-.945,3-1.689,4.4-2.722a8.823,8.823,0,0,0,3.315-4.121,11.344,11.344,0,0,0-.164-6.3,87.446,87.446,0,0,0-2.836-10.083c-.277-.794-2.332-8.823-2.042-8.9-8.205.227-16.637,3.239-24.262,7.146-4.26,2.18-10.323,6.125-11.558,11.646a10.576,10.576,0,0,0,.139,4.626,17.073,17.073,0,0,0,.731,1.941c.151.4.769,1.954-.277,1.437a1.5,1.5,0,0,1-.555-.567l-4.046-5.823a3.466,3.466,0,0,0-1.487-1.437c-1.361-.5-4.588,1.046-7.676,5.042a17.255,17.255,0,0,0-3.151,9.478c-.328,5.331,1.26,10.36,2.71,15.251l-3.655-3.781c-4.273-4.374-5.042,5.936-4.916,8.079.4,5.634,2.659,13.953,5.5,18.427C423.16,299.467,427.055,303.815,432.575,305.9Z" transform="translate(-414.35 -222.81)" fill="#407bff"/><path d="M432.575,305.9a40.9,40.9,0,0,0,4.121.517c5.142.227,11.457-2.332,17.116-4.84,3.781-1.651,8.823-3.895,11.18-7.764,1.185-1.9,1.638-4.537.529-6.3s-3.882-2.407-4.411-4.676c3.958-2.634,9.037-2.773,12.415-6.3a19.787,19.787,0,0,0,4.626-9.781c.466-2.155.466-5.1-.668-6.781-1.349-1.979-4.084-1.815-6.428-1.563a3.983,3.983,0,0,1-1.815-.1,1.525,1.525,0,0,1-1.008-1.462,2.66,2.66,0,0,1,1.462-1.9c1.449-.945,3-1.689,4.4-2.722a8.823,8.823,0,0,0,3.315-4.121,11.344,11.344,0,0,0-.164-6.3,87.446,87.446,0,0,0-2.836-10.083c-.277-.794-2.332-8.823-2.042-8.9-8.205.227-16.637,3.239-24.262,7.146-4.26,2.18-10.323,6.125-11.558,11.646a10.576,10.576,0,0,0,.139,4.626,17.073,17.073,0,0,0,.731,1.941c.151.4.769,1.954-.277,1.437a1.5,1.5,0,0,1-.555-.567l-4.046-5.823a3.466,3.466,0,0,0-1.487-1.437c-1.361-.5-4.588,1.046-7.676,5.042a17.255,17.255,0,0,0-3.151,9.478c-.328,5.331,1.26,10.36,2.71,15.251l-3.655-3.781c-4.273-4.374-5.042,5.936-4.916,8.079.4,5.634,2.659,13.953,5.5,18.427C423.16,299.467,427.055,303.815,432.575,305.9Z" transform="translate(-414.35 -222.81)" fill="#fff" opacity="0.3"/><path d="M435.425,277.027A56.818,56.818,0,0,0,425.972,254l-.1-.164a.731.731,0,0,1,.176-.945.555.555,0,0,1,.844.1l.1.151a59.062,59.062,0,0,1,9.251,21.528c7.109-20.166,18.792-40.623,25.573-46.988a.618.618,0,0,1,.92,0,.807.807,0,0,1-.126,1.021c-6.693,6.3-18.225,26.468-25.208,46.37,11.822-9.213,23.683-8.23,23.809-8.218a.605.605,0,0,1,.5.731.819.819,0,0,1-.416.567.592.592,0,0,1-.3,0c-.113,0-12.491-1.046-24.363,9.087-3.151,9.415-5.205,18.641-5.142,26.115a.832.832,0,0,1-.366.693.731.731,0,0,1-.277.1.6.6,0,0,1-.655-.655C430.119,296,432.211,286.618,435.425,277.027Z" transform="translate(-411.377 -221.595)" fill="#fff"/></g><g transform="translate(0 30.187)"><path d="M437.88,309.729c-.366.176-3.252.832-3.655.908-4.588.781-10.3-.542-15.44-1.916-3.39-.895-7.953-2.13-10.222-5.042a4.563,4.563,0,0,1-.693-5.042c1-1.664,3.378-2.407,3.781-4.323-3.617-1.664-8.167-1.172-11.344-3.655a13.864,13.864,0,0,1-4.462-7.386,7.562,7.562,0,0,1,.378-5.6c1.122-1.765,3.579-1.941,5.672-2.017a4.183,4.183,0,0,0,1.626-.3,1.386,1.386,0,0,0,.844-1.26c-.063-.668-.744-1.1-1.361-1.374-1.336-.592-2.735-1.008-4.033-1.676a6.58,6.58,0,0,1-3.088-2.962,8.495,8.495,0,0,1,0-5.1,70.721,70.721,0,0,1,2.18-8.546c.227-.668,1.79-7.487,1.525-7.462,7.323-.781,14.948.668,21.893,2.937,3.869,1.26,9.415,3.781,10.7,8.1a7.625,7.625,0,0,1,0,3.781,12.988,12.988,0,0,1-.58,1.664c-.113.34-.618,1.676.3,1.134a1.462,1.462,0,0,0,.466-.529l3.416-5.256a3.416,3.416,0,0,1,1.26-1.336c1.2-.58,4.134.3,7.02,3.176a12.15,12.15,0,0,1,3.138,7.323c.466,4.273-.731,8.545-1.916,12.692l3.138-3.479c3.668-4.058,4.727,4.222,4.664,5.987a38.367,38.367,0,0,1-4.285,15.6C446.06,303.4,442.77,307.4,437.88,309.729Z" transform="translate(-395.48 -246.761)" fill="#407bff"/><path d="M437.88,309.729c-.366.176-3.252.832-3.655.908-4.588.781-10.3-.542-15.44-1.916-3.39-.895-7.953-2.13-10.222-5.042a4.563,4.563,0,0,1-.693-5.042c1-1.664,3.378-2.407,3.781-4.323-3.617-1.664-8.167-1.172-11.344-3.655a13.864,13.864,0,0,1-4.462-7.386,7.562,7.562,0,0,1,.378-5.6c1.122-1.765,3.579-1.941,5.672-2.017a4.183,4.183,0,0,0,1.626-.3,1.386,1.386,0,0,0,.844-1.26c-.063-.668-.744-1.1-1.361-1.374-1.336-.592-2.735-1.008-4.033-1.676a6.58,6.58,0,0,1-3.088-2.962,8.495,8.495,0,0,1,0-5.1,70.721,70.721,0,0,1,2.18-8.546c.227-.668,1.79-7.487,1.525-7.462,7.323-.781,14.948.668,21.893,2.937,3.869,1.26,9.415,3.781,10.7,8.1a7.625,7.625,0,0,1,0,3.781,12.988,12.988,0,0,1-.58,1.664c-.113.34-.618,1.676.3,1.134a1.462,1.462,0,0,0,.466-.529l3.416-5.256a3.416,3.416,0,0,1,1.26-1.336c1.2-.58,4.134.3,7.02,3.176a12.15,12.15,0,0,1,3.138,7.323c.466,4.273-.731,8.545-1.916,12.692l3.138-3.479c3.668-4.058,4.727,4.222,4.664,5.987a38.367,38.367,0,0,1-4.285,15.6C446.06,303.4,442.77,307.4,437.88,309.729Z" transform="translate(-395.48 -246.761)" fill="#fff" opacity="0.5"/><path d="M429.681,287.117a48.777,48.777,0,0,1,7.651-19.813l.088-.139a.555.555,0,0,0-.189-.756.542.542,0,0,0-.744.189l-.088.139a50.768,50.768,0,0,0-7.562,18.553c-7.033-15.515-18.15-30.766-24.4-35.127a.592.592,0,1,0-.681.958c6.176,4.311,17.154,19.372,24.061,34.686a33.614,33.614,0,0,0-21.528-3.869.542.542,0,0,0,0,1.059.617.617,0,0,0,.265,0,32.317,32.317,0,0,1,22.044,4.5c3.138,7.285,5.281,14.532,5.47,20.607a.605.605,0,0,0,.353.517.567.567,0,0,0,.252,0,.58.58,0,0,0,.567-.605C435.05,301.889,432.87,294.528,429.681,287.117Z" transform="translate(-393.406 -245.916)" fill="#fff"/></g></g><g transform="translate(121.948 113.699)"><g transform="translate(0 81.777)"><path d="M245.941,385.39,233.715,283.374l-9.995-.5L240.9,385.378h0a1.374,1.374,0,0,0,.668.895,3.958,3.958,0,0,0,3.567.176,1.26,1.26,0,0,0,.781-1.059Z" transform="translate(-67.997 -128.79)" fill="#263238"/><path d="M233.715,283.374l-9.995-.5,2.937,19.347a39.2,39.2,0,0,0,5.924-2.722,6.137,6.137,0,0,0,2.634-2.256Z" transform="translate(-67.997 -128.79)" fill="#263238"/><path d="M131.405,271.4H121.4L106.84,367.732h0a1.26,1.26,0,0,0,.731,1.1,3.958,3.958,0,0,0,3.567,0,1.323,1.323,0,0,0,.706-.857h0Z" transform="translate(-98.432 -131.777)" fill="#37474f"/><path d="M119.228,271.4l-4.058,26.884a39.74,39.74,0,0,0,7.676,4.7l6.39-31.585Z" transform="translate(-96.263 -131.777)" fill="#263238"/><path d="M192.325,412.885l-9.4-103.781-9.982-.5L187.3,412.822h0a1.374,1.374,0,0,0,.668.895,3.932,3.932,0,0,0,3.554.176,1.26,1.26,0,0,0,.781-1.059Z" transform="translate(-81.22 -122.09)" fill="#37474f"/><path d="M184.163,324.08l-1.26-14.936-9.982-.5,2.029,16.108C177.193,325.479,181.251,325.013,184.163,324.08Z" transform="translate(-81.225 -122.08)" fill="#263238"/><path d="M174.712,246.22H164.7L150.16,342.552h0a1.26,1.26,0,0,0,.718,1.1,3.958,3.958,0,0,0,3.567,0,1.361,1.361,0,0,0,.706-.857h0Z" transform="translate(-87.151 -138.333)" fill="#263238"/><path d="M104.342,186.864a56.629,56.629,0,0,0-4,17.557c-1.134,13.461,3.416,57.045,6.151,76.544h0c3.958,32.569,8.823,32.632,15.868,38.076,12.138,9.377,47.05,27.729,58.57,32.3,20.9,8.218,37.988-4.462,50.718-10.751A295.474,295.474,0,0,0,265.4,320.617c3.176-2.319,4.827-4.663,4.789-7.121v-6.012c0-3.151-2.773-6.516-8.621-10.31-10.789-7-49.8-29.745-64.91-38.127a.151.151,0,0,0-.126-.113c-11.633-7.058-18.629-55.054-26.683-80.59-.164-.542-.34-1.071-.517-1.588s-.29-.794-.416-1.185a40.778,40.778,0,0,0-1.588-3.781" transform="translate(-100.169 -157.714)" fill="#407bff"/><path d="M270.195,310.379c0-3.151-2.773-6.516-8.621-10.31-10.789-7-49.8-29.745-64.91-38.127a.151.151,0,0,0-.126-.113c-11.633-7.058-18.629-55.054-26.683-80.59a47.793,47.793,0,0,0-1.689-4.7c0-.113-.1-.227-.139-.34l-.466-1.034-.227-.517h0a24.552,24.552,0,0,0-5.369-7.764,12.035,12.035,0,0,0-2.634-1.853c-1.26-.744-4.058-2.269-4.752-2.672-7.89-4.726-18.263.945-31.169,8.016-8.029,4.411-14.885,9.642-19.057,19.4h0a56.63,56.63,0,0,0-4,17.557c-1.134,13.461,3.416,57.045,6.151,76.544h0c3.958,32.569,8.823,32.632,15.868,38.076,12.138,9.377,47.05,27.729,58.57,32.3,20.9,8.218,37.988-4.462,50.718-10.751a295.479,295.479,0,0,0,33.741-19.977c3.176-2.319,4.827-4.663,4.789-7.121C270.182,315.408,270.195,311.413,270.195,310.379Z" transform="translate(-100.166 -160.622)" fill="#407bff"/><path d="M270.195,310.379c0-3.151-2.773-6.516-8.621-10.31-10.789-7-49.8-29.745-64.91-38.127a.151.151,0,0,0-.126-.113c-11.633-7.058-18.629-55.054-26.683-80.59a47.793,47.793,0,0,0-1.689-4.7c0-.113-.1-.227-.139-.34l-.466-1.034-.227-.517h0a24.552,24.552,0,0,0-5.369-7.764,12.035,12.035,0,0,0-2.634-1.853c-1.26-.744-4.058-2.269-4.752-2.672-7.89-4.726-18.263.945-31.169,8.016-8.029,4.411-14.885,9.642-19.057,19.4h0a56.63,56.63,0,0,0-4,17.557c-1.134,13.461,3.416,57.045,6.151,76.544h0c3.958,32.569,8.823,32.632,15.868,38.076,12.138,9.377,47.05,27.729,58.57,32.3,20.9,8.218,37.988-4.462,50.718-10.751a295.479,295.479,0,0,0,33.741-19.977c3.176-2.319,4.827-4.663,4.789-7.121C270.182,315.408,270.195,311.413,270.195,310.379Z" transform="translate(-100.166 -160.622)" fill="#fff" opacity="0.25"/><path d="M228.142,317.455a297.083,297.083,0,0,0,33.741-19.99c7.235-5.256,6.567-10.638-3.781-17.381-14.419-9.352-73.216-42.715-73.216-42.715s-74.363,43.862-71.124,51.966,49.155,33.161,63.688,38.858C198.334,336.475,215.412,323.745,228.142,317.455Z" transform="translate(-96.656 -140.638)" fill="#407bff"/><path d="M228.142,317.455a297.083,297.083,0,0,0,33.741-19.99c7.235-5.256,6.567-10.638-3.781-17.381-14.419-9.352-73.216-42.715-73.216-42.715s-74.363,43.862-71.124,51.966,49.155,33.161,63.688,38.858C198.334,336.475,215.412,323.745,228.142,317.455Z" transform="translate(-96.656 -140.638)" fill="#fff" opacity="0.6"/><path d="M158.458,165.031c-7.827-4.109-18,1.475-30.577,8.369-8.054,4.411-14.923,9.642-19.082,19.435l-5.319-3.063c4.172-9.755,11.028-14.986,19.057-19.4,12.906-7.071,23.279-12.743,31.169-8.016C154.4,162.762,157.148,164.287,158.458,165.031Z" transform="translate(-99.306 -160.622)" fill="#407bff"/><path d="M158.458,165.031c-7.827-4.109-18,1.475-30.577,8.369-8.054,4.411-14.923,9.642-19.082,19.435l-5.319-3.063c4.172-9.755,11.028-14.986,19.057-19.4,12.906-7.071,23.279-12.743,31.169-8.016C154.4,162.762,157.148,164.287,158.458,165.031Z" transform="translate(-99.306 -160.622)" fill="#fff" opacity="0.5"/><path d="M168.776,180.646c-.164-.542-2.861-9.907-7.9-14.356a12.78,12.78,0,0,0-8.558-3.29c-6.831,0-15.036,4.525-24.653,9.781-.794.441-1.588.895-2.37,1.361-.3.164-.605.34-.895.529s-.718.441-1.071.668-.517.328-.769.5a45.892,45.892,0,0,0-4.853,3.68c-.239.214-.479.429-.718.668a32.772,32.772,0,0,0-2.748,2.849c-.164.176-.315.365-.466.542s-.378.454-.542.681l-.529.706c-.176.227-.34.454-.517.706a35.291,35.291,0,0,0-1.916,3.075c-.076.139-.164.277-.227.416s-.3.567-.454.87-.416.857-.618,1.26a55.13,55.13,0,0,0-4.361,18.4c-1.865,22.12,5.71,95.21,13.31,101.512,0,0-1.16-7.159,14.129-16.776,10.4-6.541,17.645-12.037,28.8-17.482,27.035-13.285,34.61-15.768,34.61-15.768C183.825,254.152,176.83,206.156,168.776,180.646Z" transform="translate(-99.087 -160.003)" fill="#407bff"/><path d="M168.776,180.646c-.164-.542-2.861-9.907-7.9-14.356a12.78,12.78,0,0,0-8.558-3.29c-6.831,0-15.036,4.525-24.653,9.781-.794.441-1.588.895-2.37,1.361-.3.164-.605.34-.895.529s-.718.441-1.071.668-.517.328-.769.5a45.892,45.892,0,0,0-4.853,3.68c-.239.214-.479.429-.718.668a32.772,32.772,0,0,0-2.748,2.849c-.164.176-.315.365-.466.542s-.378.454-.542.681l-.529.706c-.176.227-.34.454-.517.706a35.291,35.291,0,0,0-1.916,3.075c-.076.139-.164.277-.227.416s-.3.567-.454.87-.416.857-.618,1.26a55.13,55.13,0,0,0-4.361,18.4c-1.865,22.12,5.71,95.21,13.31,101.512,0,0-1.16-7.159,14.129-16.776,10.4-6.541,17.645-12.037,28.8-17.482,27.035-13.285,34.61-15.768,34.61-15.768C183.825,254.152,176.83,206.156,168.776,180.646Z" transform="translate(-99.087 -160.003)" fill="#fff" opacity="0.4"/></g><path d="M266.646,315.772c0,2.521-1.613,4.8-4.789,7.121a296.2,296.2,0,0,1-33.728,19.977c-6.63,3.277-14.432,8.268-23.33,11.142-21.326-12.491-58.18-34.358-67.229-41.593a31.3,31.3,0,0,1-10.323-16.385,74.073,74.073,0,0,1-1.739-22.964c-7.676-2.949-8.911-11.6-9.97-22.372-2.811-28.46-2.962-63.36,4.563-74.817.252-.176.5-.353.769-.517l1.071-.655c.29-.189.58-.366.882-.529q1.172-.706,2.382-1.361c9.617-5.294,17.847-9.818,24.653-9.818a12.919,12.919,0,0,1,8.028,2.8l.517.441a21.628,21.628,0,0,1,4.361,5.773c.176.315.34.643.5.958a1.121,1.121,0,0,1,.1.214c.151.277.277.555.416.832l.151.315.088.189.227.529c.277.63.529,1.26.744,1.777l.164.378c.164.454.315.857.441,1.26l.126.34.113.34a.322.322,0,0,0,.1.277l.088.277.1.328a.286.286,0,0,0,.063.227,3.164,3.164,0,0,1,.126.366c8.054,25.548,15.049,73.544,26.682,80.589a.164.164,0,0,1,.126.139c15.125,8.369,54.121,31.106,64.91,38.114,5.848,3.781,8.608,7.172,8.621,10.31C266.658,310.794,266.633,314.789,266.646,315.772Z" transform="translate(-96.63 -78.226)" opacity="0.1"/><g transform="translate(34.183 178.648)"><path d="M221.338,345.189l1.147,35.291s-3.491,7.487-11.7,8.1-9.516-7.625-9.516-7.625L193.71,342.87Z" transform="translate(-109.995 -210.037)" fill="#ffa8a7"/><path d="M198.551,385.22a6.554,6.554,0,0,0,.277,3.353c.63,1.525,4.9,4.336,7.1,5.457s3.882,2.836,5.8,6.189c2.622,4.6,6.579,9.554,11.6,11.936a36.261,36.261,0,0,0,21.427,2.521c9.012-1.487,9.818-6.781,9.818-6.781s.542-4.979-1.676-5.8S198.551,385.22,198.551,385.22Z" transform="translate(-108.761 -199.01)" fill="#263238"/><path d="M197.622,383.345a14.469,14.469,0,0,0,1.147,6.163c2.6,3.706,8.823,5.042,12.377,10.083s7.726,12.843,19.473,15.352,20.733-1.109,22.952-4.437.277-6.5-7.209-10.688c-7.953-4.437-17.305-16.108-17.305-16.12-3.075-4-4.386-9.264-6.075-13.94-.176-.466-.441-1-.92-1.008s-.857.693-1.16,1.185a3.781,3.781,0,0,1-2.269,1.4,29.247,29.247,0,0,1-3.113.882,28.907,28.907,0,0,1-6.415.693,2.647,2.647,0,0,0-2.017.529,2.306,2.306,0,0,0-.4,1.79,18.743,18.743,0,0,0,.3,2.37,2.407,2.407,0,0,1,0,1.16,1.424,1.424,0,0,1-1.349.882,3.139,3.139,0,0,1-1.613-.517,7.134,7.134,0,0,1-3.781-4.84s-.441-2.193-.441-2.294a2.609,2.609,0,0,0-1.26,1.689c-.227.908-.151,1.878-.3,2.8a48.565,48.565,0,0,0-.618,6.869Z" transform="translate(-108.978 -203.298)" fill="#407bff"/><path d="M197.622,383.345a14.469,14.469,0,0,0,1.147,6.163c2.6,3.706,8.823,5.042,12.377,10.083s7.726,12.843,19.473,15.352,20.733-1.109,22.952-4.437.277-6.5-7.209-10.688c-7.953-4.437-17.305-16.108-17.305-16.12-3.075-4-4.386-9.264-6.075-13.94-.176-.466-.441-1-.92-1.008s-.857.693-1.16,1.185a3.781,3.781,0,0,1-2.269,1.4,29.247,29.247,0,0,1-3.113.882,28.907,28.907,0,0,1-6.415.693,2.647,2.647,0,0,0-2.017.529,2.306,2.306,0,0,0-.4,1.79,18.743,18.743,0,0,0,.3,2.37,2.407,2.407,0,0,1,0,1.16,1.424,1.424,0,0,1-1.349.882,3.139,3.139,0,0,1-1.613-.517,7.134,7.134,0,0,1-3.781-4.84l-.441-2.294a2.609,2.609,0,0,0-1.26,1.689c-.227.908-.151,1.878-.3,2.8a48.565,48.565,0,0,0-.618,6.869Z" transform="translate(-108.978 -203.298)" opacity="0.3"/><path d="M261.909,319.89l5.256,49.546s-7.172,7.272-13.121,6.441a8.823,8.823,0,0,1-7.4-5.319L232,323.028Z" transform="translate(-100.024 -216.021)" fill="#ffa8a7"/><path d="M243.633,371.19a6.705,6.705,0,0,0,.643,3.3c.794,1.449,5.344,3.781,7.651,4.663s4.172,2.395,6.428,5.521c3.1,4.3,7.562,8.823,12.818,10.625a36.337,36.337,0,0,0,21.6.189c8.823-2.521,9.024-7.8,9.024-7.8s0-5.042-2.294-5.584S243.633,371.19,243.633,371.19Z" transform="translate(-96.999 -202.663)" fill="#263238"/><path d="M242.244,369.98a14.432,14.432,0,0,0,1.79,6c2.987,3.4,9.327,4.021,13.4,8.671s9.075,11.936,21.023,13.159,20.481-3.353,22.334-6.894-.416-6.491-8.319-9.844c-8.382-3.554-18.906-14.154-18.906-14.154-3.491-3.655-5.357-8.734-7.562-13.221-.214-.429-.542-.933-1.021-.895s-.769.781-1.021,1.26a3.781,3.781,0,0,1-2.1,1.626,26.649,26.649,0,0,1-3,1.26,27.734,27.734,0,0,1-6.3,1.386,2.647,2.647,0,0,0-1.954.744,2.4,2.4,0,0,0-.214,1.828,18.3,18.3,0,0,0,.567,2.319,2.42,2.42,0,0,1,.164,1.147,1.45,1.45,0,0,1-1.26,1.034,3.113,3.113,0,0,1-1.664-.353c-2.054-.933-3.857-2.117-4.525-4.3,0,0-.34-1.147-.693-2.206a2.155,2.155,0,0,0-.794,1.689,20.919,20.919,0,0,0,0,2.811,45.478,45.478,0,0,0,.063,6.932Z" transform="translate(-97.4 -207.452)" fill="#407bff"/><path d="M242.244,369.98a14.432,14.432,0,0,0,1.79,6c2.987,3.4,9.327,4.021,13.4,8.671s9.075,11.936,21.023,13.159,20.481-3.353,22.334-6.894-.416-6.491-8.319-9.844c-8.382-3.554-18.906-14.154-18.906-14.154-3.491-3.655-5.357-8.734-7.562-13.221-.214-.429-.542-.933-1.021-.895s-.769.781-1.021,1.26a3.781,3.781,0,0,1-2.1,1.626,26.649,26.649,0,0,1-3,1.26,27.734,27.734,0,0,1-6.3,1.386,2.647,2.647,0,0,0-1.954.744,2.4,2.4,0,0,0-.214,1.828,18.3,18.3,0,0,0,.567,2.319,2.42,2.42,0,0,1,.164,1.147,1.45,1.45,0,0,1-1.26,1.034,3.113,3.113,0,0,1-1.664-.353c-2.054-.933-3.857-2.117-4.525-4.3,0,0-.34-1.147-.693-2.206a2.155,2.155,0,0,0-.794,1.689,20.919,20.919,0,0,0,0,2.811,45.478,45.478,0,0,0,.063,6.932Z" transform="translate(-97.4 -207.452)" opacity="0.3"/><path d="M127.29,240.656,156.2,237.48l56,3.025s33.627,21.5,58.041,38.669c7.1,5.042,14.608,10.461,15.856,20.91,1.765,14.835,6.541,67.456,6.541,67.456-4.89,5.407-17.381,7.562-25.044,6.138-2.344-6.075-8.067-24.792-10.789-33.136a155.448,155.448,0,0,1-5.785-27.124l-35.606-22.347c7.84,7.978,10.411,10.575,14.52,14.721,3.6,3.642,5.987,8.23,7.046,20.028,2.1,23.393,2.256,55.457,2.521,62.629-2.949,4.121-14.885,9.554-24.338,4.8-3.227-12.528-4.676-18.654-7.474-30.325-5.394-22.561-3.466-30.086-4.537-34.963a385.237,385.237,0,0,1-37.887-21.893c-8.407-5.52-20.166-11.533-26.1-17.746C128.021,276.729,128.034,259.776,127.29,240.656Z" transform="translate(-127.29 -237.48)" fill="#37474f"/><path d="M201.376,288.338,181.21,265.512s10.726-3.617,16.385-17.532c0,0-1.26,13.2-9.163,18.994l9.415,12.755,39.072,30.93Z" transform="translate(-113.25 -234.746)" fill="#263238"/><path d="M215.91,404.881c.353-5.647,5.042-11.533,13.978-13.436s13.562,2.017,15.667,3.567,7.991,6.92,2.521,11.432-11.986,4.852-18.792,3.932S217.788,407.087,215.91,404.881Z" transform="translate(-104.214 -197.521)" fill="#fafafa"/><path d="M262.69,389.406c-.076-5.659,4.575-13.1,13.31-15.654s13.285,1.462,15.49,2.848,8.5,6.3,3.416,11.217-11.6,5.672-18.477,5.773C271.815,393.6,264.719,391.435,262.69,389.406Z" transform="translate(-92.033 -202.213)" fill="#fafafa"/></g><g transform="translate(31.605)"><g transform="translate(57.531 69.46)"><path d="M201.158,162.935c-5.394-5.357-12.818-10.209-17.646-10.776a41.455,41.455,0,0,0-12.163.139l18.692,41.593s26.241,21.187,39.249,30.338l4.172-29.317S210.221,171.985,201.158,162.935Z" transform="translate(-170.77 -150.608)" fill="#ffa8a7"/><path d="M192.783,155.148c-6.05-4.437-12.2-4.9-21.893-3.781l16.07,41.858,19.234,13.65s-.126-4.827,3.466-11.52a25.372,25.372,0,0,1,12.541-11.47S198.833,159.6,192.783,155.148Z" transform="translate(-170.89 -150.85)" fill="#407bff"/><path d="M192.783,155.148c-6.05-4.437-12.2-4.9-21.893-3.781l16.07,41.858,19.234,13.65s-.126-4.827,3.466-11.52a25.372,25.372,0,0,1,12.541-11.47S198.833,159.6,192.783,155.148Z" transform="translate(-170.89 -150.85)" opacity="0.2"/></g><path d="M206.66,185.9c.882-22.183-12.024-32.972-23.947-34.623,0,0-4.865.681-9.592,1.588-9.314,1.777-29.216,7.663-37.547,12.364-7.1,4-7.777,8.7-9.024,20.355-.895,8.319-1.475,14.469-1.26,39.715.113,18.465,2.344,37.383,2.823,50.126,16.133,11.344,67.494,9.844,86.085-11.583-6.768-11.848-10.852-20.469-10.537-31.838C204.215,211.665,206.219,197.108,206.66,185.9Z" transform="translate(-125.245 -81.278)" fill="#407bff"/><g transform="translate(19.885)"><path d="M206.564,108.13a.8.8,0,0,0-.063-.378c-.655-2.76-3.781.214-5.558.1.227-.983,1.26-1.651,1.639-2.521a13.145,13.145,0,0,0,1.084-3.781,14.092,14.092,0,0,0-.2-5.81c-1.575.58-3.012,1.487-4.613,2.054a22.133,22.133,0,0,1-8.016,1.109A155.721,155.721,0,0,1,172.9,97.265a39.552,39.552,0,0,0-11.886,0,21.982,21.982,0,0,0-9.655,4.046c-3.781,3.164-5.042,5.974-5.13,11.621-3.655,2.206-4.487,6.567-4.588,11.47-.126,6.063,2.975,11.633,5.458,16.99,0,0,6.3,13.6,7.764,16.272,1.714,3.088,3.227,5.684,3.227,5.684l-1.034-11.457c4.159-.517,7.562.643,11.457-.983a72.259,72.259,0,0,0,10.613-5.483,104.712,104.712,0,0,0,10.184-7.222,17.569,17.569,0,0,1,2.243-1.777c.6-.328,1.185-.328,1.7-.807,1.059-1,1.386-2.861,1.928-4.147a17.545,17.545,0,0,1,1.046-2.823c.479-.718,1.462-1.021,2.206-1.462a10.688,10.688,0,0,0,4.827-5.823c.618-1.739.958-4.676-.252-6.3C204.408,113.007,206.942,110.84,206.564,108.13Z" transform="translate(-140.861 -95.74)" fill="#455a64"/><path d="M165.938,112.911c.126,3.58-1.739,11.57-7.4,14.558a25.069,25.069,0,0,1,.378,10.083,6.768,6.768,0,0,1-.832,2.521,2.949,2.949,0,0,1-2.067,1.424c-1.172.126-1.676-.567-2.067-1.462a28.415,28.415,0,0,0-1.9-3.34,6.565,6.565,0,0,0-1.084-1.26c-1.828-1.575-7.159-3.39-9.39,2.294-2.307,5.886,3.075,12.1,7.361,13.07,5.7,1.26,7.247-2.8,7.247-2.8l-3.012,23.947c2.269,6.05,14.822,14.406,23.947,12.894s4.336-9.075,1.122-13.348l1.7-7.562s8.193.63,13.007-.479c3.781-.882,6.743-4.537,8.1-10.36,2.521-11.1,1.512-26.683-.139-33.539s-3.277-7.953-4.563-9.5c-.4,2.029-2.7,4.512-8.747,5.773C178.932,117.549,171.635,115.029,165.938,112.911Z" transform="translate(-141.021 -92.014)" fill="#ffa8a7"/><path d="M176.329,155.383c-6.693-1.046-12.6-2.521-16.221-4.8-2.672-1.651-4.789-6.378-5.407-8.041,0,0-.214,6.3,3.29,9.957,4.966,5.256,17.57,6.3,17.57,6.3Z" transform="translate(-137.46 -83.554)" fill="#f28f8f"/><path d="M169.283,122.047l-5.911,2.811a3.428,3.428,0,0,1,1.613-4.474,3.176,3.176,0,0,1,4.3,1.664Z" transform="translate(-135.279 -89.403)" fill="#455a64"/><path d="M168.685,140l8.394,3.1a4.4,4.4,0,0,1-5.684,2.811,4.689,4.689,0,0,1-2.71-5.911Z" transform="translate(-133.886 -84.215)" fill="#b16668"/><path d="M173.637,145.592a3.97,3.97,0,0,0-4.109-3.781,3.782,3.782,0,0,0-1.008.189,4.575,4.575,0,0,0,2.848,3.39A4.26,4.26,0,0,0,173.637,145.592Z" transform="translate(-133.861 -83.744)" fill="#f28f8f"/><path d="M187.479,124.377l-5.609-3.113a3.1,3.1,0,0,1,4.273-1.26,3.252,3.252,0,0,1,1.336,4.374Z" transform="translate(-130.384 -89.527)" fill="#455a64"/><path d="M175.447,142.447l8.8-2.886L174.3,123.39Z" transform="translate(-132.355 -88.54)" fill="#f28f8f"/><path d="M181.29,127.871a2.521,2.521,0,1,0,2.521-2.521A2.521,2.521,0,0,0,181.29,127.871Z" transform="translate(-130.535 -88.03)" fill="#263238"/><path d="M165.53,128.291a2.521,2.521,0,1,0,2.584-2.521A2.584,2.584,0,0,0,165.53,128.291Z" transform="translate(-134.639 -87.92)" fill="#263238"/></g></g><g transform="translate(20.395 99.823)"><path d="M221.976,344.5v129.82l-4.336-2.508V341.99Z" transform="translate(-89.975 -131.441)" fill="#263238"/><path d="M221.08,344.5v129.82l4.336-2.508V341.99Z" transform="translate(-89.079 -131.441)" fill="#37474f"/><path d="M124.7,288.238v129.82l-4.336-2.508V285.73Z" transform="translate(-115.306 -146.091)" fill="#263238"/><path d="M123.8,288.238v129.82l4.336-2.508V285.73Z" transform="translate(-114.41 -146.091)" fill="#37474f"/><path d="M388.636,248.276V378.1l-4.336-2.508V245.78Z" transform="translate(-46.578 -156.494)" fill="#263238"/><path d="M387.74,248.276V378.1l4.336-2.508V245.78Z" transform="translate(-45.682 -156.494)" fill="#37474f"/><path d="M247.307,353.018V368.47L120.36,295.052V279.6Z" transform="translate(-115.306 -147.687)" fill="#37474f"/><path d="M221.08,378.873,435.485,255.1V239.65L221.08,363.421Z" transform="translate(-89.079 -158.09)" fill="#455a64"/><path d="M249.044,377.384,116.35,300.765,335,174.94,467.71,251.559Z" transform="translate(-116.35 -174.94)" fill="#407bff"/><g opacity="0.8"><path d="M249.044,377.384,116.35,300.765,335,174.94,467.71,251.559Z" transform="translate(-116.35 -174.94)" fill="#fff"/></g><path d="M116.35,274.75v10.9l132.694,76.594V351.369Z" transform="translate(-116.35 -148.95)" fill="#407bff"/><g transform="translate(0 125.8)" opacity="0.5"><path d="M116.35,274.75v10.9l132.694,76.594V351.369Z" transform="translate(-116.35 -274.75)" fill="#fff"/></g><path d="M221.63,372.412,440.3,246.7V235.71L221.63,361.535Z" transform="translate(-88.936 -159.116)" fill="#407bff"/><g transform="translate(132.694 76.594)" opacity="0.65"><path d="M221.63,372.412,440.3,246.7V235.71L221.63,361.535Z" transform="translate(-221.63 -235.71)" fill="#fff"/></g></g><path d="M221.479,186.633A62.352,62.352,0,0,0,219.916,205s-4.512-11.47-1.525-21.427Z" transform="translate(-69.651 -72.87)" fill="#f28f8f"/><path d="M266.939,128.624c.076-1.26-.87-1.563-1.865-1.512a7.335,7.335,0,0,0-4.046,1.626,47.714,47.714,0,0,0-4.89,5.205c-2.521,2.609-6.554,6.869-10.083,7.827-.731.189-2.294.378-1.6-.819a32.127,32.127,0,0,0,2.521-4.764,6.466,6.466,0,0,0,0-5.256,2.231,2.231,0,0,0-1.147-1.109c-.731-.252-1.046.151-1.4.655a17.163,17.163,0,0,1-1.26,1.449c-.907.971-1.815,1.954-2.71,2.937-5.205,5.76-10.222,12.163-11.923,19.914-.252,1.122-1.185,9.667-1.991,14.57-.517,4.4-5.042,31.989-5.042,31.989l-4.172,29.317c11.785,8.243,18.5,4.134,20.444.781,3.227-5.546,6.151-7.978,6.529-41.076.063-3.063,0-6.126.063-9.188a66.976,66.976,0,0,1,.971-11.747c.844-3.907,3.882-5.1,5.836-6.478a35.708,35.708,0,0,0,7.424-6.478,32.767,32.767,0,0,0,5.042-6.97,10.083,10.083,0,0,0,1.588-3.882,27.8,27.8,0,0,1-.416-3.453c.151-1.361.933-2.622.933-3.983a12.93,12.93,0,0,0-.769-3.113c-.441-1.651.252-2.912,1.059-4.311A4.953,4.953,0,0,0,266.939,128.624Z" transform="translate(-69.661 -87.573)" fill="#ffa8a7"/><path d="M238.759,142.29c-.2,4.474-2.8,10.3-4.739,12.364a13.864,13.864,0,0,0,4.512-5.584C239.83,145.542,239.478,143.84,238.759,142.29Z" transform="translate(-65.315 -83.619)" fill="#f28f8f"/><g transform="translate(25.129 83.665)"><g transform="translate(72.348 73.29)"><path d="M330.258,256.456l-54.575-31.51a3.163,3.163,0,0,0-3.138,0l-94.693,54.688a.693.693,0,0,0,0,1.2l55.092,31.825Z" transform="translate(-177.507 -219.159)" opacity="0.2"/><path d="M325.715,244.6v1.26a5.042,5.042,0,0,1-2.521,4.374l-88.228,50.92a5.117,5.117,0,0,1-5.042,0l-48.084-27.729a5.042,5.042,0,0,1-2.521-4.361v-1.7h0a.618.618,0,0,0,.315.555l52.8,30.5Z" transform="translate(-177.035 -213.932)" fill="#37474f"/><path d="M325.714,250.923,273.42,220.674a3,3,0,0,0-3.012,0l-90.748,52.395a.668.668,0,0,0,0,1.16L232.445,304.7Z" transform="translate(-177.034 -220.268)" fill="#455a64"/><path d="M226.938,296.989,198.73,280.718,281.21,233.1l28.359,16.183Z" transform="translate(-171.981 -216.927)" fill="#37474f"/><path d="M309.569,249.286l-1.084.618L281.21,234.338l-81.4,47-1.084-.618,82.48-47.63Z" transform="translate(-171.981 -216.93)" fill="#263238"/><path d="M210.11,250.875l.517.3,13.827,7.978,24.59-14.192.5-.29L235.2,236.38Z" transform="translate(-169.018 -216.073)" fill="#263238"/><path d="M210.52,251.055l13.827,7.978,24.59-14.192L235.1,236.85Z" transform="translate(-168.911 -215.95)" fill="#37474f"/><path d="M221.49,298.431v3.39a5.042,5.042,0,0,0,2.521-.668l88.227-50.92a5.042,5.042,0,0,0,2.521-4.374V244.6Z" transform="translate(-166.055 -213.932)" fill="#263238"/></g><g transform="translate(80.426 101.791)"><path d="M184.022,261.344s1.26.643,3.239,1.437c1.815.706,3.428,2.143,7.739,3.542,5.117,1.651,11.722-.113,16.183-.29s12.012,2.017,16.133,3.781,9.176-4.563,11.243-3.781,5.7-.819,1.941-4.651-9.188-9.138-13.8-10.751a25.021,25.021,0,0,0-3.239-1.059,36.186,36.186,0,0,0,4.777-.882,8.432,8.432,0,0,0,4.071-2.609c.4-.517.706-1.336.2-1.764a1.147,1.147,0,0,0-.655-.252c-3.479-.151-6.2-.731-9.365-1.008a12.983,12.983,0,0,0-4.248,0c-1.26.328-2.6.693-3.882,1.109-5.785,1.9-13.574,1.777-17.935,1.689a53.215,53.215,0,0,1-5.987-.731c-1.059-.1-2.13,1.538-4.1,5.747C183.165,257.513,184.022,261.344,184.022,261.344Z" transform="translate(-183.916 -242.881)" fill="#ffa8a7"/><path d="M215.042,246.33a15.679,15.679,0,0,0-6.3.92,34.689,34.689,0,0,1,8.23,1.563,36.2,36.2,0,0,0,4.777-.882,8.823,8.823,0,0,0,3.693-2.18C222.932,247.414,218.042,246.67,215.042,246.33Z" transform="translate(-177.453 -242.134)" fill="#f28f8f"/></g><path d="M207.564,285.6c-5.621-2.911-33.766-6.214-44.29-9.05a174.223,174.223,0,0,1-18.591-5.974c-4.109-1.6-6.655-3.92-9.163-13.663s-13.2-49.975-14.356-61.936.1-18.25,4.348-23.821c3.113-4.084,11.47-8.155,11.47-8.155s9.97,4.979,13.562,19.334,3.4,22.221,3.4,22.221l10.171,43.622,21.943,9.176c10.083,4.184,18.792,8.243,23.279,8.949S207.564,285.6,207.564,285.6Z" transform="translate(-119.937 -161.891)" fill="#ffa8a7"/><path d="M137.492,162.12c-8.949,4.386-13.537,8.407-16.02,15.566s-1.147,17.406.58,26.468,5.735,25.712,5.735,25.712,4.588,1.336,16.625-1.727,14.154-7.449,14.154-7.449l-3.542-17.885S155.137,169.014,137.492,162.12Z" transform="translate(-120.106 -162.12)" fill="#407bff"/><path d="M137.492,162.12c-8.949,4.386-13.537,8.407-16.02,15.566s-1.147,17.406.58,26.468,5.735,25.712,5.735,25.712,4.588,1.336,16.625-1.727,14.154-7.449,14.154-7.449l-3.542-17.885S155.137,169.014,137.492,162.12Z" transform="translate(-120.106 -162.12)" opacity="0.2"/><path d="M222.62,312.244a5.962,5.962,0,0,0,5.142-.4l87.824-50.693a6,6,0,0,0,2.9-4.185l9.617-57.335a6.17,6.17,0,0,0,.076-.971,5.962,5.962,0,0,0-1.765-4.248l-91.265,52.7a4.449,4.449,0,0,0-2.143,3.088Z" transform="translate(-93.412 -153.712)" fill="#37474f"/><path d="M221.49,311.693l.6.34a6.172,6.172,0,0,0,.819.4L233.3,250.388a4.449,4.449,0,0,1,2.143-3.088l91.3-52.7a6.3,6.3,0,0,0-1.26-.933l-91.454,52.8a4.437,4.437,0,0,0-2.143,3.088Z" transform="translate(-93.707 -153.905)" fill="#455a64"/><path d="M234.144,237.319l-1.412-.819a4.323,4.323,0,0,0-.832,1.9L221.49,300.541l.6.34a6.168,6.168,0,0,0,.819.4L233.3,239.235a4.538,4.538,0,0,1,.844-1.916Z" transform="translate(-93.707 -142.752)" fill="#263238"/><path d="M261.878,248.517c.643-3.781,4.6-8.936,8.823-11.344s7.172-1.323,6.529,2.521-4.613,8.936-8.823,11.344S261.235,252.412,261.878,248.517Z" transform="translate(-83.213 -142.909)" fill="#407bff"/></g></g><g transform="translate(56.113 392.325)"><path d="M59.21,404.757c0-11,15.856-19.927,35.43-19.927s35.43,8.924,35.43,19.927v2.609c0,11-15.856,19.927-35.43,19.927s-35.43-8.924-35.43-19.927Z" transform="translate(-44.999 -299.089)" fill="#407bff"/><path d="M59.21,404.757c0-11,15.856-19.927,35.43-19.927s35.43,8.924,35.43,19.927v2.609c0,11-15.856,19.927-35.43,19.927s-35.43-8.924-35.43-19.927Z" transform="translate(-44.999 -299.089)" fill="#fff" opacity="0.6"/><path d="M59.21,404.757c0-11,15.856-19.927,35.43-19.927s35.43,8.924,35.43,19.927v2.609c0,11-15.856,19.927-35.43,19.927s-35.43-8.924-35.43-19.927Z" transform="translate(-44.999 -299.089)" opacity="0.1"/><path d="M59.21,404.757c0,11,15.856,19.914,35.43,19.914s35.43-8.911,35.43-19.914S114.214,384.83,94.64,384.83,59.21,393.754,59.21,404.757Z" transform="translate(-44.999 -299.089)" fill="#407bff"/><path d="M59.21,404.757c0,11,15.856,19.914,35.43,19.914s35.43-8.911,35.43-19.914S114.214,384.83,94.64,384.83,59.21,393.754,59.21,404.757Z" transform="translate(-44.999 -299.089)" fill="#fff" opacity="0.75"/><path d="M59.21,404.757c0,11,15.856,19.914,35.43,19.914s35.43-8.911,35.43-19.914S114.214,384.83,94.64,384.83,59.21,393.754,59.21,404.757Z" transform="translate(-44.999 -299.089)" opacity="0.05"/><path d="M113.575,362.395a.756.756,0,0,0,.756-.643l4.613-33.8a.756.756,0,0,0-.643-.857.769.769,0,0,0-.857.643l-4.613,33.791a.769.769,0,0,0,.63.87Z" transform="translate(-31.039 -314.125)" fill="#fafafa"/><path d="M107.667,370.66a.756.756,0,0,0,.744-.681l4.55-43.547a.756.756,0,0,0-1.5-.164l-4.55,43.559a.756.756,0,0,0,.668.832Z" transform="translate(-32.579 -314.5)" fill="#fafafa"/><path d="M100.327,376.251a.756.756,0,0,0,.756-.706l3.378-53.378a.769.769,0,0,0-.718-.807.718.718,0,0,0-.794.706l-3.378,53.34a.756.756,0,0,0,.706.807Z" transform="translate(-34.49 -315.617)" fill="#fafafa"/><path d="M91.886,378.959a.756.756,0,0,0,.756-.731l1.109-57.978a.769.769,0,0,0-.744-.769.693.693,0,0,0-.769.744L91.13,378.2a.756.756,0,0,0,.744.769Z" transform="translate(-36.687 -316.106)" fill="#fafafa"/><path d="M61.628,362.395a.744.744,0,0,1-.744-.643l-4.613-33.8a.756.756,0,0,1,.63-.857.769.769,0,0,1,.857.643l4.626,33.791a.769.769,0,0,1-.643.87Z" transform="translate(-45.766 -314.125)" fill="#fafafa"/><path d="M67.537,370.67a.756.756,0,0,1-.756-.681l-4.55-43.547a.756.756,0,0,1,.668-.832.744.744,0,0,1,.832.668l4.512,43.559a.769.769,0,0,1-.681.832Z" transform="translate(-44.214 -314.51)" fill="#fafafa"/><path d="M74.634,376.251a.744.744,0,0,1-.756-.706L70.5,322.167a.756.756,0,0,1,.706-.807.731.731,0,0,1,.807.706l3.365,53.34a.756.756,0,0,1-.706.807Z" transform="translate(-42.06 -315.617)" fill="#fafafa"/><path d="M82.593,378.959a.756.756,0,0,1-.756-.731l-1.1-57.978a.744.744,0,0,1,.731-.769.706.706,0,0,1,.781.744l1.1,57.978a.744.744,0,0,1-.731.769Z" transform="translate(-39.393 -316.106)" fill="#fafafa"/><path d="M126.841,379.3c-1.916-2.357-4.5-4.588-5.142-7.7-.492-2.37-.4-5.042-1.815-6.97a21.43,21.43,0,0,0-3.655-3.252,10.814,10.814,0,0,1-2.37-12.6c-2.168-.819-4.626.277-6.378,1.79s-3.151,3.453-5.042,4.8c-2.521,1.84-5.823,2.395-8.747,3.6s-5.823,3.567-5.911,6.73c-.076,2.9,2.18,6.088.454,8.419-2.659,3.58-9.566.265-9.289,6.693.113,2.445.97,3.668-1.55,5.395s-6.163.794-8.823,2.6a9.617,9.617,0,0,0-2.886,4.147c-.844,1.84-1.689,3.68-2.357,5.6a24.628,24.628,0,0,0-.542,15.553c.718,2.206,1.928,5.432,4.248,6.163,3.138,1,6.062,0,8.911,2.332,1.147.945,1.991,2.193,3.1,3.164a11.482,11.482,0,0,0,7.462,2.521c2.155,0,4.235-.794,6.3-.832a15.932,15.932,0,0,1,4.172.933c3.1.731,7,.718,9.327-1.8,1.676-1.8,2.269-4.663,4.462-5.785s5.042.214,7.651.139c4.348-.1,7.562-4.424,8.256-8.722s-.416-8.634-.945-12.957c-.718-5.71,3.428-9.944,3.227-15.2A8.167,8.167,0,0,0,126.841,379.3Z" transform="translate(-44.329 -308.549)" fill="#fafafa"/><path d="M126.836,373.547c-.794-.971-1.7-1.928-2.521-2.937-.844,2.722-2.735,5.042-3.781,7.663-1.26,3.164-1.26,6.68-1.336,10.083V399.5a2.811,2.811,0,0,1-.492,1.916c-.882.958-2.521.227-3.4-.731s-1.777-2.193-3.075-2.218c-1.538,0-2.785,1.727-4.3,1.424s-1.828-2.143-1.26-3.416a11.243,11.243,0,0,1,2.722-3.126,4.172,4.172,0,0,0,1.525-3.68c-4.222-.542-7.9,2.7-10.928,5.7-1.336,1.26-2.785,3.164-2,4.865.592,1.26,2.243,1.815,2.949,3.063a3.5,3.5,0,0,1-1.26,4.323,10.222,10.222,0,0,1-4.852,1.5,8.369,8.369,0,0,1-3.4,0,2.9,2.9,0,0,1-2.256-2.294c-.1-1.147,1.084-2.319,2.155-1.9-1.979-1.449-4.121-2.949-6.567-3.012s-5.042,2.067-4.55,4.462l-9.743-.214c1.336-1.928-.239-4.5-1.891-6.163a13.561,13.561,0,0,1-2.735-3.264,3.869,3.869,0,0,1,.126-4.084c.832-1.059,2.458-1.6,2.659-2.937a2.193,2.193,0,0,0-1.891-2.231,3.428,3.428,0,0,0-1.134,0c-.807,1.765-1.613,3.529-2.243,5.357a24.628,24.628,0,0,0-.542,15.553c.718,2.206,1.928,5.432,4.248,6.163,3.138,1,6.062,0,8.911,2.332,1.147.945,1.991,2.193,3.1,3.164a11.483,11.483,0,0,0,7.462,2.521c2.155,0,4.235-.794,6.3-.832a15.934,15.934,0,0,1,4.172.933c3.1.731,7,.718,9.327-1.8,1.676-1.8,2.269-4.663,4.462-5.785s5.042.214,7.651.139c4.348-.1,7.562-4.424,8.256-8.722s-.416-8.634-.945-12.957c-.718-5.71,3.428-9.945,3.227-15.2a8.167,8.167,0,0,0-2.143-4.79Z" transform="translate(-44.324 -302.791)" fill="#ebebeb"/><path d="M75.461,383.455A3.542,3.542,0,0,1,76,386.379a10.6,10.6,0,0,0-.416,1.5,1.16,1.16,0,0,0,.706,1.26,1.752,1.752,0,0,0,1.2-.34,4.727,4.727,0,0,1,3.29-.68,2.344,2.344,0,0,1,1.878,2.521,4.651,4.651,0,0,0,0-4.6,3.012,3.012,0,0,0-4.185-.895,2.735,2.735,0,0,0-1.626-3.239,4.525,4.525,0,0,0-3.617.139,4.449,4.449,0,0,1,2.231,1.412Z" transform="translate(-41.348 -299.932)" fill="#ebebeb"/><path d="M88.143,375.473c-.4.277-.87.454-1.26.769a1.26,1.26,0,0,0-.58,1.26c.87-.139,1.639.592,2.117,1.323a4.941,4.941,0,0,0,1.689,1.991c.643.315,1.449.265,2.017.693.832.655.693,1.928.466,2.962l4.121-2.76a2.9,2.9,0,0,0,.668-.567,1.777,1.777,0,0,0-.416-2.306,4.021,4.021,0,0,0-2.407-.781,12.415,12.415,0,0,1-2.521-.265.668.668,0,0,1-.492-.378c-.1-.328.3-.592.63-.718l3.97-1.5a.618.618,0,0,0,0-.895,1.677,1.677,0,0,0-.92-.34,54.974,54.974,0,0,0-7.651-1.26C87.6,373.771,90.147,374.1,88.143,375.473Z" transform="translate(-37.948 -302.247)" fill="#ebebeb"/><path d="M96.6,361.772c-2.13-.328-4.638.781-5.042,2.874,1.752.113,3.1,1.55,4.248,2.9l1.765,2.092a5.041,5.041,0,0,1,1.336,2.256,6.685,6.685,0,0,0,.429,2.395,2.685,2.685,0,0,0,1.349.807,3.567,3.567,0,0,0,3.29,0,2.407,2.407,0,0,0,.643-2.622,7.361,7.361,0,0,0-1.588-2.395,10,10,0,0,1,5.848.529,1.89,1.89,0,0,0,1.412.227,1.348,1.348,0,0,0,.693-.92,3.365,3.365,0,0,0-1.374-3.39,6.365,6.365,0,0,0-3.68-1.046C102.2,365.5,100.194,362.326,96.6,361.772Z" transform="translate(-36.575 -305.108)" fill="#ebebeb"/><path d="M114.306,415.4l9.239-63.171a.756.756,0,0,0-.643-.857.769.769,0,0,0-.857.643l-9.213,63.171a.756.756,0,0,0,.63.857h.113a.769.769,0,0,0,.756-.655" transform="translate(-31.039 -307.803)" fill="#fafafa"/><path d="M107.667,422.3a.756.756,0,0,0,.744-.668l6.6-63.171a.756.756,0,0,0-.668-.832.744.744,0,0,0-.832.668l-6.6,63.171a.744.744,0,0,0,.668.832Z" transform="translate(-32.58 -306.172)" fill="#fafafa"/><path d="M100.326,425.864a.769.769,0,0,0,.756-.718l3.958-63.171a.744.744,0,0,0-.706-.794.731.731,0,0,0-.807.706L99.57,425.058a.769.769,0,0,0,.706.807Z" transform="translate(-34.49 -305.248)" fill="#fafafa"/><path d="M91.9,427.624a.756.756,0,0,0,.756-.744l1.26-63.171a.756.756,0,0,0-.744-.769.693.693,0,0,0-.769.744L91.08,426.855a.756.756,0,0,0,.744.769Z" transform="translate(-36.7 -304.79)" fill="#fafafa"/><path d="M83.34,427.623h0a.756.756,0,0,0,.744-.769L82.76,363.684A.756.756,0,0,0,82,362.94h0a.756.756,0,0,0-.744.769l1.26,63.171a.756.756,0,0,0,.819.744Z" transform="translate(-39.258 -304.789)" fill="#fafafa"/><path d="M75.455,425.865h0a.769.769,0,0,0,.706-.807L72.2,361.887a.706.706,0,0,0-.807-.706.744.744,0,0,0-.706.794l3.958,63.171a.769.769,0,0,0,.807.718Z" transform="translate(-42.01 -305.248)" fill="#fafafa"/><path d="M68.649,422.3h.088a.744.744,0,0,0,.668-.832L62.8,358.3a.731.731,0,0,0-.832-.668.744.744,0,0,0-.668.832l6.6,63.171a.756.756,0,0,0,.744.668Z" transform="translate(-44.456 -306.173)" fill="#fafafa"/><path d="M63.287,416.052h.1a.756.756,0,0,0,.643-.857l-9.239-63.171a.769.769,0,0,0-.857-.643.756.756,0,0,0-.643.857l9.239,63.171a.769.769,0,0,0,.756.643Z" transform="translate(-46.542 -307.8)" fill="#fafafa"/><path d="M48.282,348.851a18.742,18.742,0,0,0,2.975,6.945,32.959,32.959,0,0,0,11.217,9.957c19.372,11.18,50.819,11.18,70.216,0a33.022,33.022,0,0,0,11.2-9.957,19.384,19.384,0,0,0,2.975-6.945h0c1.727-8.419-3.012-17.192-14.192-23.645-19.4-11.2-50.844-11.2-70.216,0C51.281,331.659,46.555,340.432,48.282,348.851Zm20.028,13.574c-6.239-3.617-10.083-8.079-11.482-12.743,1.386-5.042,5.218-9.818,11.482-13.713,16.158-10.008,42.362-10.008,58.52,0,6.3,3.895,10.083,8.709,11.482,13.726-1.412,4.664-5.256,9.125-11.495,12.73C110.671,371.69,84.467,371.69,68.309,362.426Z" transform="translate(-47.935 -316.802)" fill="#407bff"/><path d="M48.282,348.851a18.742,18.742,0,0,0,2.975,6.945,32.959,32.959,0,0,0,11.217,9.957c19.372,11.18,50.819,11.18,70.216,0a33.022,33.022,0,0,0,11.2-9.957,19.384,19.384,0,0,0,2.975-6.945h0c1.727-8.419-3.012-17.192-14.192-23.645-19.4-11.2-50.844-11.2-70.216,0C51.281,331.659,46.555,340.432,48.282,348.851Zm20.028,13.574c-6.239-3.617-10.083-8.079-11.482-12.743,1.386-5.042,5.218-9.818,11.482-13.713,16.158-10.008,42.362-10.008,58.52,0,6.3,3.895,10.083,8.709,11.482,13.726-1.412,4.664-5.256,9.125-11.495,12.73C110.671,371.69,84.467,371.69,68.309,362.426Z" transform="translate(-47.935 -316.802)" fill="#fff" opacity="0.75"/><path d="M51.19,349.162a33.009,33.009,0,0,0,11.2,9.957c19.4,11.192,50.832,11.192,70.229,0a33.009,33.009,0,0,0,11.2-9.957,18.78,18.78,0,0,0,2.962-6.932h0l-2.193,8.76c-1.008,6.088-5.546,12.024-13.65,16.7-18.477,10.65-48.424,10.65-66.9,0-7.991-4.613-12.528-10.474-13.6-16.486l-.113-.781L48.19,342.23a18.906,18.906,0,0,0,3,6.932Z" transform="translate(-47.869 -310.181)" fill="#407bff"/><path d="M51.19,349.162a33.009,33.009,0,0,0,11.2,9.957c19.4,11.192,50.832,11.192,70.229,0a33.009,33.009,0,0,0,11.2-9.957,18.78,18.78,0,0,0,2.962-6.932h0l-2.193,8.76c-1.008,6.088-5.546,12.024-13.65,16.7-18.477,10.65-48.424,10.65-66.9,0-7.991-4.613-12.528-10.474-13.6-16.486l-.113-.781L48.19,342.23a18.906,18.906,0,0,0,3,6.932Z" transform="translate(-47.869 -310.181)" fill="#fff" opacity="0.6"/><path d="M54.7,346.907c.113.58.252,1.147.416,1.727,1.386-5.042,5.218-9.818,11.482-13.713,16.158-10.008,42.362-10.008,58.52,0,6.3,3.895,10.083,8.709,11.482,13.726a11.854,11.854,0,0,0,.429-1.752c1.26-6.882-2.773-14.016-11.923-19.309-16.146-9.327-42.349-9.327-58.507,0C57.464,332.879,53.494,340.013,54.7,346.907Z" transform="translate(-46.228 -315.816)" fill="#407bff"/><path d="M54.7,346.907c.113.58.252,1.147.416,1.727,1.386-5.042,5.218-9.818,11.482-13.713,16.158-10.008,42.362-10.008,58.52,0,6.3,3.895,10.083,8.709,11.482,13.726a11.854,11.854,0,0,0,.429-1.752c1.26-6.882-2.773-14.016-11.923-19.309-16.146-9.327-42.349-9.327-58.507,0C57.464,332.879,53.494,340.013,54.7,346.907Z" transform="translate(-46.228 -315.816)" fill="#fff" opacity="0.6"/></g><g transform="translate(261.873 71.451)"><path d="M279.013,64.73a.983.983,0,0,0-.391-.882h0l-2.6-1.5h0a.983.983,0,0,0-.983.1L235.214,85.413l-1.071-3.58a1.261,1.261,0,0,0-.58-.769h0l-2.609-1.487h0a1.26,1.26,0,0,0-1.26,0l-17.116,9.881a3.063,3.063,0,0,0-1.386,2.407V148.9a.983.983,0,0,0,.378.882h0l2.584,1.5h0a1.021,1.021,0,0,0,.945-.113L277.576,115.1a3.075,3.075,0,0,0,1.4-2.407Z" transform="translate(-211.186 -62.209)" fill="#407bff"/><g transform="translate(0.396)" opacity="0.5"><path d="M233.456,77.484a1.26,1.26,0,0,0-1.26,0l-17.1,9.894a3.1,3.1,0,0,0-.983,1.034l-2.609-1.5a2.823,2.823,0,0,1,.983-1.046L229.6,76.035a1.26,1.26,0,0,1,1.26,0h0Z" transform="translate(-211.5 -58.666)" fill="#fff"/><path d="M273.587,63.808a1.071,1.071,0,0,0-.908.126L232.448,87.151a1.26,1.26,0,0,1-1.853-.744l-.315-1.034,39.828-22.964a1.134,1.134,0,0,1,.618-.189.718.718,0,0,1,.366.088h0Z" transform="translate(-206.61 -62.22)" fill="#fff"/></g><path d="M213.958,145.31l.139.151L211.576,144h0a.693.693,0,0,1-.239-.265.629.629,0,0,1,0-.164,1.26,1.26,0,0,1-.076-.454v-57.1a.779.779,0,0,1,0-.164c0-.113,0-.227,0-.353v-.164a3.777,3.777,0,0,1,.214-.517.152.152,0,0,1,.088-.164l2.609,1.5a2.861,2.861,0,0,0-.4,1.374V144.6a1.716,1.716,0,0,0,0,.252.454.454,0,0,0,0,.126v.164a.681.681,0,0,0,.189.164Z" transform="translate(-211.167 -56.377)" opacity="0.2"/><path d="M253.57,94.867c0,8.6-5.218,18.566-11.671,22.3s-11.659-.239-11.659-8.823,5.218-18.566,11.659-22.284S253.57,86.347,253.57,94.867Z" transform="translate(-206.224 -56.375)" fill="#fafafa"/><path d="M247.28,93.324l-5.533-4.185h-.126a2.2,2.2,0,0,0-.3-.139h-.4a.667.667,0,0,0-.151,0,.5.5,0,0,0-.139,0,.239.239,0,0,0-.1,0,1.675,1.675,0,0,0-.3.139l-.189.126a1.564,1.564,0,0,0-.227.277.489.489,0,0,0-.1.113l-5.533,10.575a1.374,1.374,0,0,0,.58,1.853,1.424,1.424,0,0,0,.643.151,1.361,1.361,0,0,0,1.26-.731L239.6,95.87v14.923a1.374,1.374,0,0,0,2.735,0V92.984l3.34,2.521a1.374,1.374,0,1,0,1.651-2.18Z" transform="translate(-205.241 -55.248)" fill="#407bff"/></g><g transform="translate(286.968 26.77)"><g transform="translate(51.435 33.539)"><path d="M281.4,53.38l-3.617,14.041a3.554,3.554,0,0,0-1.172-.542,3.781,3.781,0,1,0,2.735,4.613l3.252-12.6,13.524-.063h0l-3.2,12.478a3.769,3.769,0,1,0,1.563,4.084h0l5.344-20.834Z" transform="translate(-271.905 -53.38)" fill="#407bff"/><path d="M281.4,53.38l-3.617,14.041a3.554,3.554,0,0,0-1.172-.542,3.781,3.781,0,1,0,2.735,4.613l3.252-12.6,13.524-.063h0l-3.2,12.478a3.769,3.769,0,1,0,1.563,4.084h0l5.344-20.834Z" transform="translate(-271.905 -53.38)" fill="#fff" opacity="0.45"/></g><g transform="translate(0 17.066)"><path d="M240.579,40.31l-3.63,14.041a4,4,0,0,0-1.172-.542,3.781,3.781,0,1,0,2.76,4.626l3.252-12.6,13.524-.063h0l-3.2,12.478a3.692,3.692,0,0,0-1.172-.542,3.781,3.781,0,1,0,2.722,4.638h0l5.344-20.834Z" transform="translate(-231.096 -40.31)" fill="#407bff"/><path d="M240.579,40.31l-3.63,14.041a4,4,0,0,0-1.172-.542,3.781,3.781,0,1,0,2.76,4.626l3.252-12.6,13.524-.063h0l-3.2,12.478a3.692,3.692,0,0,0-1.172-.542,3.781,3.781,0,1,0,2.722,4.638h0l5.344-20.834Z" transform="translate(-231.096 -40.31)" fill="#fff" opacity="0.7"/></g><g transform="translate(38.825)"><path d="M266.4,34.269a5.81,5.81,0,0,1,1.752-1.651,12.693,12.693,0,0,1,2.987-1.26,22,22,0,0,0,4.071-1.437,5.382,5.382,0,0,0,2.8-3.151,5.622,5.622,0,0,1-2.332.933c-2,.3-4.311-.681-6.3-.781-3.012-.164-5.155,1.172-7.474,3.378,1.26,2.307,2.521,4.651,3.781,6.97,1,1.828,1.991,3.643,2.974,5.47.1.176,1.26,2.521,1.26,2.521a5.344,5.344,0,0,0-2.294.63,4.462,4.462,0,1,0,6.05,1.765Z" transform="translate(-261.9 -26.77)" fill="#407bff"/><path d="M266.4,34.269a5.81,5.81,0,0,1,1.752-1.651,12.693,12.693,0,0,1,2.987-1.26,22,22,0,0,0,4.071-1.437,5.382,5.382,0,0,0,2.8-3.151,5.622,5.622,0,0,1-2.332.933c-2,.3-4.311-.681-6.3-.781-3.012-.164-5.155,1.172-7.474,3.378,1.26,2.307,2.521,4.651,3.781,6.97,1,1.828,1.991,3.643,2.974,5.47.1.176,1.26,2.521,1.26,2.521a5.344,5.344,0,0,0-2.294.63,4.462,4.462,0,1,0,6.05,1.765Z" transform="translate(-261.9 -26.77)" fill="#fff" opacity="0.2"/></g></g><g transform="translate(328.742 88.554)"><path d="M292.16,81.689a66.8,66.8,0,0,0,5.042,41.921s32.3-7.562,48.979-6.05a57.638,57.638,0,0,1-4.273-39.992C328.863,74.429,303.479,75.235,292.16,81.689Z" transform="translate(-257.323 -75.79)" fill="#f5f5f5"/><path d="M298.443,119.135A64.747,64.747,0,0,1,294.384,83.2c9.831-4.739,30.023-5.9,42.853-3.781a61.684,61.684,0,0,0,3.176,34.031C325.894,113.463,305.639,117.572,298.443,119.135Z" transform="translate(-256.635 -75.109)" fill="#407bff"/><path d="M298.443,119.135A64.747,64.747,0,0,1,294.384,83.2c9.831-4.739,30.023-5.9,42.853-3.781a61.684,61.684,0,0,0,3.176,34.031C325.894,113.463,305.639,117.572,298.443,119.135Z" transform="translate(-256.635 -75.109)" fill="#fff" opacity="0.7"/><path d="M317.9,84.014a3.227,3.227,0,0,0-3.781,2.332,2.949,2.949,0,0,0,2.521,3.453,3.2,3.2,0,0,0,3.781-2.332,2.949,2.949,0,0,0-2.521-3.453Z" transform="translate(-251.264 -73.666)" fill="#fff" opacity="0.7"/><path d="M296,106.505,307.684,90.12l20.544,14.545-6.894-7.134,4.89-4.916,9.592,9.428a64.816,64.816,0,0,0,2.067,7.071c-13.65.353-31.207,3.781-39.312,5.508A57.19,57.19,0,0,1,296,106.505Z" transform="translate(-255.97 -72.059)" fill="#fff" opacity="0.7"/><path d="M291.48,100.193a62.681,62.681,0,0,0,5.6,18.011s5.672-1.26,13.486-2.748a53.062,53.062,0,0,1-6.5-18.906,73.648,73.648,0,0,0-12.579,3.643Z" transform="translate(-257.147 -70.384)" opacity="0.2"/><path d="M264.24,118.833a66.8,66.8,0,0,0,21.212,36.551s26.72-19.65,42.626-24.88A57.638,57.638,0,0,1,308.366,95.44C295.069,97.721,272.08,108.46,264.24,118.833Z" transform="translate(-264.24 -70.673)" fill="#f5f5f5"/><path d="M284.961,150.332A64.9,64.9,0,0,1,267,118.911c7.172-8.218,25.208-17.267,37.925-20.381a61.76,61.76,0,0,0,16.31,29.972C307.95,134.287,290.947,146.059,284.961,150.332Z" transform="translate(-263.521 -69.869)" fill="#407bff"/><path d="M284.961,150.332A64.9,64.9,0,0,1,267,118.911c7.172-8.218,25.208-17.267,37.925-20.381a61.76,61.76,0,0,0,16.31,29.972C307.95,134.287,290.947,146.059,284.961,150.332Z" transform="translate(-263.521 -69.869)" fill="#fff" opacity="0.7"/><path d="M289.338,107.323a3.239,3.239,0,0,0-2.521,3.63,2.949,2.949,0,0,0,3.68,2.168,3.189,3.189,0,0,0,2.521-3.63,2.949,2.949,0,0,0-3.68-2.168Z" transform="translate(-258.37 -67.608)" fill="#fff" opacity="0.7"/><path d="M276.91,138.334,281.2,118.71l24.615,5.256-9.125-3.932,2.521-6.453,12.541,4.878a62.626,62.626,0,0,0,4.676,5.684c-12.4,5.71-27.174,15.78-33.955,20.57a57.6,57.6,0,0,1-5.558-6.378Z" transform="translate(-260.941 -65.95)" fill="#fff" opacity="0.7"/></g><g transform="translate(370.347 157.863)"><path d="M344.117,193.938c-12.68,0-25.208-6.478-29.67-10.852A78.321,78.321,0,0,1,297.81,140.9c2.609.252,5.218.378,7.777.378,19.372,0,31.951-7.336,35.291-9.579,4.311,27.174,25.926,43.9,29.657,46.635-4.109,6.239-11.344,11.268-21.427,14.936-.492.189-1,.353-1.5.5A32.505,32.505,0,0,1,344.117,193.938Z" transform="translate(-297.104 -130.54)" fill="#fafafa"/><path d="M340.582,133.112c4.537,25.725,24.326,41.946,29.229,45.614-4.084,5.861-11.041,10.613-20.733,14.129-.466.176-.933.328-1.412.479a33.273,33.273,0,0,1-3.4.164c-12.427,0-24.691-6.3-29.128-10.6a77.7,77.7,0,0,1-16.385-40.975c2.357.2,4.714.3,7.02.3,18.364,0,30.439-6.3,34.85-9.113m1.008-2.332s-13.058,10.083-35.858,10.083a80.869,80.869,0,0,1-8.52-.466,79.405,79.405,0,0,0,16.9,43.421c4.739,4.638,17.532,11.054,30.149,11.054a32.58,32.58,0,0,0,3.68-.2c.529-.151,1.071-.34,1.6-.529,8.382-3.038,17.267-7.953,22.133-15.755C371.714,178.385,345.889,161.105,341.628,130.78Z" transform="translate(-297.25 -130.78)" fill="#e0e0e0"/><path d="M333.3,137.4l4.55,13.637a25.447,25.447,0,0,1-13.411,6.3l-4.147-14.255A37.107,37.107,0,0,0,333.3,137.4Z" transform="translate(-291.251 -129.056)" fill="#407bff"/><path d="M333.3,137.4l4.55,13.637a25.447,25.447,0,0,1-13.411,6.3l-4.147-14.255A37.107,37.107,0,0,0,333.3,137.4Z" transform="translate(-291.251 -129.056)" fill="#fff" opacity="0.7"/><path d="M304.12,144.64a85.821,85.821,0,0,0,18.3-1.79" transform="translate(-295.461 -127.637)" fill="none" stroke="#e0e0e0" stroke-linecap="round" stroke-linejoin="round" stroke-width="0.813"/><path d="M305.43,150.443a86.881,86.881,0,0,0,18.364-2.143" transform="translate(-295.12 -126.218)" fill="none" stroke="#e0e0e0" stroke-linecap="round" stroke-linejoin="round" stroke-width="0.813"/><path d="M307.54,156.2a86.285,86.285,0,0,0,17.645-2.433" transform="translate(-294.571 -124.794)" fill="none" stroke="#e0e0e0" stroke-linecap="round" stroke-linejoin="round" stroke-width="0.813"/><path d="M310.34,163.183c13.6-.907,24.653-3.945,32.342-9.793" transform="translate(-293.842 -124.893)" fill="none" stroke="#e0e0e0" stroke-linecap="round" stroke-linejoin="round" stroke-width="0.813"/><path d="M313.72,168.479c13.574-1.2,24.552-4.474,32.127-10.5" transform="translate(-292.961 -123.697)" fill="none" stroke="#e0e0e0" stroke-linecap="round" stroke-linejoin="round" stroke-width="0.813"/><path d="M317.55,173.365c13.562-1.5,24.477-5.042,31.913-11.2" transform="translate(-291.964 -122.609)" fill="none" stroke="#e0e0e0" stroke-linecap="round" stroke-linejoin="round" stroke-width="0.813"/><path d="M321.73,177.715c13.537-1.777,24.376-5.546,31.686-11.885" transform="translate(-290.876 -121.653)" fill="none" stroke="#e0e0e0" stroke-linecap="round" stroke-linejoin="round" stroke-width="0.813"/><path d="M326.14,181.464c13.511-2.08,24.288-6.075,31.51-12.6" transform="translate(-289.727 -120.864)" fill="none" stroke="#e0e0e0" stroke-linecap="round" stroke-linejoin="round" stroke-width="0.813"/><path d="M344.459,183.712c-6.756.315-11.344-6.3-11.936-10.852-4.071,2.521-14.331,4.235-21.893,0C317.4,180.334,336.682,185.514,344.459,183.712Z" transform="translate(-293.766 -119.823)" fill="#ebebeb"/><path d="M332.727,138.75a44.63,44.63,0,0,1-11.407,5.042l.832,3.138s0-1.55.832-1.815c2.117-.693,4.084-1.487,4.084-1.487s2.1,6.214,2.382,7.562a2.332,2.332,0,0,1-1.613,2.924l.29.618a27.728,27.728,0,0,0,5.571-2.8l-.24-.492s-2.143.832-2.773-.769-2.433-7.562-2.433-7.562,2.849-1.424,3.529-1.815a1.676,1.676,0,0,1,2.206.668Z" transform="translate(-290.982 -128.705)" fill="#fff" opacity="0.7"/></g><g transform="translate(436.694 152.746)"><path d="M415.418,160.864a67.608,67.608,0,0,0-25.674-34.144s-24.5,22.927-39.854,30.073a58.343,58.343,0,0,1,23.947,32.884C386.958,185.769,408.763,172.245,415.418,160.864Z" transform="translate(-349.89 -126.72)" fill="#f5f5f5"/><path d="M388.732,130.1A65.541,65.541,0,0,1,410.5,159.543c-6.226,9.113-23.33,20.355-35.669,24.981a62.426,62.426,0,0,0-19.99-28.082C367.545,148.968,383.211,135.116,388.732,130.1Z" transform="translate(-348.601 -125.84)" fill="#407bff"/><path d="M388.732,130.1A65.541,65.541,0,0,1,410.5,159.543c-6.226,9.113-23.33,20.355-35.669,24.981a62.426,62.426,0,0,0-19.99-28.082C367.545,148.968,383.211,135.116,388.732,130.1Z" transform="translate(-348.601 -125.84)" fill="#fff" opacity="0.7"/><path d="M379.7,162.966a26.1,26.1,0,0,0-8.583-10.726,42.474,42.474,0,0,0,15.125-6.63S387.644,152.983,379.7,162.966Z" transform="translate(-344.362 -121.801)" fill="#fff" opacity="0.7"/></g><g transform="translate(385.787 40.113)"><g transform="translate(0 87.337)"><path d="M310.219,230.368A.681.681,0,0,1,309.6,230a.706.706,0,0,1,.265-.983l1.588-.92a.725.725,0,1,1,.718,1.26l-1.588.92a.756.756,0,0,1-.366.088Z" transform="translate(-309.5 -75.05)" fill="#455a64"/><path d="M315.618,240.355a.681.681,0,0,1-.618-.365.693.693,0,0,1,.265-.97l3.126-1.815a.725.725,0,0,1,.718,1.26l-3.126,1.8a.755.755,0,0,1-.366.088Zm8.331-4.815a.731.731,0,0,1-.618-.353.718.718,0,0,1,.265-.983l3.126-1.8a.725.725,0,0,1,.718,1.26l-3.126,1.8a.643.643,0,0,1-.366.076Zm8.344-4.815a.718.718,0,0,1-.366-1.336l3.126-1.8a.725.725,0,0,1,.718,1.26l-3.1,1.79a.731.731,0,0,1-.378.088Zm8.331-4.8a.718.718,0,0,1-.353-1.349l3.126-1.8a.706.706,0,0,1,.983.265.731.731,0,0,1-.265.983l-3.126,1.8a.757.757,0,0,1-.365.1Zm8.331-4.815a.744.744,0,0,1-.618-.366.718.718,0,0,1,.265-.983l3.126-1.8a.725.725,0,0,1,.718,1.26l-3.126,1.8a.757.757,0,0,1-.365.088Zm8.344-4.815a.718.718,0,0,1-.63-.365.731.731,0,0,1,.265-.983l3.126-1.8a.718.718,0,0,1,.983.265.706.706,0,0,1-.265.983l-3.126,1.8a.755.755,0,0,1-.353.1Zm8.331-4.815a.693.693,0,0,1-.618-.353.706.706,0,0,1,.265-.983l3.126-1.815a.725.725,0,0,1,.719,1.26l-3.138,1.8a.579.579,0,0,1-.353.088Zm8.331-4.815a.718.718,0,0,1-.353-1.336l3.126-1.8a.725.725,0,1,1,.718,1.26l-3.126,1.84a.744.744,0,0,1-.366,0Zm8.344-4.815a.718.718,0,0,1-.366-1.336l3.126-1.8a.725.725,0,0,1,.718,1.26l-3.126,1.8a.731.731,0,0,1-.353.076Zm8.344-4.8a.706.706,0,0,1-.618-.365.718.718,0,0,1,.252-.983l3.138-1.8a.706.706,0,0,1,.97.265.718.718,0,0,1-.252.983l-3.138,1.8a.68.68,0,0,1-.353.1Zm8.331-4.815a.72.72,0,0,1-.353-1.349l3.126-1.8a.718.718,0,0,1,.983.265.731.731,0,0,1-.265.983l-3.126,1.8a.756.756,0,0,1-.378.1Zm8.344-4.815a.718.718,0,0,1-.63-.365.706.706,0,0,1,.265-.971l3.126-1.815a.731.731,0,0,1,.983.265.718.718,0,0,1-.265.983l-3.126,1.8a.63.63,0,0,1-.366.1Zm8.331-4.815a.693.693,0,0,1-.618-.353.718.718,0,0,1,.252-.983l3.126-1.8a.725.725,0,0,1,.718,1.26l-3.126,1.815a.693.693,0,0,1-.365.063Zm8.331-4.815a.718.718,0,0,1-.353-1.336l3.126-1.8a.706.706,0,0,1,.983.265.731.731,0,0,1-.265.983l-3.126,1.8a.744.744,0,0,1-.378.088Z" transform="translate(-308.093 -88.969)" fill="#455a64"/><path d="M408.21,174.18a.744.744,0,0,1-.63-.365.718.718,0,0,1,.265-.983l1.26-.718v-1.424a.731.731,0,0,1,.718-.718.718.718,0,0,1,.718.718v1.84a.731.731,0,0,1-.353.63l-1.6.92a.756.756,0,0,1-.378.1Z" transform="translate(-283.985 -90.162)" fill="#455a64"/><path d="M409.468,179.751a.718.718,0,0,1-.718-.718v-3.781a.718.718,0,0,1,.718-.718.706.706,0,0,1,.718.718v3.781a.706.706,0,0,1-.718.718Zm0-10.222a.731.731,0,0,1-.718-.718V165.03a.718.718,0,0,1,.718-.718.706.706,0,0,1,.718.718v3.781a.719.719,0,0,1-.718.769Zm0-10.222a.731.731,0,0,1-.718-.718v-3.781a.731.731,0,0,1,.719-.731.718.718,0,0,1,.718.731v3.781a.718.718,0,0,1-.718.769Zm0-10.222a.731.731,0,0,1-.718-.718v-3.781a.731.731,0,0,1,.718-.718.718.718,0,0,1,.718.718v3.781a.719.719,0,0,1-.718.769Zm0-10.234a.718.718,0,0,1-.718-.718v-3.781a.731.731,0,0,1,.718-.718.718.718,0,0,1,.718.718v3.781a.706.706,0,0,1-.718.769Zm0-10.222a.718.718,0,0,1-.718-.718V124.13a.718.718,0,0,1,.718-.718.706.706,0,0,1,.718.718v3.781a.706.706,0,0,1-.718.769Zm0-10.222a.731.731,0,0,1-.718-.718v-3.781a.718.718,0,0,1,.718-.718.706.706,0,0,1,.718.718v3.781a.719.719,0,0,1-.718.769Z" transform="translate(-283.656 -104.947)" fill="#455a64"/><path d="M409.468,109.94a.731.731,0,0,1-.718-.718v-1.853a.731.731,0,0,1,.718-.718.718.718,0,0,1,.718.718v1.853A.718.718,0,0,1,409.468,109.94Z" transform="translate(-283.656 -106.65)" fill="#455a64"/></g><g transform="translate(52.849)"><path d="M469.882,70.131h0l-.29-.164-.176-.113-6.491-3.781v-.454c0-7.953-2.685-13.537-6.894-15.881h0l-12.465-7.2h0c-3.428-1.979-7.89-1.79-12.78,1.034a28.876,28.876,0,0,0-6.163,4.878,13.032,13.032,0,0,0-2.7-2.13h0L409.9,39.428h0c-4.411-2.924-10.31-2.861-16.814.882-13.637,7.877-24.7,28.989-24.7,47.2a37.552,37.552,0,0,0,.466,6.012l-1.714.983c-8.672,5.042-15.7,18.452-15.7,30.023h0c0,6.39,2.143,10.953,5.533,12.906h0l12.6,7.285h0c2.735,1.563,6.3,1.449,10.146-.794l22.851-13.184L463.441,95.6c5.218-3.012,9.44-11.079,9.44-18.024h0C472.894,73.95,471.722,71.354,469.882,70.131Z" transform="translate(-351.43 -37.356)" fill="#407bff" opacity="0.8"/><path d="M469.882,70.131h0l-.29-.164-.176-.113-6.491-3.781v-.454c0-7.953-2.685-13.537-6.894-15.881h0l-12.465-7.2h0c-3.428-1.979-7.89-1.79-12.78,1.034a28.876,28.876,0,0,0-6.163,4.878,13.032,13.032,0,0,0-2.7-2.13h0L409.9,39.428h0c-4.411-2.924-10.31-2.861-16.814.882-13.637,7.877-24.7,28.989-24.7,47.2a37.552,37.552,0,0,0,.466,6.012l-1.714.983c-8.672,5.042-15.7,18.452-15.7,30.023h0c0,6.39,2.143,10.953,5.533,12.906h0l12.6,7.285h0c2.735,1.563,6.3,1.449,10.146-.794l22.851-13.184L463.441,95.6c5.218-3.012,9.44-11.079,9.44-18.024h0C472.894,73.95,471.722,71.354,469.882,70.131Z" transform="translate(-351.43 -37.356)" fill="#fff" opacity="0.2"/><path d="M440.963,48.956h0c-3.4-1.9-7.827-1.689-12.6,1.109a29.265,29.265,0,0,0-6.466,5.193l-11.432-6.642-1.122-.643.277-.29a29.759,29.759,0,0,1,6.163-4.89c4.89-2.811,9.352-3,12.78-1.021h0Z" transform="translate(-336.351 -36.549)" fill="#fff" opacity="0.35"/><path d="M409.577,46.19a11.749,11.749,0,0,1,.844.933L409.3,46.48Z" transform="translate(-336.361 -35.056)" fill="#fff" opacity="0.8"/><path d="M416.384,46.182h0c-4.3-2.395-9.869-2.117-15.957,1.4s-11.848,9.881-16.183,17.393l-12.6-7.247c4.323-7.562,9.982-13.864,16.171-17.406,6.491-3.781,12.4-3.781,16.814-.882h0Z" transform="translate(-346.168 -37.354)" fill="#fff" opacity="0.35"/><path d="M381.016,89.2l-1.7.971c-5.873,3.4-11.016,10.676-13.7,18.616l-12.6-7.26a38.14,38.14,0,0,1,10.222-16.1l5.18-3.491Z" transform="translate(-351.019 -25.747)" fill="#fff" opacity="0.35"/><path d="M460.855,68.963l-.895.517a40.325,40.325,0,0,0,.378-5.331c0-14.394-8.76-21.011-19.549-14.772-5.042,2.886-9.579,8.041-13.032,14.167-.492-17.33-11.344-25.208-24.678-17.456-13.637,7.877-24.7,28.989-24.7,47.2a39.275,39.275,0,0,0,.454,6.025l-1.7.971c-8.672,5.042-15.717,18.465-15.717,30.035h0c0,11.57,7.046,17.141,15.717,12.125l22.838-13.2h0l60.877-35.14c5.218-3.012,9.44-11.079,9.44-18.024h0C470.3,69.152,466.073,65.951,460.855,68.963Z" transform="translate(-348.831 -35.86)" fill="#407bff"/><path d="M460.855,68.963l-.895.517a40.325,40.325,0,0,0,.378-5.331c0-14.394-8.76-21.011-19.549-14.772-5.042,2.886-9.579,8.041-13.032,14.167-.492-17.33-11.344-25.208-24.678-17.456-13.637,7.877-24.7,28.989-24.7,47.2a39.275,39.275,0,0,0,.454,6.025l-1.7.971c-8.672,5.042-15.717,18.465-15.717,30.035h0c0,11.57,7.046,17.141,15.717,12.125l22.838-13.2h0l60.877-35.14c5.218-3.012,9.44-11.079,9.44-18.024h0C470.3,69.152,466.073,65.951,460.855,68.963Z" transform="translate(-348.831 -35.86)" fill="#fff" opacity="0.7"/><path d="M370.3,140.4c-3.869,0-6.3-4.222-6.3-10.751,0-10.36,6.453-22.826,14.1-27.237l1.7-.983a3.227,3.227,0,0,0,1.576-3.29h0a35.294,35.294,0,0,1-.416-5.521c0-17.141,10.348-37.056,23.09-44.416a16.574,16.574,0,0,1,8.193-2.521c6.882,0,11.344,6.617,11.646,17.28h0a3.214,3.214,0,0,0,6.025,1.487h0c3.315-5.861,7.562-10.461,11.848-12.957a12.428,12.428,0,0,1,6.151-1.916c5.205,0,8.558,5.458,8.558,13.864a37.027,37.027,0,0,1-.34,4.9h0a3.214,3.214,0,0,0,4.8,3.214l.895-.517a4.55,4.55,0,0,1,2.13-.693c1.714,0,2.521,2.521,2.521,5.042,0,5.81-3.58,12.78-7.814,15.238l-83.829,48.361a9.2,9.2,0,0,1-4.512,1.412Z" transform="translate(-348.157 -35.189)" fill="#fff" opacity="0.7"/></g></g></g></svg>