<svg id="Layer_1" data-name="Layer 1" xmlns="http://www.w3.org/2000/svg" viewBox="0 0 190.31 55.49"><defs><style>.cls-1{fill:#2689c9;}.cls-1,.cls-2,.cls-3{fill-rule:evenodd;}.cls-2{fill:#fff;}.cls-3{fill:#6ab6e5;}</style></defs><title>dana</title><path class="cls-1" d="M58.09,15.15A27.13,27.13,0,0,0,37,28.38,28.13,28.13,0,0,0,33.08,45a27.39,27.39,0,0,0,29.44,25.5c14.3-1.14,26.1-14,24.89-29.83a27.53,27.53,0,0,0-5.68-14.88,26.79,26.79,0,0,0-3.28-3.59A28.26,28.26,0,0,0,70,16.89,26.81,26.81,0,0,0,58.09,15.15Z" transform="translate(-33 -15.05)"/><path class="cls-2" d="M44.47,34.71c-.35,1-.14,12.17-.14,14.24,0,2.24-.44,2.94,3.06,4.14,9.28,3.18,18.48-7.59,27.71-2.26.43.25,1,.75,1.07-.07V36.4c0-1.55.14-2-.88-2.75-8.26-5.75-17.21,4.09-25.59,3C46.6,36.23,45.31,34.65,44.47,34.71Z" transform="translate(-33 -15.05)"/><path class="cls-1" d="M108.24,56.86c3.62.25,7.84-2.55,9.32-4.16a14.19,14.19,0,0,0,.09-19.51c-1.93-2.17-6.46-4.58-9.35-4.24H97.87V56.82l10.37,0Zm-4.51-6V35a38.06,38.06,0,0,1,4.89,0,7.53,7.53,0,0,1,3.55,1.38c6,4.08,3.48,13.82-3.65,14.47A36.45,36.45,0,0,1,103.73,50.82Z" transform="translate(-33 -15.05)"/><path class="cls-1" d="M199.59,56.91h5.93v-6H217.3l0,6h5.93V47c0-3,.25-6.72-.49-9.42a11.77,11.77,0,0,0-22.66-.13c-.8,2.67-.53,6.5-.53,9.44,0,3.35,0,6.72,0,10.07Zm5.94-12c0-2.52-.3-5.16.87-7.08a5.79,5.79,0,0,1,5.06-2.87,5.88,5.88,0,0,1,5,2.9c1.16,2,.88,4.48.85,7Z" transform="translate(-33 -15.05)"/><path class="cls-1" d="M131.74,56.9h5.91a53.82,53.82,0,0,1,.06-6h11.72l0,6h5.92c0-3.33,0-6.65,0-10,0-2.84.27-6.91-.48-9.43a11.77,11.77,0,0,0-22.66-.11c-.79,2.59-.52,6.55-.52,9.43,0,3.33-.08,6.75,0,10.06Zm5.91-12c0-2.48-.29-5.2.88-7.07a5.84,5.84,0,0,1,10.08,0c1.16,2,.88,4.52.86,7.06Z" transform="translate(-33 -15.05)"/><path class="cls-1" d="M165.8,39.83,165.72,44c0,3.49-.17,10,0,12.84h5.8c.14-2-.21-16.15.16-16.6,0-2.75,2.87-5.31,5.77-5.32a5.79,5.79,0,0,1,4,1.58,5.61,5.61,0,0,1,1.85,3.75c.27.16,0,14.93.14,16.59h5.8l0-16.91a10,10,0,0,0-1.17-4.42,11.73,11.73,0,0,0-21-.15A10.34,10.34,0,0,0,165.8,39.83Z" transform="translate(-33 -15.05)"/><path class="cls-3" d="M108.24,56.86l-10.37,0V29H108.3c-.19-.27-4.54-.11-5.15-.11-1.51,0-3.91-.14-5.32,0-.13.45-.19,27.33,0,28.06,1,.12,7.65,0,9.77,0l.58-.06Z" transform="translate(-33 -15.05)"/><path class="cls-3" d="M183.34,40.24c.06,2.28-.13,15.87.09,16.68l5.91,0c.15-.66.06-11.25.06-12.85,0-.77.2-3.78-.16-4.18l0,16.91h-5.8C183.39,55.17,183.61,40.4,183.34,40.24Z" transform="translate(-33 -15.05)"/><path class="cls-3" d="M171.69,40.23c-.37.45,0,14.61-.16,16.6h-5.8c-.18-2.84,0-9.35,0-12.84l.08-4.16c-.33.14-.18,7.56-.18,8.49,0,1.35-.16,7.83.07,8.61l5.91,0Z" transform="translate(-33 -15.05)"/></svg>