<svg xmlns="http://www.w3.org/2000/svg" width="45.854" height="45.873" viewBox="0 0 45.854 45.873">
  <g id="Layer_25" data-name="Layer 25" transform="translate(-0.026)">
    <rect id="Rectangle_389" data-name="Rectangle 389" width="38.705" height="2.15" transform="translate(6.458 0.717)" fill="#aa7b50"/>
    <rect id="Rectangle_390" data-name="Rectangle 390" width="38.705" height="2.15" transform="translate(6.458 2.867)" fill="#aa7b50"/>
    <path id="Path_3927" data-name="Path 3927" d="M23.2,4l-2.23,2.15L23.2,8.3l-2.23,2.15L23.2,12.6l-2.23,2.15L23.2,16.9l-2.23,2.15L23.2,21.2l-2.23,2.15L23.2,25.5H20.23L18,23.353l2.23-2.15L18,19.052l2.23-2.15L18,14.751l2.23-2.15L18,10.451,20.23,8.3,18,6.15,20.23,4Z" transform="translate(-5.091 -1.133)" fill="#fcd08a"/>
    <path id="Path_3928" data-name="Path 3928" d="M27.351,4l-2.23,2.15,2.23,2.15-2.23,2.15,2.23,2.15-2.23,2.15,2.23,2.15-2.23,2.15,2.23,2.15-2.23,2.15,2.23,2.15H24.378l-2.23-2.15,2.23-2.15-2.23-2.15,2.23-2.15-2.23-2.15,2.23-2.15-2.23-2.15,2.23-2.15-2.23-2.15L24.378,4Z" transform="translate(-6.266 -1.133)" fill="#fcd08a"/>
    <path id="Path_3929" data-name="Path 3929" d="M31.5,4,29.269,6.15,31.5,8.3l-2.231,2.15L31.5,12.6l-2.231,2.15L31.5,16.9l-2.231,2.15L31.5,21.2l-2.231,2.15L31.5,25.5H28.526l-2.23-2.15,2.23-2.15-2.23-2.15,2.23-2.15-2.23-2.15,2.23-2.15-2.23-2.15,2.23-2.15L26.3,6.15,28.526,4Z" transform="translate(-7.441 -1.133)" fill="#fcd08a"/>
    <path id="Path_3930" data-name="Path 3930" d="M35.648,4l-2.23,2.15,2.23,2.15-2.23,2.15,2.23,2.15-2.23,2.15,2.23,2.15-2.23,2.15,2.23,2.15-2.23,2.15,2.23,2.15H32.675l-2.231-2.15,2.231-2.15-2.231-2.15,2.231-2.15-2.231-2.15,2.231-2.15-2.231-2.15L32.675,8.3,30.444,6.15,32.675,4Z" transform="translate(-8.616 -1.133)" fill="#fcd08a"/>
    <path id="Path_3931" data-name="Path 3931" d="M39.8,4l-2.23,2.15L39.8,8.3l-2.23,2.15L39.8,12.6l-2.23,2.15L39.8,16.9l-2.23,2.15L39.8,21.2l-2.23,2.15L39.8,25.5H36.823l-2.23-2.15,2.23-2.15-2.23-2.15,2.23-2.15-2.23-2.15,2.23-2.15-2.23-2.15,2.23-2.15-2.23-2.15L36.823,4Z" transform="translate(-9.791 -1.133)" fill="#fcd08a"/>
    <path id="Path_3932" data-name="Path 3932" d="M43.944,4l-2.23,2.15,2.23,2.15-2.23,2.15,2.23,2.15-2.23,2.15,2.23,2.15-2.23,2.15,2.23,2.15-2.23,2.15,2.23,2.15H40.971l-2.23-2.15,2.23-2.15-2.23-2.15,2.23-2.15-2.23-2.15,2.23-2.15-2.23-2.15,2.23-2.15-2.23-2.15L40.971,4Z" transform="translate(-10.966 -1.133)" fill="#fcd08a"/>
    <path id="Path_3933" data-name="Path 3933" d="M47.422,0H8.717A.717.717,0,0,0,8,.717v4.3a.717.717,0,0,0,.717.717h6.164l1.487,1.434L14.673,8.8a.717.717,0,0,0,0,1.032l1.692,1.634L14.67,13.1a.717.717,0,0,0,0,1.032l1.7,1.634L14.67,17.4a.717.717,0,0,0,0,1.032l1.7,1.634-.209.2a.717.717,0,0,0,1,1.032l.743-.717a.717.717,0,0,0,0-1.032l-1.7-1.634,1.7-1.634a.717.717,0,0,0,0-1.032l-1.7-1.634,1.7-1.634a.717.717,0,0,0,0-1.032L16.2,9.318l1.7-1.634a.717.717,0,0,0,0-1.032L16.2,5.017l1.487-1.434h.907l-.951.917a.717.717,0,0,0,0,1.032l1.694,1.634L17.643,8.8a.717.717,0,0,0,0,1.032l1.694,1.634L17.643,13.1a.717.717,0,0,0,0,1.032l1.694,1.634L17.643,17.4a.717.717,0,0,0,0,1.032l1.694,1.634-.208.2a.717.717,0,1,0,1,1.032l.743-.717a.717.717,0,0,0,0-1.032l-1.694-1.634,1.694-1.634a.717.717,0,0,0,0-1.032l-1.694-1.634,1.694-1.634a.717.717,0,0,0,0-1.032L19.174,9.318l1.694-1.634a.717.717,0,0,0,0-1.032L19.174,5.017,20.66,3.584h.907l-.953.917a.717.717,0,0,0,0,1.032l1.7,1.634L20.615,8.8a.717.717,0,0,0,0,1.032l1.7,1.634-1.7,1.634a.717.717,0,0,0,0,1.032l1.7,1.634-1.7,1.634a.717.717,0,0,0,0,1.032l1.7,1.634-.209.2A.717.717,0,1,0,23.1,21.3l.744-.717a.717.717,0,0,0,0-1.032l-1.7-1.634,1.694-1.634a.717.717,0,0,0,0-1.032l-1.694-1.634,1.694-1.634a.717.717,0,0,0,0-1.032L22.146,9.318,23.84,7.684a.717.717,0,0,0,0-1.032L22.146,5.017l1.487-1.434h.908L23.59,4.5a.717.717,0,0,0,0,1.032l1.7,1.634L23.59,8.8a.717.717,0,0,0,0,1.032l1.7,1.634L23.59,13.1a.717.717,0,0,0,0,1.032l1.7,1.634L23.59,17.4a.717.717,0,0,0,0,1.032l1.7,1.634-.209.2a.717.717,0,0,0-.018,1.014.71.71,0,0,0,.237.163.727.727,0,0,0,.1.02.692.692,0,0,0,.177.037h.006a.748.748,0,0,0,.166-.032.8.8,0,0,0,.094-.018.722.722,0,0,0,.237-.151l.743-.717a.717.717,0,0,0,0-1.032l-1.7-1.634,1.7-1.634a.717.717,0,0,0,0-1.032l-1.7-1.634,1.7-1.634a.717.717,0,0,0,0-1.032l-1.7-1.634,1.7-1.634a.717.717,0,0,0,0-1.032l-1.7-1.634,1.487-1.434h.908l-.95.917a.717.717,0,0,0,0,1.032l1.694,1.634L26.564,8.8a.717.717,0,0,0,0,1.032l1.694,1.634L26.564,13.1a.717.717,0,0,0,0,1.032l1.694,1.634L26.564,17.4a.717.717,0,0,0,0,1.032l1.694,1.634-.209.2a.717.717,0,0,0,.219,1.176.748.748,0,0,0,.09.019.726.726,0,0,0,.181.036h.006a.721.721,0,0,0,.168-.032.677.677,0,0,0,.092-.017.727.727,0,0,0,.237-.151l.743-.717a.717.717,0,0,0,0-1.032l-1.7-1.633,1.7-1.634a.717.717,0,0,0,0-1.032l-1.7-1.634,1.7-1.634a.717.717,0,0,0,0-1.032l-1.7-1.634,1.7-1.634a.717.717,0,0,0,0-1.032l-1.7-1.634L29.58,3.584h.907l-.951.917a.717.717,0,0,0,0,1.032l1.694,1.634L29.537,8.8a.717.717,0,0,0,0,1.032l1.694,1.634L29.537,13.1a.717.717,0,0,0,0,1.032l1.694,1.634L29.537,17.4a.717.717,0,0,0,0,1.032l1.694,1.634-.209.2a.717.717,0,1,0,1,1.032l.743-.717a.717.717,0,0,0,0-1.032l-1.694-1.634,1.694-1.634a.717.717,0,0,0,0-1.032l-1.694-1.634,1.694-1.634a.717.717,0,0,0,0-1.032L31.067,9.318l1.694-1.634a.717.717,0,0,0,0-1.032L31.067,5.017l1.486-1.434h.908l-.952.917a.717.717,0,0,0,0,1.032l1.7,1.634L32.509,8.8a.717.717,0,0,0,0,1.032l1.7,1.634-1.7,1.634a.717.717,0,0,0,0,1.032l1.7,1.634-1.7,1.634a.717.717,0,0,0,0,1.032l1.7,1.634-.182.176a.717.717,0,1,0,.995,1.031l.717-.691a.717.717,0,0,0,0-1.032l-1.7-1.634,1.7-1.634a.717.717,0,0,0,0-1.032l-1.7-1.634,1.7-1.634a.717.717,0,0,0,0-1.032l-1.7-1.634,1.7-1.634a.717.717,0,0,0,0-1.032l-1.7-1.634,1.484-1.434H46.705V4.3H34.785l-.745.717.745.717H47.422a.717.717,0,0,0,.717-.717V.717A.717.717,0,0,0,47.422,0ZM9.434,3.584h6.188l-.74.717H9.434Zm25.8-1.434H9.434V1.434H46.705V2.15Z" transform="translate(-2.259)"/>
    <path id="Path_3934" data-name="Path 3934" d="M1.025,33a22.213,22.213,0,0,0,44.4,0Z" transform="translate(-0.283 -9.347)" fill="#c73b40"/>
    <path id="Path_3935" data-name="Path 3935" d="M51.627,33A22.22,22.22,0,0,1,30.5,54.476q.535.027,1.075.027A22.22,22.22,0,0,0,53.777,33Z" transform="translate(-8.632 -9.347)" fill="#d26266"/>
    <path id="Path_3936" data-name="Path 3936" d="M22.944,54.936A22.827,22.827,0,0,1,.026,32.74.717.717,0,0,1,.743,32h44.4a.717.717,0,0,1,.717.74,22.827,22.827,0,0,1-22.919,22.2ZM1.494,33.434a21.5,21.5,0,0,0,42.9,0Z" transform="translate(0 -9.064)"/>
  </g>
</svg>
