<svg xmlns="http://www.w3.org/2000/svg" width="47.679" height="53.275" viewBox="0 0 47.679 53.275">
  <g id="iconfinder_ilustracoes_04-10_1519778" transform="translate(-58.6 -34.7)">
    <path id="Path_3865" data-name="Path 3865" d="M432.345,299.39a1.245,1.245,0,1,1,1.245-1.245A1.243,1.243,0,0,1,432.345,299.39Zm0-1.644a.4.4,0,1,0,.4.4A.4.4,0,0,0,432.345,297.746Z" transform="translate(-327.48 -230.511)" fill="#f16723"/>
    <circle id="Ellipse_198" data-name="Ellipse 198" cx="0.254" cy="0.254" r="0.254" transform="translate(61.029 77.037)"/>
    <circle id="Ellipse_199" data-name="Ellipse 199" cx="0.254" cy="0.254" r="0.254" transform="translate(59.615 50.545)"/>
    <circle id="Ellipse_200" data-name="Ellipse 200" cx="0.254" cy="0.254" r="0.254" transform="translate(105.179 47.028)"/>
    <circle id="Ellipse_201" data-name="Ellipse 201" cx="0.254" cy="0.254" r="0.254" transform="translate(73.937 34.869)"/>
    <circle id="Ellipse_202" data-name="Ellipse 202" cx="0.254" cy="0.254" r="0.254" transform="translate(103.451 63.646)"/>
    <circle id="Ellipse_203" data-name="Ellipse 203" cx="0.254" cy="0.254" r="0.254" transform="translate(105.772 75.055)"/>
    <path id="Path_3866" data-name="Path 3866" d="M87.738,49.076a1.438,1.438,0,1,1,1.438-1.438A1.434,1.434,0,0,1,87.738,49.076Zm0-2.03a.592.592,0,1,0,.592.592A.593.593,0,0,0,87.738,47.046Z" transform="translate(-24.352 -10.11)" fill="#fbd20a"/>
    <path id="Path_3867" data-name="Path 3867" d="M60.715,317.946h-.423v-.423a.423.423,0,1,0-.846,0v.423h-.423a.423.423,0,0,0,0,.846h.423v.423a.423.423,0,0,0,.846,0v-.423h.423a.423.423,0,0,0,0-.846Z" transform="translate(0 -248.269)" fill="#f16723"/>
    <circle id="Ellipse_204" data-name="Ellipse 204" cx="0.375" cy="0.375" r="0.375" transform="translate(103.717 43.656)"/>
    <path id="Path_3868" data-name="Path 3868" d="M423.415,395.646h-.423v-.423a.423.423,0,0,0-.846,0v.423h-.423a.423.423,0,0,0,0,.846h.423v.423a.423.423,0,1,0,.846,0v-.423h.423a.423.423,0,1,0,0-.846Z" transform="translate(-318.864 -316.578)" fill="#4e9bd4"/>
    <path id="Path_3869" data-name="Path 3869" d="M146.835,79.659l-.3-.157V70.8H115.484A4.482,4.482,0,0,0,111,75.284h0c0,.145.012.278.024.411H111v39.654a3.564,3.564,0,0,0,3.565,3.565h28.885a3.564,3.564,0,0,0,3.565-3.565V79.671Z" transform="translate(-46.067 -31.737)" fill="#fff"/>
    <path id="Path_3870" data-name="Path 3870" d="M182.288,79.659l-.254-.157V70.8H155.18c-2.139,0-3.88,2.006-3.88,4.484h0c0,.145.012.278.012.411H151.3v39.654a3.348,3.348,0,0,0,3.082,3.565h24.982a3.348,3.348,0,0,0,3.082-3.565V79.671Z" transform="translate(-81.496 -31.737)" fill="#3769a5"/>
    <path id="Path_3871" data-name="Path 3871" d="M161.536,79.659l-.254-.157V70.8H135c-2.091,0-3.795,2.006-3.795,4.484h0c0,.145.012.278.012.411H131.2v39.654a3.327,3.327,0,0,0,3.022,3.565h24.462a3.327,3.327,0,0,0,3.021-3.565V79.671Z" transform="translate(-63.826 -31.737)" fill="#4e9bd4"/>
    <path id="Path_3872" data-name="Path 3872" d="M153.654,94.5V89.183a1.591,1.591,0,0,0-1.6-1.583H122.75a3.647,3.647,0,0,0-3.65,3.65v1.559a5.483,5.483,0,0,0,4.037,1.68C125.917,94.6,153.654,94.5,153.654,94.5Z" transform="translate(-53.188 -46.507)" fill="#fff"/>
    <path id="Path_3873" data-name="Path 3873" d="M138.123,372.01a.428.428,0,0,1-.423-.423v-3.964a.423.423,0,0,1,.846,0v3.964A.428.428,0,0,1,138.123,372.01Z" transform="translate(-69.54 -292.314)" fill="#fff"/>
    <path id="Path_3874" data-name="Path 3874" d="M105.725,204.9a.727.727,0,0,1-.725-.725v-2.55a.725.725,0,1,1,1.45,0v2.55A.727.727,0,0,1,105.725,204.9Z" transform="translate(-40.792 -146.113)"/>
    <g id="Group_283" data-name="Group 283" transform="translate(64.208 38.326)">
      <path id="Path_3875" data-name="Path 3875" d="M141.741,245.669a.727.727,0,0,0-.725.725v14.261a2.837,2.837,0,0,1-2.84,2.84H109.291a2.837,2.837,0,0,1-2.84-2.84v-23.93a.725.725,0,1,0-1.45,0v23.93a4.291,4.291,0,0,0,4.291,4.291h28.886a4.291,4.291,0,0,0,4.29-4.291V246.394A.727.727,0,0,0,141.741,245.669Z" transform="translate(-105 -215.297)"/>
      <path id="Path_3876" data-name="Path 3876" d="M142.454,74.284V74.26a.285.285,0,0,0-.024-.1v-.012c-.012-.024-.024-.06-.036-.085a.012.012,0,0,0-.012-.012c-.012-.024-.036-.06-.048-.085l-.012-.012a.321.321,0,0,0-.06-.073.012.012,0,0,0-.012-.012.321.321,0,0,0-.073-.06l-.012-.012a.2.2,0,0,0-.085-.048h0c-.024-.012-.06-.024-.085-.036h-.012V65.425a.727.727,0,0,0-.725-.725H110.209A5.21,5.21,0,0,0,105,69.909c0,.121,0,.242.012.363A.542.542,0,0,0,105,70.4v9.741a.725.725,0,1,0,1.45,0V73.511a5.2,5.2,0,0,0,3.759,1.607h30.807v18.89a.725.725,0,0,0,1.45,0V74.393A.335.335,0,0,0,142.454,74.284Zm-1.922-.616H110.209a3.734,3.734,0,0,1-2.78-1.233V71.13a2.935,2.935,0,0,1,2.925-2.925h29.308a.864.864,0,0,1,.87.858Zm0-6.744a2.325,2.325,0,0,0-.87-.169H110.354a4.387,4.387,0,0,0-3.771,2.151,3.766,3.766,0,0,1,3.626-2.756h30.324Z" transform="translate(-105 -64.7)"/>
    </g>
    <path id="Path_3877" data-name="Path 3877" d="M138.123,163.319a.428.428,0,0,1-.423-.423,3.4,3.4,0,0,1,3.4-3.4.423.423,0,1,1,0,.846,2.558,2.558,0,0,0-2.55,2.55A.428.428,0,0,1,138.123,163.319Z" transform="translate(-69.54 -109.717)" fill="#fff"/>
    <path id="Path_3878" data-name="Path 3878" d="M138.123,198.511a.428.428,0,0,1-.423-.423v-.665a.423.423,0,0,1,.846,0v.665A.428.428,0,0,1,138.123,198.511Z" transform="translate(-69.54 -142.684)" fill="#fff"/>
    <path id="Path_3879" data-name="Path 3879" d="M213.231,211.249H202.39a1.39,1.39,0,0,1-1.39-1.39V204.59a1.39,1.39,0,0,1,1.39-1.39h10.841a1.39,1.39,0,0,1,1.39,1.39v5.269A1.39,1.39,0,0,1,213.231,211.249Z" transform="translate(-125.19 -148.135)" fill="#fff"/>
    <path id="Path_3880" data-name="Path 3880" d="M207.956,206.7H197.115A2.125,2.125,0,0,1,195,204.585v-5.27a2.125,2.125,0,0,1,2.115-2.115h10.841a2.125,2.125,0,0,1,2.115,2.115v5.27A2.125,2.125,0,0,1,207.956,206.7Zm-10.841-8.049a.671.671,0,0,0-.665.665v5.27a.671.671,0,0,0,.665.665h10.841a.671.671,0,0,0,.665-.665v-5.27a.671.671,0,0,0-.665-.665Z" transform="translate(-119.915 -142.86)"/>
    <path id="Path_3881" data-name="Path 3881" d="M352.515,35.546h-.423v-.423a.423.423,0,1,0-.846,0v.423h-.423a.423.423,0,1,0,0,.846h.423v.423a.423.423,0,1,0,.846,0v-.423h.423a.423.423,0,0,0,0-.846Z" transform="translate(-256.533)" fill="#fbd20a"/>
  </g>
</svg>
