<?xml version="1.0" encoding="UTF-8" standalone="no"?><!-- Generator: Gravit.io --><svg xmlns="http://www.w3.org/2000/svg" xmlns:xlink="http://www.w3.org/1999/xlink" style="isolation:isolate" viewBox="0 0 512 512" width="512pt" height="512pt"><defs><clipPath id="_clipPath_zDlAhNR2T3K3dQUYqT2YqkOguozImc8T"><rect width="512" height="512"/></clipPath></defs><g clip-path="url(#_clipPath_zDlAhNR2T3K3dQUYqT2YqkOguozImc8T)"><path d=" M 142.937 94.6 L 365.691 94.6 L 420.011 144.477 L 420.011 406.244 C 420.011 415.927 412.15 423.788 402.467 423.788 L 142.937 423.788 C 133.254 423.788 125.393 415.927 125.393 406.244 L 125.393 112.143 C 125.393 102.461 133.254 94.6 142.937 94.6 Z " fill="rgb(195,188,188)" vector-effect="non-scaling-stroke" stroke-width="4" stroke="rgb(0,0,0)" stroke-linejoin="miter" stroke-linecap="square" stroke-miterlimit="3"/><path d=" M 365.691 144.477 L 420.011 144.477 L 365.691 94.6 L 365.691 144.477 Z " fill="rgb(125,116,116)" vector-effect="non-scaling-stroke" stroke-width="2" stroke="rgb(0,0,0)" stroke-linejoin="miter" stroke-linecap="square" stroke-miterlimit="3"/><path d=" M 338.615 180.608 C 337.707 180.608 336.856 180.385 336.005 179.994 C 314.277 168.93 295.385 164.18 272.806 164.18 C 250.284 164.18 229.066 169.488 209.607 179.938 C 206.827 181.391 203.423 180.441 201.891 177.703 C 200.416 174.965 201.381 171.612 204.161 170.103 C 225.322 158.76 248.411 153.004 272.806 153.004 C 296.974 153.004 318.078 158.257 341.224 170.047 C 344.004 171.444 345.082 174.853 343.664 177.591 C 342.643 179.491 340.657 180.608 338.615 180.608 L 338.615 180.608 Z  M 176.249 239.282 C 175.114 239.282 173.979 238.947 172.958 238.276 C 170.405 236.488 169.781 233.024 171.597 230.509 C 182.83 214.863 197.183 202.569 214.202 193.908 C 249.886 175.747 295.499 175.691 331.24 193.796 C 348.202 202.402 362.499 214.583 373.788 230.118 C 375.604 232.632 375.036 236.097 372.483 237.885 C 369.931 239.673 366.356 239.114 364.541 236.6 C 354.329 222.518 341.395 211.454 326.077 203.743 C 293.513 187.258 251.929 187.314 219.421 203.854 C 204.047 211.678 191.056 222.798 180.901 236.991 C 179.766 238.5 178.007 239.282 176.249 239.282 L 176.249 239.282 Z  M 247.22 374.12 C 245.745 374.12 244.327 373.561 243.192 372.443 C 233.377 362.664 228.045 356.462 220.386 342.995 C 212.557 329.248 208.416 312.429 208.416 294.435 C 208.416 261.243 237.235 234.197 272.692 234.197 C 308.15 234.197 336.969 261.187 336.969 294.435 C 336.969 297.509 334.417 300.023 331.296 300.023 C 328.176 300.023 325.623 297.509 325.623 294.435 C 325.623 267.39 301.909 245.373 272.693 245.373 C 243.532 245.373 219.762 267.39 219.762 294.435 C 219.762 310.529 223.393 325.393 230.257 337.519 C 237.576 350.371 242.455 355.903 251.191 364.564 C 253.404 366.744 253.404 370.32 251.134 372.443 C 250.113 373.617 248.638 374.12 247.22 374.12 L 247.22 374.12 Z  M 328.516 353.444 C 315.014 353.444 303.157 350.091 293.343 343.554 C 276.494 332.266 266.395 313.937 266.395 294.491 C 266.395 291.418 268.948 288.903 272.068 288.903 C 275.189 288.903 277.742 291.418 277.742 294.491 C 277.742 310.193 285.968 325.057 299.754 334.278 C 307.753 339.642 317.17 342.268 328.516 342.268 C 331.24 342.268 335.835 341.989 340.373 341.207 C 343.437 340.648 346.387 342.715 346.954 345.733 C 347.522 348.75 345.422 351.656 342.359 352.215 C 335.721 353.388 330.105 353.444 328.516 353.444 L 328.516 353.444 Z  M 305.654 376.523 C 305.143 376.523 304.632 376.467 304.179 376.299 C 286.081 371.437 274.281 364.844 262.027 352.83 C 246.199 337.295 237.462 316.564 237.462 294.491 C 237.462 276.33 253.12 261.578 272.409 261.578 C 291.698 261.578 307.356 276.33 307.356 294.491 C 307.356 306.449 317.964 316.228 330.956 316.228 C 343.947 316.228 354.556 306.505 354.556 294.491 C 354.556 252.358 317.681 218.104 272.352 218.104 C 240.072 218.104 210.628 235.762 197.353 263.143 C 192.928 272.195 190.715 282.756 190.715 294.491 C 190.715 303.208 191.509 316.955 198.261 334.78 C 199.338 337.686 197.863 340.871 194.913 341.989 C 191.963 343.051 188.73 341.598 187.595 338.692 C 182.035 323.996 179.312 309.579 179.312 294.491 C 179.312 281.08 181.922 268.898 187.084 258.337 C 202.232 227.156 235.703 206.984 272.295 206.984 C 323.864 206.984 365.846 246.267 365.846 294.547 C 365.846 312.708 350.131 327.46 330.899 327.46 C 311.667 327.46 295.952 312.708 295.952 294.547 C 295.952 282.589 285.344 272.81 272.352 272.81 C 259.361 272.81 248.752 282.533 248.752 294.547 C 248.752 313.602 256.297 331.539 269.969 344.951 C 280.692 355.456 291.13 361.267 307.129 365.57 C 310.135 366.408 311.951 369.482 311.1 372.443 C 310.419 374.902 308.15 376.523 305.654 376.523 L 305.654 376.523 Z " fill="rgb(0,0,0)"/><rect x="93.102" y="401.426" width="1.905" height="11.494" transform="matrix(1,0,0,1,0,0)" fill="rgb(71,230,177)"/><rect x="93.042" y="401.77" width="2.027" height="10.804" transform="matrix(0,1,-1,0,501.227,313.118)" fill="rgb(71,230,177)"/><path d=" M 338.256 21.613 C 337.167 21.109 336.607 19.816 336.955 18.608 C 336.981 18.518 336.998 18.424 337.004 18.33 L 337.004 18.33 C 337.039 17.779 336.729 17.269 336.242 17.077 C 335.755 16.886 335.207 17.059 334.897 17.502 L 334.897 17.502 C 334.845 17.577 334.801 17.659 334.767 17.745 C 334.293 18.903 333.077 19.499 331.942 19.129 C 331.857 19.101 331.769 19.083 331.681 19.077 L 331.681 19.077 C 331.158 19.037 330.675 19.371 330.496 19.894 C 330.318 20.418 330.488 21.004 330.913 21.329 L 330.913 21.329 C 330.984 21.385 331.061 21.432 331.142 21.468 C 332.231 21.972 332.79 23.265 332.443 24.473 C 332.416 24.564 332.4 24.657 332.394 24.751 L 332.394 24.751 C 332.352 25.31 332.667 25.83 333.162 26.021 C 333.658 26.211 334.212 26.026 334.516 25.568 L 334.516 25.568 C 334.569 25.492 334.613 25.411 334.647 25.324 C 335.121 24.166 336.336 23.571 337.472 23.941 C 337.557 23.969 337.644 23.986 337.733 23.993 L 337.733 23.993 C 338.251 24.03 338.731 23.7 338.911 23.182 C 339.091 22.664 338.928 22.082 338.511 21.752 L 338.511 21.752 C 338.432 21.694 338.346 21.647 338.256 21.613 Z " fill="rgb(77,138,240)"/><path d=" M 101.805 106.815 C 100.717 106.311 100.157 105.018 100.505 103.81 C 100.531 103.72 100.548 103.627 100.554 103.532 L 100.554 103.532 C 100.589 102.981 100.279 102.471 99.792 102.28 C 99.305 102.088 98.757 102.261 98.447 102.704 L 98.447 102.704 C 98.395 102.78 98.351 102.861 98.317 102.948 C 97.843 104.106 96.627 104.701 95.492 104.331 C 95.407 104.303 95.319 104.286 95.231 104.279 L 95.231 104.279 C 94.712 104.242 94.233 104.572 94.053 105.09 C 93.873 105.608 94.036 106.19 94.452 106.52 L 94.452 106.52 C 94.523 106.576 94.6 106.623 94.681 106.659 C 95.77 107.163 96.329 108.456 95.982 109.664 C 95.955 109.754 95.939 109.848 95.933 109.942 L 95.933 109.942 C 95.897 110.493 96.207 111.003 96.695 111.195 C 97.182 111.386 97.729 111.213 98.039 110.77 L 98.039 110.77 C 98.091 110.695 98.135 110.613 98.17 110.527 C 98.643 109.369 99.859 108.773 100.994 109.143 C 101.079 109.171 101.167 109.189 101.256 109.195 L 101.256 109.195 C 101.774 109.233 102.253 108.903 102.433 108.385 C 102.613 107.867 102.451 107.284 102.034 106.954 L 102.034 106.954 C 101.963 106.899 101.886 106.852 101.805 106.815 Z " fill="rgb(253,216,53)"/><path d=" M 438.049 458.43 C 436.96 457.926 436.4 456.633 436.748 455.425 C 436.775 455.335 436.791 455.241 436.797 455.147 L 436.797 455.147 C 436.832 454.596 436.522 454.086 436.035 453.894 C 435.548 453.703 435 453.876 434.691 454.319 L 434.691 454.319 C 434.638 454.394 434.594 454.476 434.56 454.562 C 434.086 455.72 432.87 456.316 431.735 455.946 C 431.65 455.918 431.563 455.9 431.474 455.894 L 431.474 455.894 C 430.956 455.856 430.476 456.186 430.296 456.704 C 430.116 457.223 430.279 457.805 430.696 458.135 L 430.696 458.135 C 430.766 458.19 430.843 458.237 430.924 458.274 C 432.013 458.778 432.573 460.071 432.225 461.279 C 432.198 461.369 432.182 461.462 432.176 461.557 L 432.176 461.557 C 432.141 462.108 432.451 462.618 432.938 462.809 C 433.425 463.001 433.972 462.828 434.282 462.385 L 434.282 462.385 C 434.335 462.309 434.379 462.228 434.413 462.141 C 434.887 460.983 436.102 460.388 437.238 460.758 C 437.323 460.786 437.41 460.803 437.499 460.81 L 437.499 460.81 C 438.017 460.847 438.497 460.517 438.677 459.999 C 438.856 459.481 438.694 458.899 438.277 458.569 L 438.277 458.569 C 438.207 458.513 438.13 458.467 438.049 458.43 Z " fill="rgb(253,216,53)"/><ellipse vector-effect="non-scaling-stroke" cx="201.79449054313832" cy="60.62719543628826" rx="3.8153802855593995" ry="4.0589166862149" fill="rgb(245,95,68)"/><ellipse vector-effect="non-scaling-stroke" cx="475.10852252552155" cy="111.33759820072488" rx="3.8153802855593995" ry="4.0589166862149" fill="rgb(245,95,68)"/><ellipse vector-effect="non-scaling-stroke" cx="453.5007340324104" cy="232.37553601618296" rx="3.8153802855593995" ry="4.0589166862149" fill="rgb(77,138,240)"/><g opacity="0.5"><ellipse vector-effect="non-scaling-stroke" cx="30.815380285559378" cy="33.5754711024851" rx="3.815380285559394" ry="4.0589166862149" fill="rgb(71,230,177)"/></g></g></svg>