<svg xmlns="http://www.w3.org/2000/svg" xmlns:xlink="http://www.w3.org/1999/xlink" width="693" height="573.227" viewBox="0 0 693 573.227">
  <defs>
    <linearGradient id="linear-gradient" x1="1.313" y1="-0.811" x2="0.379" y2="0.565" gradientUnits="objectBoundingBox">
      <stop offset="0" stop-color="#f15a24"/>
      <stop offset="1" stop-color="#ffc963"/>
    </linearGradient>
    <linearGradient id="linear-gradient-2" x1="1.329" y1="-0.816" x2="0.376" y2="0.56" xlink:href="#linear-gradient"/>
    <linearGradient id="linear-gradient-3" x1="1.313" y1="-0.649" x2="0.379" y2="0.604" xlink:href="#linear-gradient"/>
    <linearGradient id="linear-gradient-4" x1="1.649" y1="-0.878" x2="0.494" y2="0.442" xlink:href="#linear-gradient"/>
    <linearGradient id="linear-gradient-5" x1="1.148" y1="-0.148" x2="0.441" y2="0.558" xlink:href="#linear-gradient"/>
  </defs>
  <g id="presentation" transform="translate(-28.194 -7.261)">
    <path id="Path_4769" data-name="Path 4769" d="M713.259,339.827,447.745,493.115a43.614,43.614,0,0,1-43.614,0L37,281.163a17.661,17.661,0,0,1,0-30.558L309.587,92.414a22.884,22.884,0,0,1,22.923,0L713.239,312.239a15.947,15.947,0,0,1,.02,27.588Z" transform="translate(0 81.529)" fill="#ffc963"/>
    <path id="Path_4770" data-name="Path 4770" d="M62.25,218.981l45.787-26.292,42.877-6.419,28.126,12.638L107.4,245.054Z" transform="translate(33.83 177.818)" fill="url(#linear-gradient)"/>
    <path id="Path_4771" data-name="Path 4771" d="M118.69,252.261l45.767-26.292,38.332-9.448,36.359,11.4-75.309,50.412Z" transform="translate(89.894 207.866)" fill="url(#linear-gradient-2)"/>
    <path id="Path_4772" data-name="Path 4772" d="M169.41,277.412,215.2,251.119l44.312-12.2L286.2,257.339l-71.641,46.146Z" transform="translate(140.276 230.117)" fill="url(#linear-gradient-3)"/>
    <path id="Path_4773" data-name="Path 4773" d="M263.833,140.41,147.98,189.048l57.927,34.206,97.2-59.222L298.9,149.7Z" transform="translate(118.989 132.263)" fill="url(#linear-gradient-4)"/>
    <path id="Path_4774" data-name="Path 4774" d="M420.057,223.532,319.871,280.86,281.36,259.91l108.259-53.84Z" transform="translate(251.481 197.486)" fill="url(#linear-gradient-5)"/>
    <path id="Path_4775" data-name="Path 4775" d="M184.545,213.869c-.837,0-3.468-.2-4.445-.2a20.671,20.671,0,0,1-10.425,3.528,18.378,18.378,0,0,1-12.9-2.93L156,221.185c-.439,5.322,6.518,4.266,9.149,4.146A77.838,77.838,0,0,0,180.339,223c1.993-.478,8.332-1.495,8.691-4.744S188.332,214.328,184.545,213.869Z" transform="translate(126.936 205.035)" fill="#007058"/>
    <path id="Path_4776" data-name="Path 4776" d="M172.078,206.107s-3.987,18.737-2.153,18.658,14.193.419,14.193.419a15.229,15.229,0,0,1-11.96,8.452c-9.189,1.336-15.747-7.973-15.747-7.973l3.648-23.382" transform="translate(127.363 193.721)" fill="#ff666d"/>
    <path id="Path_4777" data-name="Path 4777" d="M156.961,203.615l-2.731,14.91s4.286,4.405,18.718,3.887,0-26.352,0-26.352" transform="translate(125.197 187.543)" fill="#edbab9"/>
    <path id="Path_4778" data-name="Path 4778" d="M151.37,189.03s16.106-12.917,26.791-14.452,16.266,10.086,15.508,17.84-26.352,11.96-26.352,11.96" transform="translate(122.356 166.067)" fill="#edbab9"/>
    <path id="Path_4779" data-name="Path 4779" d="M192.075,219.469c-.837,0-3.468-.2-4.445-.2A20.671,20.671,0,0,1,177.2,222.8a18.379,18.379,0,0,1-12.9-2.93l-.8,6.837c-.439,5.322,6.518,4.266,9.149,4.146a77.841,77.841,0,0,0,15.189-2.332c1.993-.478,8.332-1.5,8.691-4.744S195.882,219.908,192.075,219.469Z" transform="translate(134.396 210.598)" fill="#007058"/>
    <path id="Path_4780" data-name="Path 4780" d="M179.6,211.707s-3.987,18.737-2.153,18.658,14.193.419,14.193.419a15.229,15.229,0,0,1-11.96,8.452c-9.189,1.336-15.747-7.973-15.747-7.973l3.648-23.382" transform="translate(134.833 199.284)" fill="#ff666d"/>
    <path id="Path_4781" data-name="Path 4781" d="M151.88,189.33s16.106-12.917,26.791-14.452,16.266,10.086,15.508,17.84-26.352,11.96-26.352,11.96" transform="translate(122.863 166.365)" fill="#edbab9"/>
    <path id="Path_4782" data-name="Path 4782" d="M165.816,189.395c1.993-1.993,29.422-14.691,39.05-8.87s9.03,10.146,7.814,17.242S202.154,243.1,202.154,243.1a34.764,34.764,0,0,1-21.927,1.037l2.691-28.405L146.5,195.794" transform="translate(117.519 170.607)" fill="#ffe0de"/>
    <path id="Path_4783" data-name="Path 4783" d="M163.114,197.69l8.631,6.478L208.6,185.212,183.965,167.69,149.44,187.265Z" transform="translate(120.439 159.361)" fill="#007058"/>
    <path id="Path_4784" data-name="Path 4784" d="M118.3,180.472l-2.153,9.967a46.463,46.463,0,0,1,8.711-.9c2.233.3,5.083,4.266,2.292,6.957s-7.535,2.432-12.3,3.548-5.5,1.336-8.551.478-3.508-5-3.508-5l2.392-17.382" transform="translate(74.1 169.742)" fill="#ff666d"/>
    <path id="Path_4785" data-name="Path 4785" d="M104.031,178.2l-2.731,14.91s4.286,4.405,18.718,3.887,0-26.352,0-26.352" transform="translate(72.62 162.302)" fill="#edbab9"/>
    <ellipse id="Ellipse_220" data-name="Ellipse 220" cx="20.551" cy="7.635" rx="20.551" ry="7.635" transform="translate(137.362 367.616)" fill="#008074"/>
    <path id="Path_4786" data-name="Path 4786" d="M91.53,174.74l.8,30.737h6.139V174.74" transform="translate(62.915 166.365)" fill="#008074"/>
    <path id="Path_4787" data-name="Path 4787" d="M126.728,184.572l-2.153,9.967a46.469,46.469,0,0,1,8.711-.9c2.233.3,5.083,4.266,2.292,6.957s-7.535,2.432-12.3,3.548-5.5,1.336-8.551.478-3.508-5-3.508-5l2.392-17.382" transform="translate(82.474 173.815)" fill="#ff666d"/>
    <path id="Path_4788" data-name="Path 4788" d="M197.839,93.649l10.226-18.538,5.9-9.528L191.161,54.5,176.53,84.52Z" transform="translate(147.349 46.925)" fill="#4be2c5"/>
    <path id="Path_4789" data-name="Path 4789" d="M209.55,81.129l-6.5-7.216a9.627,9.627,0,0,1-1.415-1.575,6.956,6.956,0,0,1-.379-3.03,19.536,19.536,0,0,0-.857-4.385,1.774,1.774,0,0,0-3.469.478c0,.917,0,1.854,0,2.771l-1.575-1.415c-2.133,3.867-4.326,7.714-6.658,11.482h3.867a46.086,46.086,0,0,1,12.159,10.485,1.654,1.654,0,0,0,2.791-.578,2.431,2.431,0,0,0,.538-.179h0a1.814,1.814,0,0,0,.638-2.412h0a1.475,1.475,0,0,0-.877-.837c-.359-.419-.7-.837-1.037-1.276l.219.239C208.574,85.315,211.065,82.823,209.55,81.129Z" transform="translate(159.438 56.037)" fill="#ff666d"/>
    <path id="Path_4790" data-name="Path 4790" d="M193.573,73.261a7.555,7.555,0,0,1-1.336-3.369,5.5,5.5,0,0,1,1.316-3.289c.3-.439-.4-.837-.7-.4a6.2,6.2,0,0,0-1.415,3.688A8.312,8.312,0,0,0,192.9,73.66a.4.4,0,0,0,.678-.4Z" transform="translate(162.16 58.363)" fill="#007058"/>
    <path id="Path_4791" data-name="Path 4791" d="M202.88,19.837V161.066a12.578,12.578,0,0,0,6.4,10.943L439.111,301.975a12.578,12.578,0,0,0,18.777-10.943V157.039a12.578,12.578,0,0,0-6.14-10.764L221.9,9.033a12.578,12.578,0,0,0-19.016,10.8Z" transform="translate(173.523 0)" fill="#68e1fd"/>
    <path id="Path_4792" data-name="Path 4792" d="M264.1,69.919l-2.99.777a3.449,3.449,0,0,0,1.316-2.113,1.535,1.535,0,0,0-2.213-1.694q-3.987,1.993-8.093,3.987l.159-.6a9.547,9.547,0,0,0,.478-3.987c-.578-2.272-2.631-1.017-3.468.777-1.136,2.392-1.375,4.963-3.528,6.857a10.784,10.784,0,0,1-4.186,1.694c-1.515.439-3.03.837-4.545,1.236a1.515,1.515,0,0,0,0,2.89,1.475,1.475,0,0,0,.14,2.551c-.678,1.1.1,2.87,1.555,2.272a58.464,58.464,0,0,1,11-3.249q5.561-.3,11.083-.937c1.894-.219,1.993-3.169,0-3.01h-.279l3.329-.558c1.654-.279,1.3-3.169-.4-2.95h-.4l-1.1.159,1.575-.518c.977-.339,1.874-.558,2.372-1.535a1.515,1.515,0,0,0-1.814-2.053Z" transform="translate(206.391 57.419)" fill="#ff666d"/>
    <path id="Path_4793" data-name="Path 4793" d="M245.245,68.87a.339.339,0,0,0-.638.179,5.223,5.223,0,0,1-1.595,5.322c-.319.279.16.757.478.478A5.98,5.98,0,0,0,245.245,68.87Z" transform="translate(213.284 61.02)" fill="#007058"/>
    <path id="Path_4794" data-name="Path 4794" d="M252.388,67.64q-3.648.957-7.216,2.233c-.4.14-.219.8.179.638q3.568-1.256,7.216-2.233a.339.339,0,0,0-.179-.638Z" transform="translate(215.311 59.977)" fill="#007058"/>
    <path id="Path_4795" data-name="Path 4795" d="M253.473,69.363,245.8,70.539c-.419,0-.239.718.179.638L253.652,70C254.071,69.941,253.892,69.284,253.473,69.363Z" transform="translate(215.92 61.683)" fill="#007058"/>
    <path id="Path_4796" data-name="Path 4796" d="M252.093,71.07q-3.09.2-6.2.279a.339.339,0,0,0,0,.678q3.11,0,6.2-.279C252.512,71.708,252.512,71.05,252.093,71.07Z" transform="translate(215.924 63.384)" fill="#007058"/>
    <path id="Path_4797" data-name="Path 4797" d="M77.7,69.61V221.622l36.638-19.834V48.62Z" transform="translate(49.177 41.084)" fill="#68e1fd"/>
    <path id="Path_4798" data-name="Path 4798" d="M103.15,43.18V195.192l36.638-19.854V22.17Z" transform="translate(74.457 14.81)" fill="#68e1fd"/>
    <path id="Path_4799" data-name="Path 4799" d="M357.316,202.339a22.761,22.761,0,0,1-3.189,1.276,22.226,22.226,0,0,0-14.292,0,1.216,1.216,0,0,0,0,2.332,25.116,25.116,0,0,0,14.232.179,15.611,15.611,0,0,1,1.575.678,1.264,1.264,0,0,0,1.615-1.814l1.3-.578C359.947,203.794,358.711,201.641,357.316,202.339Z" transform="translate(308.701 193.643)" fill="#007058"/>
    <path id="Path_4800" data-name="Path 4800" d="M129.442,140.609c-1.774,5.98-4.445,12.2-9.967,15.448-5.98,3.448-13.355,2.512-19.754,1.116-1.276-.279-1.814,1.674-.538,1.993,6.957,1.515,14.87,2.432,21.329-1.316,5.98-3.508,9.03-10.246,10.963-16.644a1.06,1.06,0,1,0-2.033-.6Z" transform="translate(69.793 131.705)" fill="#008074"/>
    <path id="Path_4801" data-name="Path 4801" d="M124.643,154.4q-9.229,1.993-18.618,3.13a1.037,1.037,0,0,0-.718.379q-1.076-3.249-1.834-6.6c-.279-1.276-2.233-.738-1.993.538a70.445,70.445,0,0,0,5.1,14.711c.558,1.176,2.292.159,1.754-1.017-.937-1.993-1.754-3.987-2.492-5.98h.14q9.648-1.136,19.156-3.189A1.018,1.018,0,0,0,124.643,154.4Z" transform="translate(72.778 142.37)" fill="#008074"/>
    <path id="Path_4802" data-name="Path 4802" d="M108.033,159.9a27.168,27.168,0,0,1-6.239,7.156c-1.017.817.419,2.252,1.435,1.435a28.726,28.726,0,0,0,6.558-7.555,1.019,1.019,0,0,0-1.754-1.036Z" transform="translate(72.764 151.125)" fill="#008074"/>
    <path id="Path_4803" data-name="Path 4803" d="M208.019,134.414s-.2,9.807-1.355,11.342-11.442,7-11.96,9.488,1.256,5.98,6.159,4.724,16.7-8.99,16.7-8.99V129.75" transform="translate(165.315 121.674)" fill="#007058"/>
    <path id="Path_4804" data-name="Path 4804" d="M222.036,138.673l1.256,10.644s-4.5,16.405-2.711,18.4,8.292,4.146,10.824,0-1.076-19.475-1.076-19.475l-.179-11.541" transform="translate(190.687 128.578)" fill="#007058"/>
    <path id="Path_4805" data-name="Path 4805" d="M218.051,81.518s-12.757,51.827-13.316,59.8-4.385,46.564-4.385,46.564,12.12,5.382,20.292,2.651l6.379-48.677,7.156-51.01S221.1,77.83,218.051,81.518Z" transform="translate(171.01 73.109)" fill="#ff666d"/>
    <path id="Path_4806" data-name="Path 4806" d="M229.248,88.135c9.01,38.192,9.967,67.036,14.651,100.425,0,0-19.515,7.116-23.82.219-2.91-34.026-5.262-68.152-6.359-102.278Z" transform="translate(184.291 78.712)" fill="#ff666d"/>
    <path id="Path_4807" data-name="Path 4807" d="M286.256,68.777c-8.193,3.11-17.94,5.98-24.618,5.063a116.332,116.332,0,0,1-24.6-6.1c-1.076-.359-12.738-4.824-17.063-.977s-3.169,16.365-3.169,16.365L201.061,69.5c-5.84,2.093-8.153,8.133-8.711,14.133l.6.618q1.694,1.993,3.429,3.987c5.163,5.8,11.083,12.5,18.678,15.03a13.5,13.5,0,0,0,9.09-.558c2.253-.837,5.561-3.588,7.973-2.691a4.333,4.333,0,0,0,1.993.618c1.814-.219,4.246-3.11,5.98-3.987,4.724-2.452,10.266-2.831,15.468-3.09a113.025,113.025,0,0,0,16.924-1.874c1.635-.339,19.056-4.8,19.435-3.987a60.614,60.614,0,0,1-5.661-18.917Z" transform="translate(163.064 57.564)" fill="#ffc963"/>
    <path id="Path_4808" data-name="Path 4808" d="M208.892,64.8c-1.156,5.462-.179,13.017,5.661,13.953,7.535,1.116,9.409-3.987,9.01-10.306-.319-5-2.93-12.837-9.688-10.565a6.957,6.957,0,0,0-3.787,3.488,13.953,13.953,0,0,0-1.2,3.429Z" transform="translate(179.072 49.882)" fill="#ff666d"/>
    <path id="Path_4809" data-name="Path 4809" d="M210.8,69.271a8.671,8.671,0,0,1-4.664-8.372c.319-3.349,3.568-7.635,7.335-5.98,2.551,1.076,1.854,1.156,1.854,1.156a5.282,5.282,0,0,1,4.963-1.794c3.568.319,4.186,2.492,4.186,2.492s3.987,1.355,5.123,3.987c1.216,2.95-1.555,11.741-2.87,14.213s-2.093-2.551-2.551-4.565a5,5,0,0,0-2.99-3.668c-2.193-.6-3.289,1.355-5.023,2.173A6.259,6.259,0,0,1,210.8,69.271Z" transform="translate(176.729 46.626)" fill="#007058"/>
    <path id="Path_4810" data-name="Path 4810" d="M224.341,101.939a31.734,31.734,0,0,0,11.8-2.153l.8-25.016L206.78,88.9s1.136,5.98,2.412,11.581a43.156,43.156,0,0,0,15.149,1.455Z" transform="translate(177.397 67.06)" fill="#ffc963"/>
    <path id="Path_4811" data-name="Path 4811" d="M98.44,163.62s16.106-12.917,26.791-14.452,16.266,10.086,15.508,17.84-26.352,11.96-26.352,11.96" transform="translate(69.779 140.827)" fill="#edbab9"/>
    <path id="Path_4812" data-name="Path 4812" d="M112.336,163.685c1.993-1.993,29.422-14.691,39.05-8.87s9.03,10.146,7.814,17.242-10.465,45.309-10.465,45.309a34.764,34.764,0,0,1-21.927,1.037L129.5,190,93.08,170.064" transform="translate(64.454 145.068)" fill="#ffe0de"/>
    <path id="Path_4813" data-name="Path 4813" d="M103.587,135.591c1.455,1.076,13.953,2.571,16.525,8.312s6.578,35.422,6.578,35.422-7.495,11.163-20.472,7.2c-3.847-1.176-23.8-37.654-24.339-41.442C80.5,135.232,103.587,135.591,103.587,135.591Z" transform="translate(53.27 127.474)" fill="#4be2c5"/>
    <path id="Path_4814" data-name="Path 4814" d="M82.131,197.577a32.651,32.651,0,0,1-1.555-4.625c-3.05-11.96-5.063-57.03,15.169-55.2,22.206,1.993,14.711,57.628,37.216,55.913s31.734,4.146,22.525,12.877C137.147,224.009,93.413,224.368,82.131,197.577Z" transform="translate(50.128 129.574)" fill="#ff666d"/>
    <path id="Path_4815" data-name="Path 4815" d="M104.488,128.672c.179,1.076,1.993,16.226-2.432,19.634s-14.551-4.644-14.811-8.651-3.648-12.339.638-14.432S103.272,121.118,104.488,128.672Z" transform="translate(57.153 115.277)" fill="#ff666d"/>
    <path id="Path_4816" data-name="Path 4816" d="M109.713,132.056s3.767-2.91,4.425-5.541-2.591-4.525-5.761-4.525-5.86.817-8.591-.817a9.727,9.727,0,0,0-9.608,0c-2.571,1.754-3.01,5.98-4.744,8.153s-5.043,2.412-4.963,6.458,5.98,4.465,6.439,7.176,1.874,6.678,5.522,7.355,8.651.758,9.07.219-2.292-9.608.219-10.206S109.873,138.415,109.713,132.056Z" transform="translate(51.928 111.893)" fill="#008074"/>
    <path id="Path_4817" data-name="Path 4817" d="M127.644,129.2a7.355,7.355,0,0,0-1.834-4.8,1.216,1.216,0,0,0-.419-.3c-.14-1.654-.6-3.309-1.993-3.887a1.256,1.256,0,0,0-.718,0,1.116,1.116,0,0,0-1.316,1.156v1.794a1.874,1.874,0,0,0-.817-.957,1.555,1.555,0,0,0-1.535,0,1.057,1.057,0,0,0-.9,1.136l.3,7.595c-.379-1.415-1.2-4.186-3.229-2.731-1.595,1.136-.439,4.266-.179,5.741a58.4,58.4,0,0,0,2.113,8.85,1.2,1.2,0,0,0,.419.578q-.1.458-.239.917c-.518,1.993-1.056,4.664-2.591,5.98-1.176,1.017.538,2.731,1.714,1.714l.159-.159h0c-.4,1.3,1.615,2.193,2.213.937l.239-.458a1.456,1.456,0,0,0,.379.279,3.044,3.044,0,0,1-.279.777c-.478,1.495,1.874,2.133,2.332.638h0a1.116,1.116,0,0,0,1.993,0c.279-.6.2,1.415.439.817.618.259-.678-1.993-.279-2.691,1.515-2.87,5.282-5.741,5.183-15.03C128.919,134.738,130.673,130.193,127.644,129.2Z" transform="translate(85.545 112.142)" fill="#ff666d"/>
    <path id="Path_4818" data-name="Path 4818" d="M117.007,122.1c0-.518-.837-.518-.817,0q.219,4.844.658,9.668c0,.518.857.518.817,0Q117.247,126.948,117.007,122.1Z" transform="translate(87.41 113.693)" fill="#c1444d"/>
    <path id="Path_4819" data-name="Path 4819" d="M118.607,120.9a.409.409,0,1,0-.817,0l.319,13a.409.409,0,1,0,.817,0Z" transform="translate(89 112.481)" fill="#c1444d"/>
    <path id="Path_4820" data-name="Path 4820" d="M119.709,122.674l-.239,9.967a.409.409,0,1,0,.817,0l.239-9.967a.409.409,0,1,0-.817,0Z" transform="translate(90.669 114.239)" fill="#c1444d"/>
    <path id="Path_4821" data-name="Path 4821" d="M121.168,125.027q-.179,3.668-.638,7.316c0,.518.738.518.817,0q.478-3.648.638-7.316A.409.409,0,0,0,121.168,125.027Z" transform="translate(91.722 116.589)" fill="#c1444d"/>
    <path id="Path_4822" data-name="Path 4822" d="M98.54,144.136s12.3,4.485,15.488,4.206,16.624-17.4,16.624-17.4,9.309,2.571,12.339,10.864c0,0-17.342,24.817-24.917,26.312s-16.824-2.233-16.824-2.233" transform="translate(69.878 122.856)" fill="#4be2c5"/>
    <path id="Path_4823" data-name="Path 4823" d="M137.843,183.143s-.578-21.708,9.309-22.066,22.824,6.757,23.521,18.239,2.651,32.97,2.651,37-7.236,18.917-7.236,18.917" transform="translate(108.913 152.779)" fill="#4be2c5"/>
    <path id="Path_4824" data-name="Path 4824" d="M225.4,232.527c0,.718-.578,9.468.4,10.485s3.528,5.98,6.7,6.179,6.12-.419,6.7,2.97-17.94,4.545-17.94,4.545-1.993-7.774-2.791-7.555-.8,8.571-.8,8.571l-3.448.738-3.448-2.292,1.4-14.89,2.253-12.658" transform="translate(181.361 219.886)" fill="#ff666d"/>
    <path id="Path_4825" data-name="Path 4825" d="M232.322,238.8c-.458,5.262-.179,12.319,4.764,15.528,2.711,1.754,8.432.14,9.149,3.987.618,3.389-17.94,4.644-17.94,4.644s-1.993-7.754-2.831-7.535-.757,8.571-.757,8.571l-3.448.758-3.448-2.272,1.3-14.91,2.173-12.678" transform="translate(188.354 226.114)" fill="#ff666d"/>
    <path id="Path_4826" data-name="Path 4826" d="M230.346,194.412l2.432-3.249a1.993,1.993,0,0,0-1.794-3.01,11.743,11.743,0,0,0,1.136-2.831,1.834,1.834,0,0,0-3.189-1.475l-3.987,5.442,1.993-3.588c1.176-1.993-2.133-3.568-3.289-1.555l-3.488,5.98v-1.754c0-1.595-.319-3.628-2.352-3.728a1.993,1.993,0,0,0-2.113,1.475,8.513,8.513,0,0,0,0,3.987c.339,1.455,1.256,3.448.419,4.864l-4.126,6.419a1.814,1.814,0,0,0,1.2,2.93,1.874,1.874,0,0,0,2.492,1.575,1.754,1.754,0,0,0,1.256.259,1.694,1.694,0,0,0,2.093.5,1.814,1.814,0,0,0,3.05.538c2.93-3.528,6.817-6.139,9.488-9.967a1.993,1.993,0,0,0-1.216-2.811Z" transform="translate(182.177 174.779)" fill="#e84f5b"/>
    <path id="Path_4827" data-name="Path 4827" d="M201.18,213.139a10.525,10.525,0,0,0,9.369,7.236c7.415.419,21.488-15.229,21.488-15.229s.379-13.953-5.761-16.365c0,0-10.186,8.791-11.6,8.89s-9.668-7.654-9.668-7.654" transform="translate(171.835 180.311)" fill="#3accb0"/>
    <path id="Path_4828" data-name="Path 4828" d="M231.171,194.966l1.854-3.608a1.993,1.993,0,0,0-2.272-2.651,11.741,11.741,0,0,0,.638-2.99A1.834,1.834,0,0,0,228,184.8l-3.09,5.98,1.415-3.887c.8-2.213-2.711-3.149-3.508-.977l-2.412,6.578-.379-1.714c-.339-1.575-.937-3.508-2.95-3.269a1.993,1.993,0,0,0-1.814,1.814,8.511,8.511,0,0,0,.777,3.987c.578,1.375,1.834,3.189,1.236,4.724l-2.97,7.037a1.814,1.814,0,0,0,1.674,2.671,1.874,1.874,0,0,0,2.711,1.116,1.754,1.754,0,0,0,1.276,0,1.694,1.694,0,0,0,2.153.14,1.814,1.814,0,0,0,3.11,0c2.292-3.987,5.661-7.216,7.654-11.4a1.993,1.993,0,0,0-1.714-2.631Z" transform="translate(184.66 175.501)" fill="#ff666d"/>
    <path id="Path_4829" data-name="Path 4829" d="M211.2,230.965l-2.731,14.91s4.286,4.405,18.717,3.887,0-26.352,0-26.352" transform="translate(179.076 214.711)" fill="#edbab9"/>
    <ellipse id="Ellipse_221" data-name="Ellipse 221" cx="20.551" cy="7.635" rx="20.551" ry="7.635" transform="translate(350.988 472.805)" fill="#008074"/>
    <path id="Path_4830" data-name="Path 4830" d="M198.7,227.51l.8,30.717h6.12V227.51" transform="translate(169.371 218.783)" fill="#008074"/>
    <path id="Path_4831" data-name="Path 4831" d="M231.813,207.163q-9.229,1.993-18.618,3.13a1.037,1.037,0,0,0-.718.379q-1.076-3.249-1.834-6.6c-.279-1.276-2.233-.738-1.993.538a70.444,70.444,0,0,0,5.1,14.711c.558,1.176,2.292.159,1.754-1.017-.937-1.993-1.754-3.987-2.492-5.98h.14q9.648-1.136,19.156-3.189C233.627,208.837,233.089,206.884,231.813,207.163Z" transform="translate(179.235 194.778)" fill="#008074"/>
    <path id="Path_4832" data-name="Path 4832" d="M215.2,212.66a27.169,27.169,0,0,1-6.239,7.156c-1.017.817.419,2.252,1.435,1.435a28.724,28.724,0,0,0,6.558-7.555,1.019,1.019,0,0,0-1.754-1.036Z" transform="translate(179.221 203.534)" fill="#008074"/>
    <path id="Path_4833" data-name="Path 4833" d="M205.6,216.38s16.106-12.917,26.791-14.452,16.266,10.086,15.508,17.84-26.352,11.96-26.352,11.96" transform="translate(176.225 193.235)" fill="#edbab9"/>
    <path id="Path_4834" data-name="Path 4834" d="M219.536,216.445c1.993-1.993,29.422-14.691,39.05-8.87s9.03,10.146,7.814,17.242-10.525,45.329-10.525,45.329a34.764,34.764,0,0,1-21.927,1.037l2.691-28.405L200.22,222.844" transform="translate(170.881 197.477)" fill="#ffe0de"/>
    <path id="Path_4835" data-name="Path 4835" d="M210.757,188.361c1.455,1.076,13.953,2.571,16.525,8.312s6.578,35.422,6.578,35.422-7.495,11.163-20.472,7.2c-3.847-1.176-23.8-37.654-24.339-41.442C187.674,187.982,210.757,188.361,210.757,188.361Z" transform="translate(159.726 179.893)" fill="#4be2c5"/>
    <path id="Path_4836" data-name="Path 4836" d="M189.3,250.347a32.646,32.646,0,0,1-1.555-4.625c-3.05-11.96-5.063-57.03,15.169-55.2,22.206,1.993,14.711,57.628,37.216,55.913s31.734,4.146,22.525,12.877C244.277,276.759,200.583,277.238,189.3,250.347Z" transform="translate(156.584 181.993)" fill="#ff666d"/>
    <path id="Path_4837" data-name="Path 4837" d="M211.823,182.837c.14.917,1.754,13.814-1.993,16.724s-12.4-3.987-12.6-7.355-3.11-10.5.538-12.279S210.806,176.459,211.823,182.837Z" transform="translate(166.633 169.908)" fill="#ff666d"/>
    <path id="Path_4838" data-name="Path 4838" d="M205.6,219.534a10.525,10.525,0,0,0,10.6,5.282c7.355-1.017,18.139-19.1,18.139-19.1s-2.332-13.774-8.811-14.95c0,0-8.292,10.585-9.668,10.963S210.8,194.3,210.8,194.3" transform="translate(176.225 182.288)" fill="#4be2c5"/>
    <path id="Path_4839" data-name="Path 4839" d="M219.814,207.74c-1.635-1.116-3.987-1.993-3.409-4.266.439-1.993,2.392-3.309,2.452-5.342a7.4,7.4,0,0,0-2.093-5.3c-.857-.877-1.993-1.375-1.336-2.771a5.462,5.462,0,0,1,2.133-2.153l4.186.259A9.468,9.468,0,0,0,217,176.484a15.169,15.169,0,0,0-17,1.993,20.23,20.23,0,0,0-2.811,3.987,15.509,15.509,0,0,1-3.648,4.744,6.479,6.479,0,0,0-3.11,4.644,8.432,8.432,0,0,0,1.415,5.262c1.056,1.993-.638,3.389-1.993,4.824a8.471,8.471,0,0,0-2.771,5.163c-.2,4.326,3.987,6.319,7.595,6.977s6.757,1.136,10.146,1.714c4.306.738,8.512,2.292,12.917,1.1a7.176,7.176,0,0,0,3.07-1.774,4.684,4.684,0,0,0-.379-6.937,6.729,6.729,0,0,0-.618-.439Z" transform="translate(157.825 166.374)" fill="#008074"/>
    <path id="Path_4840" data-name="Path 4840" d="M179.068,174.5l.179-.1a1.421,1.421,0,0,0-1.435-2.452l-.339.2a1.435,1.435,0,0,0-2.113-1.276c-1.635.8-3.249,1.615-4.844,2.472l.618-.758c.937-1.176-.239-3.149-1.714-2.233q-2.91,1.814-5.721,3.787a1.495,1.495,0,0,0-.3,2.153l-.3.219a1.535,1.535,0,0,0-.419,1.993,1.6,1.6,0,0,0,.14,1.3,1.366,1.366,0,0,0,.578,2.312l.12.14-1.674.578c-1.714.6-.977,3.329.757,2.731l8.591-3.01a13.4,13.4,0,0,0,5.98-3.269,1.375,1.375,0,0,0,.239-1.555,8.971,8.971,0,0,0,1.734-1.176,1.276,1.276,0,0,0-.08-2.053Z" transform="translate(131.795 161.777)" fill="#ff666d"/>
    <path id="Path_4841" data-name="Path 4841" d="M152.38,178.8s15.448-6.279,20.053-7.635c0,0,4.764,3.349,3.448,12.139,0,0-13.953,14.232-22.565,18.518" transform="translate(123.36 162.818)" fill="#4be2c5"/>
    <path id="Path_4842" data-name="Path 4842" d="M148.976,161.485a1.475,1.475,0,0,0-.1-1.874,5.78,5.78,0,0,0-2.412-1.993,2.153,2.153,0,0,0-2.731,1.555A3.608,3.608,0,0,0,148,163.16a1.455,1.455,0,0,0,1-1.734Z" transform="translate(114.743 149.261)" fill="#ff666d"/>
    <ellipse id="Ellipse_222" data-name="Ellipse 222" cx="20.551" cy="7.635" rx="20.551" ry="7.635" transform="translate(245.401 424.387)" fill="#008074"/>
    <path id="Path_4843" data-name="Path 4843" d="M145.74,203.22l.8,30.717h6.12V203.22" transform="translate(116.764 194.655)" fill="#008074"/>
    <path id="Path_4844" data-name="Path 4844" d="M135.1,224.377a32.652,32.652,0,0,1-1.555-4.625c-3.05-11.96-5.063-57.03,15.169-55.2,22.206,1.993,14.711,57.628,37.216,55.913s31.734,4.146,22.525,12.877C190.177,250.789,146.324,251.208,135.1,224.377Z" transform="translate(102.745 156.195)" fill="#ff666d"/>
    <path id="Path_4845" data-name="Path 4845" d="M154.054,151.556s7.4,15.588,2.532,20.173c-3.448,3.249-10.266,3.03-13.814-2.93S147.3,148.805,154.054,151.556Z" transform="translate(112.955 142.984)" fill="#ff666d"/>
    <path id="Path_4846" data-name="Path 4846" d="M151.478,168.208a22.724,22.724,0,0,0,7.216-13.774c.8-8.332-17.6-5.382-20.611,2.691s1.435,19.794,13.814,18.139Z" transform="translate(108.256 141.242)" fill="#007058"/>
    <path id="Path_4847" data-name="Path 4847" d="M150.826,159.35c-1.276,1.076-33.528,34.026-16.8,45.07,13.953,9.209,19.3-39.05,19.276-42.737" transform="translate(100.356 151.077)" fill="#007058"/>
    <path id="Path_4848" data-name="Path 4848" d="M373.5,194.111a3.389,3.389,0,0,0-.6-1.256,7.537,7.537,0,0,0-1.854-1.615c-9.389-6.359-22.385-8.113-32.332-1.993-2.272,1.415-5.641,4.645-4.306,7.674.777,1.754,3.13,2.791,4.764,3.508a72,72,0,0,0,16.983,4.425c2.113.359,4.226.7,6.359.917a8.771,8.771,0,0,0,7.734-3.329C371.767,200.669,374.178,196.862,373.5,194.111Z" transform="translate(303.878 177.013)" fill="#007058"/>
    <path id="Path_4849" data-name="Path 4849" d="M334.15,191.315a32.631,32.631,0,0,0,23.362,6.618c14.791-1.136,15.947-8.133,15.947-8.133s-3.827,49.056-5.86,49.834-9.588,4.485-13.236,4.764-15.189-4.345-15.468-5.621S334.15,191.315,334.15,191.315Z" transform="translate(303.92 181.324)" fill="#4be2c5"/>
    <path id="Path_4850" data-name="Path 4850" d="M347.119,183.71a4.664,4.664,0,0,0-.419,1.674Z" transform="translate(316.386 175.275)" fill="#ff666d"/>
    <path id="Path_4851" data-name="Path 4851" d="M336.241,154.906c-.458-.937-1.854-.12-1.4.817,10.126,20.691,12.1,43.973,13.953,66.578,0,1.037,1.694,1.037,1.615,0C348.56,199.358,346.507,175.876,336.241,154.906Z" transform="translate(304.52 146.251)" fill="#ff666d"/>
    <path id="Path_4852" data-name="Path 4852" d="M336.632,154.8s2.831,10.724,0,16.106-5.342,6.438-1.854,13.136S347.6,191.6,348.213,196.72,343.648,163.91,336.632,154.8Z" transform="translate(302.853 146.557)" fill="#ff666d"/>
    <path id="Path_4853" data-name="Path 4853" d="M357.517,164.77a136.365,136.365,0,0,0-12.857,52.784,1,1,0,0,0,1.993,0,133.892,133.892,0,0,1,12.638-51.827C359.75,164.631,358.055,163.634,357.517,164.77Z" transform="translate(314.36 155.962)" fill="#ff666d"/>
    <path id="Path_4854" data-name="Path 4854" d="M358.068,169.683c0-1.076-.239-3.189-.12-5.083l-1.136.718c-3.847,9.468-9.588,31.734-11.322,38.551,2.332-5.1,11.96-5.8,14.731-13.136a13.555,13.555,0,0,0,.159-9.668A36.1,36.1,0,0,1,358.068,169.683Z" transform="translate(315.184 156.292)" fill="#ff666d"/>
  </g>
</svg>
