<svg id="Layer_1" data-name="Layer 1" xmlns="http://www.w3.org/2000/svg" viewBox="0 0 513 513"><defs><style>.cls-1{fill:#e74c3c;}.cls-2{fill:#fff;}</style></defs><title>QR</title><rect class="cls-1" width="513" height="513"/><path class="cls-2" d="M291.31,358.73l-24.26,15.83L250.54,350q-28.31,13.8-57.95,13.81-52.56,0-88.28-36.39-35.72-36-35.71-89.62t35.71-89.63q35.72-36.37,88.28-36.38t88.27,36.72q35.72,36.06,35.72,89.29a128.75,128.75,0,0,1-10.95,52.9,125.81,125.81,0,0,1-31.17,42.79Zm-98.72-24.6a91.3,91.3,0,0,0,40.77-9.43l-28.31-42.46,24.26-16.51,28,42.12q27.62-26.61,27.62-70.08,0-42.12-26.61-69.07-26.28-27.3-65.7-27.29t-66,27.29Q100.27,196,100.27,237.77t26.28,69.07Q153.16,334.13,192.59,334.13Z"/><path class="cls-2" d="M378.91,358.39h-31V193.29h29.65v27h1.35q4.71-13.14,19.37-22.41t28.81-9.26q13.47,0,22.91,4l-9.43,30q-5.74-2.36-18.2-2.36-17.52,0-30.49,14.15a47.31,47.31,0,0,0-13,33Z"/></svg>