<?xml version="1.0" encoding="utf-8"?>
<!-- Generator: Adobe Illustrator 23.0.0, SVG Export Plug-In . SVG Version: 6.00 Build 0)  -->
<svg version="1.1" id="Layer_1" xmlns="http://www.w3.org/2000/svg" xmlns:xlink="http://www.w3.org/1999/xlink" x="0px" y="0px"
	 viewBox="0 0 127.3 127.3" style="enable-background:new 0 0 127.3 127.3;" xml:space="preserve">
<style type="text/css">
	.st0{fill:#4EBA6F;}
	.st1{fill:none;}
	.st2{fill:#FFFFFF;}
</style>
<title>speaker</title>
<circle class="st0" cx="63.7" cy="63.7" r="63.7"/>
<g id="background">
	<rect x="34.2" y="31.3" class="st1" width="64.7" height="64.7"/>
</g>
<g id="speaker_louder">
	<polygon class="st2" points="66.5,39.4 66.5,87.9 54.4,75.8 38.2,75.8 38.2,51.5 54.4,51.5 	"/>
	<path class="st2" d="M85.4,40.8l-2.9,2.9c11,11,11,28.9,0,39.9l2.9,2.9C98,73.9,98,53.4,85.4,40.8C85.4,40.7,85.4,40.7,85.4,40.8
		L85.4,40.8z"/>
	<path class="st2" d="M79.7,46.6l-2.9,2.9c7.8,7.9,7.8,20.6,0,28.5l2.9,2.9C89.1,71.3,89.1,56,79.7,46.6z"/>
	<path class="st2" d="M74,52.3l-2.9,2.9c4.6,4.7,4.6,12.3,0,17L74,75C80.2,68.7,80.2,58.5,74,52.3L74,52.3z"/>
</g>
</svg>
