<?xml version="1.0" encoding="utf-8"?>
<!-- Generator: Adobe Illustrator 23.0.0, SVG Export Plug-In . SVG Version: 6.00 Build 0)  -->
<svg version="1.1" id="Layer_1" xmlns="http://www.w3.org/2000/svg" xmlns:xlink="http://www.w3.org/1999/xlink" x="0px" y="0px"
	 viewBox="0 0 61.1 58" style="enable-background:new 0 0 61.1 58;" xml:space="preserve">
<style type="text/css">
	.st0{fill:#545352;}
	.st1{fill:#2D79BE;}
	.st2{fill:#FFFFFF;}
	.st3{fill:#3C4652;}
</style>
<g transform="translate(13.29 13.05)">
	<path id="Path_3758" class="st0" d="M1.5,23.9v-3.4L3,18.8h1.7v5.1"/>
	<path id="Path_3759" class="st1" d="M22.5,22.2h25.3v17.5c0,2.9-2.3,5.2-5.2,5.2H22.5V22.2z"/>
	<circle id="Ellipse_172" class="st2" cx="35.1" cy="25.3" r="5"/>
	<path id="Path_3760" class="st3" d="M13.8-13.1h20.1c2.9,0,5.2,2.3,5.2,5.2V9.6H13.8V-13.1z"/>
	<circle id="Ellipse_173" class="st2" cx="16.3" cy="-0.9" r="5"/>
	<circle id="Ellipse_174" class="st3" cx="26.4" cy="14.2" r="4.1"/>
	<path id="Path_3761" class="st3" d="M27.8,7.6v3.2l-1.3,1.5H25V7.6"/>
	<circle id="Ellipse_175" class="st1" cx="16.2" cy="-0.9" r="4.1"/>
	<path id="Path_3762" class="st1" d="M9.5-2.4h3.2L14.1-1v1.5H9.5"/>
	<path id="Path_3763" class="st1" d="M-8.1-13.1h20.1V9.6h-25.3V-7.8C-13.3-10.7-11-13.1-8.1-13.1L-8.1-13.1z"/>
	<circle id="Ellipse_176" class="st2" cx="-0.6" cy="6.7" r="5"/>
	<path id="Path_3764" class="st3" d="M-13.3,11.3h25.3V34H-8.1c-2.9,0-5.2-2.3-5.2-5.2l0,0V11.3z"/>
	<circle id="Ellipse_177" class="st2" cx="9" cy="22.6" r="5"/>
	<circle id="Ellipse_178" class="st3" cx="-0.6" cy="6.7" r="4.1"/>
	<path id="Path_3765" class="st3" d="M-2,13.5v-3.2l1.3-1.5h1.5v4.6"/>
	<circle id="Ellipse_179" class="st1" cx="17.8" cy="33.6" r="4.1"/>
	<path id="Path_3766" class="st1" d="M24.6,35.1h-3.2l-1.5-1.5v-1.5h4.6"/>
</g>
</svg>
