<svg id="Layer_1" data-name="Layer 1" xmlns="http://www.w3.org/2000/svg" viewBox="0 0 250.62 52.79"><defs><style>.cls-1{fill:#00aed6;}.cls-1,.cls-2,.cls-3{fill-rule:evenodd;}.cls-2{fill:#fff;}</style></defs><title>gopay</title><path class="cls-1" d="M30.34,16.4c15.1,0,27.35,11.81,27.35,26.39S45.44,69.17,30.34,69.17,3,57.36,3,42.79,15.24,16.4,30.34,16.4Z" transform="translate(-3 -16.4)"/><path class="cls-2" d="M46.29,42a6.3,6.3,0,0,0-6.65-5.78H22.37a1.1,1.1,0,1,1,0-2.2h17.5a5.29,5.29,0,0,0-4-4.84,45.42,45.42,0,0,0-15.43,0A7.11,7.11,0,0,0,15,35a51.13,51.13,0,0,0,0,15.62,7.52,7.52,0,0,0,6.24,5.87,78.84,78.84,0,0,0,19.05,0A6.5,6.5,0,0,0,45.56,51a40,40,0,0,0,.73-9Zm-5.69,3.7h0v1a1.14,1.14,0,0,1-2.28,0v-1a1.56,1.56,0,0,1-.57-1.23,1.71,1.71,0,0,1,3.42,0A1.74,1.74,0,0,1,40.6,45.67Z" transform="translate(-3 -16.4)"/><path class="cls-3" d="M135.57,39.82a8.69,8.69,0,1,0-8.75,8.31H127a8.14,8.14,0,0,0,8.68-7.52,7,7,0,0,0,0-.79Zm-25.8,0h0c0-8.8,7.2-15.5,17.18-15.5s17.18,6.75,17.18,15.5S137,55.34,127,55.34,109.77,48.59,109.77,39.82Z" transform="translate(-3 -16.4)"/><path class="cls-3" d="M96.1,41.42c0,3.63-3.83,6.6-8.68,6.6a8.05,8.05,0,0,1-8.89-7,8.21,8.21,0,0,1,0-1.31c0-4.8,3.65-8.09,9.25-8.09,4.56,0,8.34,3,8.34,6.42v3.38Zm.34-17.13h0v3.48a14.14,14.14,0,0,0-10.18-3.45A15.71,15.71,0,0,0,70.4,39.91c.08,8.53,7.31,15.38,16.16,15.3a13.34,13.34,0,0,0,9.77-3.63v3c0,4-3.6,7-8.34,7a13.38,13.38,0,0,1-9.84-3.34l-5.54,5.14a21.59,21.59,0,0,0,15.61,5.85c9.71,0,16.36-6.28,16.36-14.66V24.29Z" transform="translate(-3 -16.4)"/><path class="cls-3" d="M149.15,25.2h8.15v2.59h.12a14,14,0,0,1,9.82-3.43,15.76,15.76,0,0,1,15.47,16.1,15.82,15.82,0,0,1-15.47,14.93,15.13,15.13,0,0,1-9.53-3.1V67h-8.49l-.07-41.78Zm16.77,6.42h0c-4.56,0-8.27,3.05-8.27,6.37v3.72c0,3.54,3.66,6.46,8.31,6.46a8.47,8.47,0,0,0,9-7.85,8.39,8.39,0,0,0-8.13-8.7,6.61,6.61,0,0,0-.89,0Z" transform="translate(-3 -16.4)"/><path class="cls-3" d="M199,37c5.58-.72,7.24-1.49,7.24-3,0-1.93-2.12-3.1-5.4-3.1a7.18,7.18,0,0,0-7.59,5.3l-8-1.61c1.14-6,7.52-10.24,15.38-10.24,8.89,0,14.4,4.4,14.4,11.52V54.53h-7.63V51.27h-.11a12.8,12.8,0,0,1-10.28,4c-6.72,0-11.39-3.54-11.39-8.8S189.46,38.26,199,37Zm7.93,3.1h-.12c-.75,1.06-2.28,1.67-6.49,2.38-5,.9-6.84,1.84-6.84,3.56s1.48,2.55,4.69,2.55c4.9,0,8.69-2.2,8.69-5Z" transform="translate(-3 -16.4)"/><polygon class="cls-3" points="227.42 36.48 213.37 8.8 222.73 8.8 231.96 27.97 232.09 27.97 241.21 8.8 250.62 8.8 229.57 50.58 220.2 50.58 227.42 36.48"/></svg>