<svg xmlns="http://www.w3.org/2000/svg" width="24.967" height="27.347" viewBox="0 0 24.967 27.347">
  <path id="csharp" d="M16.484,2a2.507,2.507,0,0,0-1.228.32L5.242,7.947A2.421,2.421,0,0,0,4,10.046V21.3a2.422,2.422,0,0,0,1.242,2.1l10.013,5.624a2.5,2.5,0,0,0,2.457,0L27.725,23.4a2.42,2.42,0,0,0,1.242-2.1V10.046a2.421,2.421,0,0,0-1.242-2.1L17.712,2.32A2.507,2.507,0,0,0,16.484,2Zm0,1.189a1.333,1.333,0,0,1,.648.167L27.144,8.983a1.224,1.224,0,0,1,.634,1.064V21.3a1.222,1.222,0,0,1-.636,1.064L17.131,27.989a1.339,1.339,0,0,1-1.3,0L5.825,22.362A1.219,1.219,0,0,1,5.189,21.3V10.046a1.222,1.222,0,0,1,.636-1.064L15.836,3.356A1.333,1.333,0,0,1,16.484,3.189Zm0,4.756a7.728,7.728,0,1,0,6.147,12.4l.406-.536-3.6-2.085-.325.353a3.567,3.567,0,1,1,0-4.811l.325.353,3.6-2.085L22.63,11A7.7,7.7,0,0,0,16.484,7.945Zm0,1.189a6.452,6.452,0,0,1,4.723,2.088l-1.63.943a4.715,4.715,0,0,0-3.093-1.247,4.756,4.756,0,0,0,0,9.511,4.715,4.715,0,0,0,3.093-1.247l1.63.943a6.452,6.452,0,0,1-4.723,2.088,6.539,6.539,0,0,1,0-13.078ZM22.428,12.7v1.189H21.239v1.189h1.189v1.189H21.239v1.189h1.189v1.189h1.189V17.456h1.189v1.189h1.189V17.456h1.189V16.267H25.995V15.078h1.189V13.889H25.995V12.7H24.806v1.189H23.617V12.7Zm1.189,2.378h1.189v1.189H23.617Z" transform="translate(-4 -2)" fill="#2980b9"/>
</svg>
