<svg xmlns="http://www.w3.org/2000/svg" width="28.437" height="19.31" viewBox="0 0 28.437 19.31">
  <path id="iconfinder_mysql_4691303" d="M19.438,5.981a1.307,1.307,0,0,0-.325.039v.015h.017a2.673,2.673,0,0,0,.254.323c.064.127.118.254.182.379l.017-.018a.441.441,0,0,0,.166-.395c-.047-.056-.055-.111-.095-.166-.047-.079-.149-.118-.213-.181ZM6.837,21.614h-1.1c-.036-1.851-.146-3.59-.32-5.225H5.409L3.738,21.614H2.9L1.244,16.389H1.232Q1.049,18.74,1,21.614H0q.1-3.494.486-6.552H1.848L3.43,19.877H3.44l1.6-4.815h1.3q.43,3.581.507,6.552ZM11.6,16.78a14.815,14.815,0,0,1-1.768,5.284,2.355,2.355,0,0,1-1.876,1.271,1.849,1.849,0,0,1-.671-.164v-.585a3.04,3.04,0,0,0,.457.031,1.1,1.1,0,0,0,.767-.263.954.954,0,0,0,.35-.717,4.753,4.753,0,0,0-.273-1.119l-1.2-3.739H8.46l.861,2.8a3.754,3.754,0,0,1,.243,1.331,18.076,18.076,0,0,0,.989-4.127H11.6Zm14.6,4.834H23.083V15.062h1.049v5.747H26.2Zm-3.934.16-1.2-.592a2.544,2.544,0,0,0,.3-.3,4.013,4.013,0,0,0,.768-2.669q0-3.252-2.553-3.254a2.429,2.429,0,0,0-1.955.826,4.022,4.022,0,0,0-.765,2.66,3.884,3.884,0,0,0,.68,2.536,2.329,2.329,0,0,0,1.876.729,3.013,3.013,0,0,0,.859-.116l1.57.915.427-.737Zm-3.9-1.472a4.026,4.026,0,0,1-.4-2.057q0-2.476,1.5-2.476a1.266,1.266,0,0,1,1.158.592,4.008,4.008,0,0,1,.4,2.042q0,2.5-1.5,2.5a1.267,1.267,0,0,1-1.159-.592ZM16.4,19.8a1.736,1.736,0,0,1-.611,1.37,2.4,2.4,0,0,1-1.64.533,3.286,3.286,0,0,1-1.864-.61l.281-.564a3.179,3.179,0,0,0,1.41.389,1.481,1.481,0,0,0,.928-.261.893.893,0,0,0,.355-.729c0-.391-.273-.723-.768-1-.46-.252-1.378-.778-1.378-.778a1.568,1.568,0,0,1-.749-1.395,1.626,1.626,0,0,1,.557-1.286,2.1,2.1,0,0,1,1.446-.492,2.974,2.974,0,0,1,1.659.486l-.252.564a3.23,3.23,0,0,0-1.261-.273,1.116,1.116,0,0,0-.775.244.811.811,0,0,0-.294.621c0,.389.277.723.789,1.007.466.255,1.406.794,1.406.794a1.542,1.542,0,0,1,.768,1.384Zm11.116-6.934a3.633,3.633,0,0,0-1.537.223c-.118.047-.308.047-.325.2.065.063.075.166.13.254a1.818,1.818,0,0,0,.41.482c.166.13.332.256.506.367.308.19.658.3.96.493.172.111.347.252.521.371.086.059.142.166.254.2v-.024c-.055-.071-.071-.174-.124-.254-.079-.079-.159-.15-.237-.229a3.819,3.819,0,0,0-.823-.8c-.254-.173-.808-.415-.912-.7l-.015-.017a3.188,3.188,0,0,0,.545-.126c.269-.071.515-.056.794-.126.126-.032.252-.071.379-.111V13c-.142-.142-.249-.335-.4-.468a10.506,10.506,0,0,0-1.308-.975c-.249-.159-.564-.261-.826-.4-.095-.047-.254-.071-.308-.15a3.055,3.055,0,0,1-.326-.609c-.227-.436-.45-.918-.648-1.378a8.2,8.2,0,0,0-.4-.9,7.983,7.983,0,0,0-3.064-2.962,3.859,3.859,0,0,0-1.014-.325c-.2-.009-.4-.024-.592-.032a2.875,2.875,0,0,1-.367-.278c-.45-.284-1.616-.9-1.948-.085-.213.514.316,1.021.5,1.282a3.653,3.653,0,0,1,.4.592c.056.137.071.278.127.422a9.482,9.482,0,0,0,.411,1.063,3.634,3.634,0,0,0,.293.489c.064.086.173.127.2.269a2.306,2.306,0,0,0-.182.592,3.51,3.51,0,0,0,.23,2.666c.127.2.429.633.833.466.355-.142.277-.592.379-.989.024-.095.008-.158.057-.222v.018c.111.223.223.435.325.658a4.458,4.458,0,0,0,1.027,1.06c.19.142.34.389.577.476v-.024H22a1.057,1.057,0,0,0-.182-.158,4.081,4.081,0,0,1-.415-.474,10.379,10.379,0,0,1-.885-1.443c-.13-.249-.239-.517-.344-.762-.047-.095-.047-.237-.127-.284a2.924,2.924,0,0,0-.379.537,4.527,4.527,0,0,0-.223,1.2c-.032.008-.017,0-.032.017-.254-.062-.34-.325-.435-.545a3.439,3.439,0,0,1-.071-2.115c.056-.166.293-.69.2-.848-.05-.15-.206-.237-.293-.359a2.936,2.936,0,0,1-.284-.506c-.19-.443-.284-.934-.491-1.377a4.1,4.1,0,0,0-.4-.608,3.987,3.987,0,0,1-.436-.616c-.039-.086-.095-.23-.032-.325a.135.135,0,0,1,.111-.107c.1-.085.4.026.5.073a4.052,4.052,0,0,1,.784.4c.111.078.231.229.373.268h.166c.254.056.539.017.776.086a5.07,5.07,0,0,1,1.14.545A7.054,7.054,0,0,1,23.5,8.552c.095.182.136.35.223.539.166.391.371.786.539,1.164a5.159,5.159,0,0,0,.564,1.063c.118.166.595.252.808.339a5.756,5.756,0,0,1,.545.223c.273.166.538.355.794.538.13.09.525.288.549.448Z" transform="translate(0 -4.026)" fill="#2980b9"/>
</svg>
