<svg xmlns="http://www.w3.org/2000/svg" width="20.298" height="20.218" viewBox="0 0 20.298 20.218">
  <path id="logo-small.ede75a6b" d="M17.957,45.652a1.287,1.287,0,0,0-.409.073,1.154,1.154,0,0,1,.488.681c.005.037.016.063.021.1a.576.576,0,0,1,.01.094c.021.461-.121.519-.22.792a1.12,1.12,0,0,0,.073,1.033.626.626,0,0,0,.063.115c-.2-1.326.907-1.525,1.111-1.94a.967.967,0,0,0-.519-.771,1.158,1.158,0,0,0-.619-.178Zm1.667.3a.607.607,0,0,0-.01.152c-.005.042-.005.094-.01.136a1.139,1.139,0,0,1-.037.126,1.176,1.176,0,0,1-.042.126c-.021.042-.037.079-.058.121-.016.021-.026.042-.042.063l-.031.047c-.026.037-.052.073-.079.1a.8.8,0,0,1-.094.094v.005c-.031.026-.063.058-.1.084-.11.084-.236.147-.351.225a.781.781,0,0,0-.1.079.766.766,0,0,0-.1.084.848.848,0,0,0-.094.1.781.781,0,0,0-.079.1c-.026.037-.052.073-.073.11s-.037.079-.058.121a1.1,1.1,0,0,0-.042.121c-.016.047-.026.089-.037.131-.005.021-.005.047-.01.068s-.005.042-.01.063c0,.042-.005.089-.005.131a.569.569,0,0,0,.005.094.6.6,0,0,0,.016.131,1.075,1.075,0,0,0,.026.126c.016.042.026.084.042.126.01.026.026.052.037.073l-1.206-.467c-.2-.058-.4-.11-.608-.157l-.33-.079c-.315-.063-.634-.11-.954-.142-.01,0-.016-.005-.026-.005A9.373,9.373,0,0,0,14.22,48c-.231,0-.461.01-.687.026-.32.021-.64.063-.959.115-.079.01-.157.026-.236.042-.162.031-.32.068-.472.1l-.236.063c-.079.031-.152.068-.225.1l-.173.079c-.01.005-.021.005-.026.01-.052.026-.1.047-.147.073a.255.255,0,0,0-.037.016c-.058.026-.115.058-.163.084s-.073.037-.1.052a.473.473,0,0,1-.047.026c-.047.026-.094.052-.136.079a1.321,1.321,0,0,0-.126.079c-.037.026-.073.047-.1.073-.005.005-.01.005-.016.01a1.211,1.211,0,0,0-.1.073l-.01.01-.079.063c-.01.005-.021.016-.031.021-.026.021-.052.047-.079.068-.005.01-.016.016-.021.021-.031.031-.063.058-.094.089-.005,0-.005.005-.01.01-.031.026-.063.058-.094.089-.005.005-.005.01-.01.01-.026.026-.052.052-.079.084-.01.01-.026.021-.037.031-.026.031-.058.063-.089.094-.005.01-.016.016-.021.026-.042.042-.079.084-.121.126l-.016.016a3.094,3.094,0,0,1-.267.257,2.98,2.98,0,0,1-.294.231c-.1.073-.2.136-.315.2a3.2,3.2,0,0,1-.33.157c-.11.047-.225.089-.341.126a5.866,5.866,0,0,1-.64.152A1.117,1.117,0,0,0,7.117,51l-.131.031-.126.047a1.341,1.341,0,0,0-.126.058c-.037.026-.079.047-.115.073a.855.855,0,0,0-.1.089.9.9,0,0,0-.1.094c-.031.037-.063.068-.089.1s-.058.079-.079.121a.924.924,0,0,0-.073.121c-.021.047-.042.089-.058.136s-.031.089-.047.136a1.074,1.074,0,0,0-.026.126c0,.005-.005.01-.005.016-.01.047-.01.11-.016.142a.709.709,0,0,0-.01.1.3.3,0,0,0,.005.068.556.556,0,0,0,.021.1.7.7,0,0,0,.037.094v.005a.912.912,0,0,0,.058.094,1.064,1.064,0,0,0,.068.094c.026.026.058.058.089.084a.767.767,0,0,0,.1.084,1.22,1.22,0,0,0,.32.231c.026.016.052.026.084.042.005,0,.01.005.016.005a.047.047,0,0,0,.005.026,1.076,1.076,0,0,0,.026.126.706.706,0,0,0,.042.126c.016.031.026.063.042.094a.115.115,0,0,0,.016.026c.021.042.042.079.063.115l.079.11c.026.031.058.068.089.1s.063.058.1.089a.018.018,0,0,0,.01.005,1.15,1.15,0,0,0,.094.073.835.835,0,0,0,.115.068.853.853,0,0,0,.121.058.617.617,0,0,0,.1.037c.005.005.01.005.021.01l.068.016a2.086,2.086,0,0,0,.021.645c.047.1.278-.215.508-.582a3.2,3.2,0,0,0,0,.912c.058.131.372-.278.645-.729a6.058,6.058,0,0,1,7.465,5.336,1.027,1.027,0,0,0-1.085-.8,2.734,2.734,0,0,1-.854,1.2,3.361,3.361,0,0,0-.052-1.048,3.39,3.39,0,0,1-.65,1.321,1.464,1.464,0,0,1-1.258-.566c-.021-.016-.026-.047-.042-.068a.945.945,0,0,1-.042-.11.435.435,0,0,1-.031-.11.811.811,0,0,1-.005-.115v-.079a.839.839,0,0,1,.026-.11.9.9,0,0,1,.037-.11,1.18,1.18,0,0,1,.063-.11c.089-.252.089-.456-.073-.577a.6.6,0,0,0-.1-.052c-.021-.005-.047-.016-.068-.021l-.042-.016a.838.838,0,0,0-.11-.026.4.4,0,0,0-.11-.016.855.855,0,0,0-.115-.01c-.026,0-.052.005-.079.005a.409.409,0,0,0-.115.016.814.814,0,0,0-.11.021.9.9,0,0,0-.11.037l-.1.047c-.031.016-.063.037-.1.052-1.221.8-.493,2.663.341,3.2a2.618,2.618,0,0,0-.723.194l-.01.01a4.939,4.939,0,0,0,.708.351c.335.11.692.21.849.252v.005a5.071,5.071,0,0,0,1.321.094,4.986,4.986,0,0,0,4.571-4.256c.01.047.021.089.031.136.016.094.037.194.047.294V59c.01.047.016.094.021.136v.021a1.287,1.287,0,0,1,.01.136c.005.058.01.115.01.173v.084c0,.026.005.058.005.084s-.005.063-.005.094v.073c0,.037-.005.068-.005.1a.322.322,0,0,1-.005.068c0,.037-.005.073-.005.115a.145.145,0,0,0-.005.047c-.005.042-.01.079-.016.121a.145.145,0,0,1-.005.047c-.005.052-.016.1-.021.152v.011c-.01.047-.021.1-.031.147v.016l-.031.142c0,.005-.005.016-.005.021a1.408,1.408,0,0,1-.037.142v.016c-.016.052-.031.1-.042.147a.016.016,0,0,0-.005.01l-.047.157c-.021.052-.037.1-.058.152s-.037.1-.058.152-.042.1-.063.152h-.005c-.021.047-.042.1-.068.147a.255.255,0,0,1-.016.037c-.005.005-.005.01-.01.016a4.962,4.962,0,0,1-1.473,1.761c-.042.026-.084.058-.126.089-.01.01-.026.016-.037.026-.037.026-.073.052-.115.079l.016.031h.005l.22-.031h.005c.136-.021.273-.047.409-.073a.914.914,0,0,0,.115-.026l.073-.016c.037-.005.073-.016.11-.021s.063-.016.094-.026a9.936,9.936,0,0,0,1.52-.5A8.4,8.4,0,0,1,15.5,65.871a8.625,8.625,0,0,0,1.788-.309A8.375,8.375,0,0,0,22.245,61.6a8.367,8.367,0,0,1-1.41,3.371,8.238,8.238,0,0,0,3.606-5.619,8.347,8.347,0,0,1,.152,2.527c3.785-5.279.315-10.751-1.138-12.193-.005-.01-.01-.016-.01-.026-.005.005-.005.005-.005.01s0-.005-.005-.01c0,.063-.005.126-.01.189-.016.121-.031.236-.052.351s-.058.231-.089.346-.079.225-.126.335-.1.215-.157.32-.121.2-.189.3-.142.194-.215.283-.162.178-.246.262c-.052.047-.1.089-.152.131l-.121.1a2.925,2.925,0,0,1-.294.2c-.1.063-.2.126-.309.178s-.22.1-.33.147-.225.079-.341.11-.236.058-.351.079-.241.031-.356.042c-.084.005-.168.01-.252.01-.121,0-.241-.01-.356-.021a3.529,3.529,0,0,1-.708-.142h-.005c.115-.01.231-.021.346-.042s.236-.047.351-.079.231-.068.341-.11a3.147,3.147,0,0,0,.33-.147c.11-.052.21-.11.315-.173s.2-.136.294-.21a4.281,4.281,0,0,0,.514-.493q.118-.142.22-.283c.01-.016.021-.037.031-.052.052-.084.1-.168.152-.252.058-.1.11-.21.157-.32s.089-.22.126-.335.063-.225.089-.341.042-.236.052-.351.021-.241.021-.356c0-.084-.005-.168-.01-.252-.01-.121-.026-.236-.042-.351s-.047-.236-.079-.351-.073-.225-.115-.335-.094-.22-.147-.325-.115-.21-.178-.309-.136-.194-.21-.288-.157-.178-.241-.267c-.042-.042-.089-.089-.136-.131-.236-.183-.482-.356-.729-.514a.976.976,0,0,0-.1-.052,2.042,2.042,0,0,0-.5-.22Z" transform="translate(-6.006 -45.652)" fill="#e0234e" fill-rule="evenodd"/>
</svg>
