<svg id="Group_250" data-name="Group 250" xmlns="http://www.w3.org/2000/svg" width="21.026" height="21.026" viewBox="0 0 21.026 21.026">
  <path id="Path_3824" data-name="Path 3824" d="M0,0V21.026H21.026V0ZM20.1,20.1H.925V.925H20.1V20.1Z" fill="#9b59b6"/>
  <g id="Group_249" data-name="Group 249" transform="translate(3.946 5.629)">
    <path id="Path_3825" data-name="Path 3825" d="M103.047,137.064H101.4l-1.763,3.688-1.787-3.688H96.162l2.395,4.788-2.48,4.9h1.672L99.544,143l1.816,3.758h1.81l-2.556-4.961Zm4.54,0v2.464h-.473a3.466,3.466,0,0,0-3.568,3.7c0,2.057,1.042,3.6,3.262,3.6a4.279,4.279,0,0,0,2.4-.565v-9.2Zm0,8.353a1.727,1.727,0,0,1-.628.082c-.441,0-1.8-.194-1.8-2.342s1.556-2.319,1.93-2.319a.8.8,0,0,1,.494.1v4.474Z" transform="translate(-96.077 -137.064)" fill="#9b59b6"/>
  </g>
</svg>
